
<svg xmlns="http://www.w3.org/2000/svg" viewBox="0 0 302.07 130.5"><defs><style>.cls-1{fill:#fff;}.cls-2{fill:#f6f6f6;}.cls-3{fill:#575756;}</style></defs><title>codics_white</title><g id="Layer_2" data-name="Layer 2"><g id="Layer_1-2" data-name="Layer 1"><path class="cls-1" d="M146.59,37.14h7.26v7.41l-6,3.48H133.17l-6-3.48V14.7l6-3.47h14.67l6,3.47v7.42h-7.26V17.45H134.42V41.81h12.17Z"/><path class="cls-1" d="M188.32,44.55l-6,3.48H166.08l-6-3.48V14.7l6-3.47H182.3l6,3.47Zm-21-27.1V41.81h13.73V17.45Z"/><path class="cls-1" d="M223.3,44.3l-6,3.47H195.05V11.49h22.23l6,3.47Zm-21-26.59V41.55H216V17.71Z"/><path class="cls-1" d="M230,47.77V11.49h7.26V47.77Z"/><path class="cls-1" d="M263.46,37.14h7.26v7.41l-6,3.48H250l-6-3.48V14.7l6-3.47h14.67l6,3.47v7.42h-7.26V17.45H251.28V41.81h12.18Z"/><path class="cls-1" d="M276.93,29.37V14.7l6-3.47h13.11l6,3.47v6.9h-7.26V17.45H284.19V26.1h11.87l6,3.48v15l-6,3.48H282.43l-6-3.48V37.66h7.25v4.15h11.14v-9H283Z"/><path class="cls-1" d="M137.41,61.56a10,10,0,0,0-2.66-.4,5.81,5.81,0,0,0-3.2.79,2.46,2.46,0,0,0-1.2,2.15A2.83,2.83,0,0,0,131,66a4.83,4.83,0,0,0,1.64,1.18,26.47,26.47,0,0,0,2.66,1,23.3,23.3,0,0,1,3.17,1.15A5.72,5.72,0,0,1,140.53,71a5,5,0,0,1,0,5.59,5.51,5.51,0,0,1-2.45,1.84,9.4,9.4,0,0,1-3.63.66,10.08,10.08,0,0,1-3.95-.81,10.47,10.47,0,0,1-3.31-2.13l.89-1.58a9.53,9.53,0,0,0,3,2,8.86,8.86,0,0,0,3.38.72,6.12,6.12,0,0,0,3.52-.91,2.8,2.8,0,0,0,1.3-2.42,3,3,0,0,0-.67-2A4.3,4.3,0,0,0,137,70.75c-.65-.28-1.55-.6-2.72-1a29.5,29.5,0,0,1-3.16-1.14,5.41,5.41,0,0,1-2-1.61,4.43,4.43,0,0,1-.83-2.79,4.2,4.2,0,0,1,.83-2.57A5.38,5.38,0,0,1,131.4,60a9.46,9.46,0,0,1,3.46-.59,11.27,11.27,0,0,1,3.17.47,10.86,10.86,0,0,1,2.82,1.25L140,62.71A10.57,10.57,0,0,0,137.41,61.56Z"/><path class="cls-1" d="M159.42,60.71a9.87,9.87,0,0,1,3.67,3.56,9.26,9.26,0,0,1,1.36,4.93,9.41,9.41,0,0,1-1.36,5,10.09,10.09,0,0,1-8.75,4.94,10.09,10.09,0,0,1-8.76-4.94,9.49,9.49,0,0,1-1.35-5,9.35,9.35,0,0,1,1.35-4.93,10,10,0,0,1,3.67-3.56,10.45,10.45,0,0,1,10.17,0Zm-9.16,1.48a8.24,8.24,0,0,0-3,2.93,7.81,7.81,0,0,0-1.11,4.08,8,8,0,0,0,1.11,4.1,8.27,8.27,0,0,0,3,3,8.05,8.05,0,0,0,4.1,1.1,7.88,7.88,0,0,0,4.06-1.1,8.24,8.24,0,0,0,3-3,8,8,0,0,0,1.11-4.1,7.81,7.81,0,0,0-1.11-4.08,8.21,8.21,0,0,0-3-2.93,7.86,7.86,0,0,0-4.06-1.08A8,8,0,0,0,150.26,62.19Z"/><path class="cls-1" d="M168.66,59.55h12.13v1.72H170.57v7.46h9.11v1.71h-9.11v8.48h-1.91Z"/><path class="cls-1" d="M181.43,59.53h14.71v1.74h-6.4V78.92h-1.91V61.27h-6.4Z"/><path class="cls-1" d="M222.65,59.53h2l-6.56,19.39h-2l-5.46-17-5.51,17h-2l-6.53-19.39h2.07l5.52,17.36,5.48-17.36h1.94l5.51,17.36Z"/><path class="cls-1" d="M241.1,78.92l-2.3-5.15H228.05l-2.27,5.15h-2.05l8.72-19.37h2l8.73,19.37Zm-12.3-6.87h9.25L233.4,61.58Z"/><path class="cls-1" d="M259.13,78.92,255,72.6c-.59,0-1,.06-1.36.06h-5.32v6.26h-1.91V59.55h7.23a8.43,8.43,0,0,1,5.61,1.68,5.88,5.88,0,0,1,2,4.75A6.71,6.71,0,0,1,260,70a6.08,6.08,0,0,1-3.33,2.24l4.66,6.68Zm-5.54-8a6.45,6.45,0,0,0,4.27-1.26A4.51,4.51,0,0,0,259.35,66a4.32,4.32,0,0,0-1.49-3.55,6.62,6.62,0,0,0-4.27-1.22h-5.32v9.67Z"/><path class="cls-1" d="M266.39,59.55h13v1.72H268.3V68.2h9.89v1.72H268.3V77.2h11.41v1.72H266.39Z"/><path class="cls-1" d="M139.71,88.93a5.91,5.91,0,0,1,2,4.75,6.24,6.24,0,0,1-2,4.93,8.09,8.09,0,0,1-5.57,1.75h-5.23v6.26H127V87.26h7.15A8.33,8.33,0,0,1,139.71,88.93Zm-1.37,8.45a4.46,4.46,0,0,0,1.51-3.64,4.32,4.32,0,0,0-1.5-3.55A6.64,6.64,0,0,0,134.06,89h-5.15v9.66h5.15A6.5,6.5,0,0,0,138.34,97.38Z"/><path class="cls-1" d="M158.27,106.62l-4.18-6.31c-.59,0-1.05,0-1.36,0h-5.32v6.26H145.5V87.26h7.23a8.42,8.42,0,0,1,5.61,1.67,5.88,5.88,0,0,1,2,4.75,6.71,6.71,0,0,1-1.16,4,6.08,6.08,0,0,1-3.33,2.24l4.66,6.68Zm-5.54-8A6.45,6.45,0,0,0,157,97.38a4.51,4.51,0,0,0,1.49-3.64A4.35,4.35,0,0,0,157,90.19,6.62,6.62,0,0,0,152.73,89h-5.32v9.66Z"/><path class="cls-1" d="M178.84,88.41A10,10,0,0,1,182.51,92a9.29,9.29,0,0,1,1.36,4.93,9.41,9.41,0,0,1-1.36,4.95,10.09,10.09,0,0,1-8.75,4.94,10.09,10.09,0,0,1-8.76-4.94,9.49,9.49,0,0,1-1.35-4.95A9.37,9.37,0,0,1,165,92a10.34,10.34,0,0,1,13.84-3.56Zm-9.16,1.48a8.24,8.24,0,0,0-3,2.93,7.81,7.81,0,0,0-1.1,4.08,8,8,0,0,0,1.1,4.1,8.27,8.27,0,0,0,3,3,8.05,8.05,0,0,0,4.1,1.1,7.88,7.88,0,0,0,4.06-1.1,8.24,8.24,0,0,0,3-3,8,8,0,0,0,1.11-4.1,7.81,7.81,0,0,0-1.11-4.08,8.21,8.21,0,0,0-3-2.93,8,8,0,0,0-4.06-1.08A8.13,8.13,0,0,0,169.68,89.89Z"/><path class="cls-1" d="M200.92,88.53A9.49,9.49,0,0,1,205.83,97a9.44,9.44,0,0,1-4.92,8.39,10.27,10.27,0,0,1-5.1,1.28h-7.73V87.26h7.78A10.22,10.22,0,0,1,200.92,88.53Zm-1,15.32a8,8,0,0,0,0-13.82,7.92,7.92,0,0,0-4-1H190v15.93h5.93A7.88,7.88,0,0,0,199.93,103.85Z"/><path class="cls-1" d="M213.13,103.41a6.92,6.92,0,0,0,9,0,6.44,6.44,0,0,0,1.61-4.66V87.23h1.91V98.75a8,8,0,1,1-16,0V87.23h1.91V98.75A6.4,6.4,0,0,0,213.13,103.41Z"/><path class="cls-1" d="M242.68,89.41a8.21,8.21,0,0,0-3.16-.63,8.13,8.13,0,0,0-7.08,4,8.18,8.18,0,0,0,0,8.16,8.16,8.16,0,0,0,3,3,8,8,0,0,0,4.11,1.09,8.13,8.13,0,0,0,3.13-.62,9,9,0,0,0,2.71-1.73l1.17,1.24a11.14,11.14,0,0,1-3.3,2.11,9.71,9.71,0,0,1-3.79.78,10,10,0,0,1-8.69-4.94,9.58,9.58,0,0,1-1.34-4.95A9.29,9.29,0,0,1,230.77,92a9.88,9.88,0,0,1,3.67-3.56,10,10,0,0,1,5.05-1.32,10.25,10.25,0,0,1,7,2.77l-1.14,1.33A8.54,8.54,0,0,0,242.68,89.41Z"/><path class="cls-1" d="M250.71,87.26h13V89H252.62V95.9h9.89v1.72h-9.89v7.29H264v1.71H250.71Z"/><path class="cls-1" d="M281.49,106.62l-4.19-6.31c-.59,0-1,0-1.35,0h-5.32v6.26h-1.92V87.26H276a8.46,8.46,0,0,1,5.61,1.67,5.88,5.88,0,0,1,2,4.75,6.64,6.64,0,0,1-1.17,4,6,6,0,0,1-3.32,2.24l4.65,6.68Zm-5.54-8a6.44,6.44,0,0,0,4.26-1.26,4.48,4.48,0,0,0,1.5-3.64,4.32,4.32,0,0,0-1.5-3.55A6.61,6.61,0,0,0,276,89h-5.32v9.66Z"/><path class="cls-1" d="M296.89,89.26a10,10,0,0,0-2.66-.4,5.81,5.81,0,0,0-3.2.79,2.46,2.46,0,0,0-1.2,2.15,2.82,2.82,0,0,0,.66,1.94,4.7,4.7,0,0,0,1.64,1.18,26.47,26.47,0,0,0,2.66,1A23.81,23.81,0,0,1,298,97,5.72,5.72,0,0,1,300,98.67a5,5,0,0,1,0,5.6,5.66,5.66,0,0,1-2.45,1.84,9.59,9.59,0,0,1-3.63.65A10.08,10.08,0,0,1,290,106a10.47,10.47,0,0,1-3.31-2.13l.89-1.58a9.53,9.53,0,0,0,3,2,8.67,8.67,0,0,0,3.38.72,6.06,6.06,0,0,0,3.51-.9,2.81,2.81,0,0,0,1.31-2.43,3,3,0,0,0-.67-2,4.41,4.41,0,0,0-1.63-1.19c-.65-.28-1.55-.6-2.72-1a29.24,29.24,0,0,1-3.16-1.15,5.41,5.41,0,0,1-2-1.61,4.42,4.42,0,0,1-.83-2.78,4.21,4.21,0,0,1,.83-2.58,5.28,5.28,0,0,1,2.33-1.7,9.25,9.25,0,0,1,3.46-.6,11.68,11.68,0,0,1,6,1.72l-.83,1.64A10.23,10.23,0,0,0,296.89,89.26Z"/><polygon class="cls-2" points="51.99 100.11 0.19 113.99 0.18 118.04 43.27 130.5 43.28 126.45 95.07 112.57 51.99 100.11"/><polygon class="cls-3" points="95.07 112.57 95.06 116.62 43.27 130.5 43.28 126.45 95.07 112.57"/><polygon class="cls-2" points="95.15 68.95 58.67 58.4 58.7 41.88 76.75 47.09 76.76 43.14 76.76 41.48 79.73 42.34 92.26 38.98 92.3 21.87 81.93 16.62 74.83 14.57 81.94 12.67 82.73 12.46 39.64 0 38.86 0.21 13.53 7 12.73 7.21 12.04 7.91 1.65 18.72 0.16 20.27 0.16 22.55 0.01 91.52 0 93.81 1.48 94.57 11.84 99.81 12.52 100.14 55.6 112.6 54.92 112.27 44.56 107.02 43.08 106.26 43.09 104.58 56.41 108.43 81.74 101.64 92.14 90.83 92.18 73.72 85.05 71.66 92.19 69.74 95.15 68.95"/><path class="cls-3" d="M93.78,18l1.48.76v2.28l0,17.12v4l-3,.79L79.72,46.3l-3,.79V36.32l-15.11,4-.11,48.36,15.12-4V73.89l3-.79,12.53-3.36,3-.79v4L95.1,90v2.3l-1.48,1.54-10.4,10.8-.69.71-.79.21L56.4,112.39l-.8.21-.68-.33L44.56,107l-1.48-.76V104l.15-69V32.73l1.48-1.56,10.4-10.8.68-.7.8-.22,25.33-6.78.79-.22.69.34ZM92.26,39l0-17.11L81.93,16.62,56.6,23.41,46.2,34.22l-.15,69,10.36,5.24,25.33-6.79,10.4-10.81,0-17.11L79.65,77.07l0,10.77-21,5.64.12-56.27,21-5.64,0,10.77L92.26,39"/></g></g></svg>
