<svg xmlns="http://www.w3.org/2000/svg" width="140" height="86" viewBox="0 0 140 86">
    <g fill="none" fill-rule="nonzero">
        <path fill="#fff"
              d="M85.527 28.45c.935-1.739.36-4.546-.145-6.461-.78 2.61-.625 6.825-1.525 8.912 2.695-2.014 6.675-3.968 6.095-8.553-.79 2.635-3.135 4.23-4.425 6.101zm-.145-4.989c.32 1.384.515 3.329-.165 4.333.305-1.216.21-3.328.165-4.333zm2.19 3.87c.835-1.162 1.84-2.614 2.19-3.83-.185 1.482-.96 3.062-2.19 3.83zM62.926 12.85c-2.415 0-4.045 2.413-3.975 5.609.31-1.694 1.63-2.674 3.47-2.674 2.47 0 4.94 1.768 5.52 4.644.02.113.04.221.055.33h-.54v1.738h.56c-.25 1.846-1.35 3.141-2.555 3.141-2.47 0-3.165-2.969-1.625-3.998h-4.28c1.045 2.89 3.285 5.013 5.545 5.013 2.035 0 3.51-1.709 3.885-4.156h.81c.375 2.442 1.85 4.156 3.885 4.156 2.266 0 4.506-2.118 5.546-5.013h-4.28c1.535 1.03.84 3.998-1.626 3.998-1.205 0-2.31-1.295-2.555-3.141h.56v-1.738h-.545c.015-.109.035-.222.055-.33.58-2.876 3.05-4.644 5.52-4.644 1.84 0 3.16.985 3.47 2.674.07-3.19-1.56-5.609-3.98-5.609-2.73 0-5.435 3.088-6.03 6.9-.055.344-.085.679-.105 1.009h-.645a8.98 8.98 0 0 0-.105-1.01c-.6-3.811-3.3-6.899-6.035-6.899zm-1.355 9.75l-1.61-.768 1.91.64.855-.36c-.77.798-.54 2.423.82 3.394-1.245-.66-1.675-1.527-1.975-2.906zm15.64.06l-1.854-.838 2.16.72.72-.282c-.53 1.197-1.18 1.99-2.49 3.004.995-1.01 1.215-1.743 1.465-2.605zm2.02-6.343c-1.62-2.94-5.225-2.388-7.5.458 2.866-4.132 6.476-3.644 7.5-.458zm-19.68.487a7.79 7.79 0 0 0-.42.636c.34-1.33 1.13-2.162 2.195-2.768-.955.557-1.475 1.251-1.775 2.132zm13.875 9.337c-1.89-.02-2.865-1.753-3.135-3.644h.185c.31 1.777 1.3 3.23 2.95 3.644zm-2.67-7.426a8.596 8.596 0 0 0-.375 2.039h-.14c.06-.773.24-1.492.515-2.039zm.2 2.383c.11 0 .095.98-.125 1.01-.22.03-1.9.152-2.46.093s2.055-1.103 2.585-1.103zm-2.31-.34h-.09c-.425-4.269-4.105-6.775-6.5-6.406 2.53-1.088 6.41 1.556 6.59 6.407zm-13.855 5.688c.425 2.477 1.005 5.328 2.285 6.727-2.105-1.788-5.335-2.418-6.855-4.802 1.03 3.92 4.71 5.757 8.905 6.023-2.145-1.93-2.095-6.111-4.335-7.948zm-3.265 3.772c1.47 1.467 2.99 1.379 4.695 2.935-1.74-.946-3.505-1.207-4.695-2.935zm3.99-2.452c.91 1.004.82 2.516 1.595 4.318-.865-1.236-1.045-2.994-1.595-4.318zm21.546 7.47c2.41-.38 3.37-2.88 3.985-4.698-2.175 1.66-3.43 4.264-6.566 4.94 3.9 1.545 10.066 1.24 11.016-2.409-1.395 2.098-5.845 1.699-8.435 2.167zm3.58-3.989c-.41.862-1.005 2.33-2.255 2.876.885-.778 1.71-2.034 2.255-2.876zm-1.675 4.363c1.735-.684 3.27-.212 5.335-1.133-.775.769-4.04 1.177-5.335 1.133zm4.625-25.123c-.515-.4-1-.833-1.37-1.384.22 1.723 1.19 2.674 2.255 3.53.13.38.25.769.355 1.163-.31-.296-.6-.606-.85-.956.215 1.266.72 2.231 1.305 3.117.07.449.12.902.155 1.364-.06-.128-.12-.256-.175-.384-.06 3.482 1.715 5.698 1.525 8.913 1.875-2.127 4.35-5.663 2.815-9.755-.17 2.98-1.51 4.757-2.095 7.308.37-2.546-1.15-4.21-2.035-6.018a16.291 16.291 0 0 0-.125-1.324c.92 1.369 2.015 2.556 2.5 4.373-.055-1.458 1.005-2.871 1.17-4.457.25-2.398-.48-4.456-1.64-5.421.875 1.797.05 4.929.205 7.233-.235-1.95-1.51-2.826-2.63-3.87-.095-.39-.2-.773-.315-1.148.88.7 1.8 1.36 2.39 2.364.455-3.723-.49-7.283-2.695-7.465 1.34 1.197 1.48 4.26 2.11 5.781-.495-1.285-1.56-1.984-2.575-2.743-.25-.561-.52-1.103-.82-1.63.63.739 1.305 1.38 2.105 1.724-.565-2.58-2.255-4.575-4.575-5.097C77.677 2.592 73.736.682 69.392.682c-4.166 0-7.956 1.753-10.816 4.628 2.855-2.678 6.56-4.294 10.61-4.294 6.236 0 11.656 3.836 14.406 9.47zm6.1 7.189c.16 1.197.16 2.684-1.275 4.781.635-1.467 1.14-2.89 1.275-4.781zm-2.605 5.446c0-1.354-1.02-3.51-1.4-4.668.835 1.65 1.75 2.812 1.4 4.668zm1.14-6.273c.455-1.97.185-3.413-.2-5.018.67 1.827 1.11 3.102.2 5.018zm-3.22-2.482l.065.064c1.125 1.162 1.93 1.64 2 3.087-.41-1.196-1.215-1.88-1.955-2.88-.04-.05-.075-.104-.115-.158-.095-.138-.19-.28-.285-.428l.29.315zm.36-5.88c.575.35 1.35 1.552 1.26 3.831-.12-1.821-.59-2.757-1.26-3.83zm-1.295 2.704c.615.418 1.25.896 1.705 1.782-.195-.305-.88-.842-1.56-1.408a9.339 9.339 0 0 0-.23-.192c-.46-.389-.885-.778-1.115-1.098.285.295.62.527.97.763.08.05.155.099.23.153zm.14-1.798c-.865-1.132-1.05-1.65-3.055-3.2.365.03 1.995.768 3.055 3.2zm-.26 9.312C83.882 9.698 77.277 2.39 69.166 2.39c-3.14 0-6.055 1.098-8.455 2.965 2.425-2.039 5.43-3.25 8.68-3.25 8.03 0 14.566 7.381 14.566 16.451 0 .055-.005.099-.005.148zm-12.79-7.416c0-3.461-1.776-5.14-1.776-5.14s-1.775 1.679-1.775 5.14c0 .458.03.921.085 1.38.405 2.968 1.175 4.436 1.69 5.165v.748c.005 0 1.775-3.831 1.775-7.293zm-1.71-4.367c1.244 1.546 1.114 5.702 0 9.907V6.921zm-7.58 15.55l-.306.128.305-.128zM58.19 5.73c-2.445.778-4.37 2.738-4.57 5.421 1.84-1.398 3.4-3.727 4.57-5.421zm-.985.852c-1.21 2.033-1.845 2.097-2.985 3.565.91-1.674 2.165-2.87 2.985-3.565zM55.14 30.9c-1.41-2.166-.625-6.583-1.875-8.912-.155 2.481-.925 5.126.205 7.002-1.44-2.211-3.54-3.743-4.775-6.16.095 4.722 3.62 6.554 6.445 8.07zm-1.615-7.568c.525 2.004.02 3.526.155 4.84-.385-2.097-.085-3.584-.155-4.84zm-.67 5.426c-1.78-1.117-2.965-2.895-3.51-4.21.79 1.704 2.355 2.477 3.51 4.21zm29.1 4.058l-.004-.005c1.385-1.546 1.745-4.506 2.025-6.726-1.9 2.142-2.42 6.347-4.1 8.312 4.215-.69 8.025-2.433 8.675-6.382-1.325 2.496-4.48 3.117-6.595 4.801zm1.68-5.89c-.164.685-.544 3.664-1.55 4.866.53-.965 1.2-3.831 1.55-4.865zm.18 5.467c.61-.838 2.446-1.286 4.256-3.33-.65 1.29-2.705 2.66-4.255 3.33zM72.782 35.55c3.856-.96 7.176-3.511 9.376-7.002-2.785 4.116-7.165 6.815-12.106 6.938-.325-.202-.74-.335-.925-.261-.095.04-.235.123-.38.236-8.16-.551-14.65-8.13-14.65-17.372 0-2.093.335-4.097.945-5.954.72-.719 1.265-1.56 1.27-2.787-.095.158-.205.3-.315.438a18.5 18.5 0 0 1 .935-1.689c-.405.601-.775 1.241-1.11 1.901-1.15 1.28-2.885 1.965-3.61 3.683.695-1.856.99-4.766 1.99-5.899-2.445.803-3.01 4.319-2.345 7.588.625-1.275 1.925-2.058 2.96-3.018-.1.28-.19.571-.275.862-1.265 1.625-3.075 2.688-3.51 5.17.425-2.418-.48-6.12.115-7.588-2.29 2.216-1.27 7.214 0 9.755.42-2.265 2.115-3.595 2.945-5.441a19.18 19.18 0 0 0-.31 3.461c0 8.352 5.3 15.349 12.345 17.023-2.635.483-4.775 2.31-7.24 2.064-.78-.08-1.405-.493-2.11-.601 1.395 1.093 2.645 1.935 4.335 1.925 3.08-.015 4.61-2.979 7.005-2.841-.06.118-.09.231-.055.325 0 .005.005.01.005.01-.565.266-1.295.615-2.035 1.177-.92.699-2.83 2.127-1.17 2.53.74-.935 2.26-2.486 3.51-3.289.025.025.055.045.08.07-.495.472-.84.792-.815 1.186.035.537.68 1.26.68 1.26s.31-1.477.56-1.851c.055-.079.11-.172.165-.27.12.039.23.063.315.063.065 0 .14-.034.23-.088.27.67.73 1.437.425 2.176.475-.226 1.1-1.064 1.095-1.507-.005-.344-.71-.906-1.02-1.132.02-.025.04-.045.06-.07.675.395 1.39 1.005 1.865 1.41.855.723 1.515 1.407 2.225 2.048.16-.276.486-.39.706-.601-1.08-1.482-3.08-2.566-4.49-3.339a.552.552 0 0 0 .054-.212c.82-.206 1.695.3 2.36.788 2.406 1.758 6.82 3.117 9.106-.005-3.075 2.02-5.805-.694-9.19-1.27zM53.361 8.738c-.685 1.61-.695 3.033-1.225 4.097-.01-1.778.6-3.137 1.225-4.097zm-.335 4.5c.76-.91 2.525-2.152 2.795-2.698-.11.394-.315.714-.575 1a2.807 2.807 0 0 1-.21.211c-.63.586-1.465.995-2.01 1.487zm-2.45 3.886c-.26-1.862-.29-3.162 0-4.516.245 1.064-.06 2.63 0 4.516zm1.035.925c.455-1.3 2.085-3.048 2.34-3.496-.27 1.315-1.425 1.733-2.34 3.496zm9.31 19.973c2.19-.296 3.965-2.393 6.155-2.162-1.595.168-3.9 2.285-6.155 2.162zm7.47.428c-.57-.32.175-1.088.435-1.132-.31.408-.47.9-.435 1.132zm2.335.197c-.07-.369-.145-1.068-.39-1.364.545.473.82.832.39 1.364zm-1.25-3.161c-.095 0-.19-.005-.285-.005a.244.244 0 0 0-.06-.04c.115.01.235.025.345.045zm-.315.478h.07c.19.206.405.492.38.689-.325-.084-.32-.414-.45-.69zm.655-.005l.345-.015c.01.034.02.074.02.118-.15.084-.265-.005-.365-.103zm2.345-.266c1.89.044 4.676 1.95 6.18 2.161-2.6 0-5.405-2.142-6.18-2.161zm-16.16-21.967a18.006 18.006 0 0 0-.525 4.323c0 8.81 6.3 15.98 14.045 15.98 6.266 0 11.58-4.688 13.386-11.14-1.665 6.717-7.095 11.651-13.526 11.651-7.745 0-14.045-7.17-14.045-15.979.005-1.684.235-3.309.665-4.835zm-2.615 3.447c-.68 2.088-2.36 3.93-2.09 6.5-.5-2.664-1.84-4.462-2.25-7.224-1.1 4.25 1.02 7.49 3.05 9.637-.215-3.556 1.725-5.535 1.29-8.913zm-4.22 1.334c.105.813 1.4 3.413 1.61 4.964-.545-1.27-1.415-3.048-1.61-4.964zm3.995.365c0 1.467-.82 2.476-1.23 4.111.135-1.689 1.005-3.161 1.23-4.111zm15.16 7.657c0 1.654 1.065 2.452 1.065 2.452s1.065-.803 1.065-2.452c0-1.655-1.065-3.477-1.065-3.477s-1.065 1.822-1.065 3.477zm1.105-2.704c.755 1.955.725 3.22 0 3.689v-3.689zm-4.905 11.651c-3.325-.354-4.48-3.59-6.8-4.575 1.06 1.886 1.85 4.043 4.22 4.575-2.835-.581-7.035-.394-8.555-1.925 1.69 3.585 7.32 3.5 11.135 1.925zm-5.63-3.516c1.3 1.005 1.71 2.034 3.01 2.876-1.55-.61-2.21-1.724-3.01-2.876zm1.62 3.777c-2.05.187-4.285-.167-5.72-1.03 2.32.735 3.645.483 5.72 1.03zM39.004 81.48l.178.037-.627 1.89H32.87v-.191h.276c.31 0 .533-.094.666-.286.074-.107.114-.365.114-.758v-4.491c0-.435-.05-.707-.153-.814-.143-.15-.35-.225-.627-.225h-.276v-.192h3.326v.192c-.39-.005-.661.033-.82.103-.157.07-.266.164-.32.271-.06.108-.089.37-.089.786v4.375c0 .286.03.477.089.585.044.07.109.126.202.159.09.033.37.052.844.052h.538c.563 0 .958-.038 1.185-.117.227-.08.434-.22.622-.417.177-.215.365-.529.557-.959zm5.489 1.394a.325.325 0 0 1-.207-.07c-.06-.047-.104-.13-.129-.253-.024-.121-.04-.453-.04-.996v-2.85H42.43v.192c.326.005.538.056.641.15.104.094.153.276.153.543v2.662c-.271.262-.503.435-.7.529-.198.093-.376.14-.529.14a.88.88 0 0 1-.582-.206c-.163-.136-.242-.426-.242-.86V78.71H39.43v.192c.262-.005.44.019.538.065a.534.534 0 0 1 .227.197c.05.084.074.239.074.463v2.101c0 .44.04.777.118 1.015.08.239.223.435.425.59.202.154.444.229.72.229.247 0 .484-.056.711-.168.222-.113.548-.389.973-.829v.997h.241l1.486-.58-.074-.178a1.35 1.35 0 0 1-.375.07zm4.723-.542l-1.234-1.685.676-.856c.306-.388.548-.641.726-.758a.955.955 0 0 1 .459-.14V78.7h-1.678v.192c.138 0 .237.023.296.074a.24.24 0 0 1 .094.183c0 .089-.129.304-.39.64l-.405.534-.35-.533-.178-.257c-.128-.174-.187-.3-.187-.38 0-.079.03-.14.088-.191.06-.047.163-.07.311-.07V78.7H45.11v.192c.222 0 .405.046.548.14.143.094.35.327.622.697l.942 1.291-1.041 1.31c-.326.408-.558.66-.691.758a.71.71 0 0 1-.34.127v.182h1.618v-.182c-.163-.005-.286-.042-.365-.112-.08-.07-.123-.14-.123-.225 0-.056.123-.243.37-.552l.794-1.006.726 1.006c.232.318.345.515.345.594 0 .08-.034.14-.103.192-.09.07-.217.103-.38.103v.182h2.34v-.182a.987.987 0 0 1-.504-.14c-.129-.085-.346-.333-.652-.744zm6.362.542a.325.325 0 0 1-.207-.07c-.06-.047-.104-.13-.128-.253-.025-.121-.04-.453-.04-.996v-2.85h-1.688v.192c.326.005.538.056.642.15.103.094.153.276.153.543v2.662c-.272.262-.504.435-.701.529-.198.093-.37.14-.528.14a.88.88 0 0 1-.583-.206c-.163-.136-.241-.426-.241-.86V78.71h-1.738v.192c.262-.005.44.019.538.065a.534.534 0 0 1 .227.197c.05.084.074.239.074.463v2.101c0 .44.04.777.119 1.015.079.239.222.435.424.59.203.154.444.229.72.229.248 0 .484-.056.711-.168.223-.113.548-.389.973-.829v.997h.242l1.485-.58-.074-.178a1.35 1.35 0 0 1-.38.07zm3.549-4.314c-.435 0-.864.351-1.278 1.058V78.56h-.228l-1.5.576.054.182a1.12 1.12 0 0 1 .38-.074c.094 0 .173.023.237.07a.358.358 0 0 1 .129.229c.02.103.034.43.034.978v1.82c0 .276-.01.44-.025.496a.435.435 0 0 1-.187.262c-.123.075-.311.112-.563.112v.183h2.537v-.183c-.222 0-.395-.033-.513-.093a.543.543 0 0 1-.247-.23c-.069-.135-.104-.332-.104-.59v-2.254c.173-.323.341-.552.504-.693.074-.07.148-.103.212-.103.074 0 .193.061.35.178.158.117.302.178.425.178a.461.461 0 0 0 .336-.14.461.461 0 0 0 .143-.337.518.518 0 0 0-.193-.398.81.81 0 0 0-.503-.169zm4.481.333c.153 0 .262.009.326.032.06.024.109.052.133.09a.22.22 0 0 1 .04.14c0 .135-.03.276-.094.416l-1.11 2.597-1.21-2.372c-.118-.234-.177-.421-.177-.552 0-.099.04-.183.123-.248.079-.066.202-.099.365-.099h.114v-.192h-2.31v.192c.183.042.316.09.4.145.059.042.133.122.222.244.118.159.207.29.261.393l1.782 3.546-.35.814c-.129.304-.257.51-.385.618-.129.107-.247.159-.356.159-.034 0-.128-.023-.271-.075a1.552 1.552 0 0 0-.489-.112c-.172 0-.31.042-.41.13a.44.44 0 0 0-.147.347c0 .15.069.285.207.402.138.117.31.174.523.174.291 0 .597-.117.913-.351.316-.234.573-.576.765-1.03l2.019-4.693c.089-.215.153-.346.182-.393a.892.892 0 0 1 .237-.229.784.784 0 0 1 .311-.084v-.192h-1.614v.183zm9.042.29c.38.411.568.978.568 1.689 0 .833-.291 1.506-.879 2.016-.503.44-1.06.655-1.678.655-.29 0-.582-.051-.878-.15a4.207 4.207 0 0 1-.913-.444v-4.87c0-.534-.015-.861-.04-.988-.025-.121-.069-.206-.128-.252a.33.33 0 0 0-.217-.066c-.099 0-.227.028-.38.084l-.074-.177 1.49-.576h.242v3.406c.479-.631.997-.95 1.555-.95.508 0 .952.211 1.332.623zm-.37 1.984c0-.604-.143-1.067-.424-1.39-.282-.323-.607-.487-.968-.487-.192 0-.385.047-.572.14-.143.07-.33.207-.553.412v2.812c.183.173.375.3.573.389.197.089.4.13.602.13.33 0 .636-.172.918-.514.286-.342.424-.842.424-1.492zm5.903-1.792c.385.463.578.991.578 1.59 0 .421-.109.847-.321 1.278-.212.43-.509.758-.879.973-.375.22-.79.327-1.248.327-.746 0-1.343-.28-1.782-.847a2.549 2.549 0 0 1-.558-1.6c0-.43.114-.86.34-1.286.228-.426.524-.74.889-.945.37-.206.76-.305 1.17-.305.755 0 1.357.272 1.811.815zm-.43 1.983c0-.832-.187-1.492-.567-1.97-.257-.327-.582-.49-.982-.49-.193 0-.385.055-.578.163-.192.108-.35.295-.468.566-.119.272-.178.618-.178 1.044 0 .683.143 1.272.43 1.768.286.496.666.744 1.134.744.35 0 .637-.136.87-.412.226-.276.34-.744.34-1.413zm6.466 1.516a.325.325 0 0 1-.207-.07c-.06-.047-.104-.13-.128-.253-.025-.121-.04-.453-.04-.996v-2.85h-1.688v.192c.326.005.538.056.642.15.103.094.153.276.153.543v2.662c-.272.262-.504.435-.701.529-.197.093-.375.14-.528.14a.88.88 0 0 1-.583-.206c-.162-.136-.241-.426-.241-.86V78.71H79.16v.192c.262-.005.44.019.538.065a.534.534 0 0 1 .227.197c.05.084.074.239.074.463v2.101c0 .44.04.777.119 1.015.079.239.222.435.424.59.203.154.444.229.72.229.248 0 .485-.056.712-.168.222-.113.547-.389.972-.829v.997h.242l1.485-.58-.074-.178a1.35 1.35 0 0 1-.38.07zm3.1-.093a.643.643 0 0 1-.346.103.449.449 0 0 1-.355-.16c-.094-.107-.138-.313-.138-.617v-3.05h1.16v-.36h-1.16v-1.545h-.168c-.148.346-.262.585-.346.711a3.138 3.138 0 0 1-.552.641 2.11 2.11 0 0 1-.607.384v.168h.784v3.163c0 .337.04.59.114.754a.8.8 0 0 0 .35.374c.158.089.321.13.489.13.247 0 .484-.083.716-.252.232-.168.41-.42.538-.758h-.213a.79.79 0 0 1-.266.314zm2.576.145c-.044-.099-.069-.295-.069-.59V78.56h-.237l-1.495.576.074.182c.143-.051.266-.074.37-.074.094 0 .168.023.222.065.054.042.094.117.118.23.035.149.05.481.05.991v1.81c0 .291-.025.487-.074.59a.45.45 0 0 1-.198.22c-.084.047-.246.066-.488.066v.182h2.408v-.182c-.237 0-.395-.024-.483-.07a.495.495 0 0 1-.198-.22zm-.513-5.779a.525.525 0 0 0 .385-.154.484.484 0 0 0 .158-.37.485.485 0 0 0-.158-.365.537.537 0 0 0-.385-.15.572.572 0 0 0-.395.15.482.482 0 0 0-.158.365c0 .14.054.267.163.37a.544.544 0 0 0 .39.154zm6.475 8.24c.094.047.272.07.538.07v.192h-2.502v-.192h.104c.202 0 .355-.028.459-.084a.387.387 0 0 0 .172-.201c.045-.099.065-.286.065-.567v-2.02c-.331.369-.617.621-.86.757a1.543 1.543 0 0 1-.764.201c-.479 0-.908-.206-1.288-.622-.376-.412-.568-.968-.568-1.66 0-.796.247-1.447.745-1.947.499-.5 1.1-.754 1.802-.754.207 0 .395.028.567.085.173.056.331.135.464.248a4.94 4.94 0 0 0 .602-.328h.183v6.045c0 .3.02.496.064.58a.57.57 0 0 0 .217.197zm-1.16-5.33c0-.257-.034-.458-.103-.603a.895.895 0 0 0-.375-.374 1.22 1.22 0 0 0-.612-.155c-.405 0-.75.164-1.042.487-.29.323-.434.819-.434 1.478 0 .632.148 1.114.44 1.442.295.327.646.49 1.065.49.213 0 .405-.041.568-.13.168-.09.33-.23.494-.43v-2.204zm6.772 2.817a.325.325 0 0 1-.207-.07c-.06-.047-.104-.13-.128-.253-.025-.121-.04-.453-.04-.996v-2.85h-1.688v.192c.326.005.538.056.642.15.103.094.153.276.153.543v2.662c-.272.262-.504.435-.701.529-.198.093-.37.14-.528.14a.88.88 0 0 1-.583-.206c-.163-.136-.242-.426-.242-.86V78.71H96.41v.192c.262-.005.44.019.538.065a.534.534 0 0 1 .227.197c.05.084.074.239.074.463v2.101c0 .44.04.777.119 1.015.079.239.222.435.424.59.202.154.444.229.72.229.247 0 .484-.056.711-.168.223-.113.548-.389.973-.829v.997h.242l1.485-.58-.074-.178c-.143.042-.266.07-.38.07zm5.079-2.4h-3.425c-.005.697.172 1.245.538 1.642.36.398.784.595 1.273.595.326 0 .607-.085.849-.253.242-.169.44-.459.602-.87l.168.103c-.074.467-.296.893-.662 1.282-.365.383-.819.575-1.372.575-.597 0-1.105-.22-1.53-.66-.424-.44-.636-1.029-.636-1.773 0-.805.217-1.432.651-1.88.434-.45.982-.675 1.639-.675.557 0 1.011.174 1.372.52.355.346.533.81.533 1.394zm-1.13-.3c-.02-.299-.055-.514-.114-.636a1.056 1.056 0 0 0-.405-.454 1.072 1.072 0 0 0-.562-.163c-.301 0-.568.112-.805.332-.237.22-.375.529-.414.922h2.3zm4.269.604l-.79-.365c-.34-.159-.572-.304-.68-.444a.742.742 0 0 1-.174-.492c0-.154.08-.294.232-.42.153-.127.36-.192.612-.192.331 0 .607.088.82.27.217.183.39.525.528 1.026h.177v-1.6h-.177a.451.451 0 0 1-.114.159.233.233 0 0 1-.133.037c-.06 0-.183-.023-.37-.075a2.623 2.623 0 0 0-.711-.117c-.444 0-.804.131-1.086.388-.281.262-.42.585-.42.969 0 .3.08.543.243.74.162.196.503.42 1.026.668.523.248.874.45 1.046.613.173.16.262.36.262.594 0 .197-.079.36-.237.501-.158.14-.36.206-.607.206-.355 0-.671-.122-.957-.365-.287-.243-.48-.604-.578-1.08h-.178v1.679h.178c.05-.09.114-.136.193-.136.074 0 .172.019.29.052.39.103.736.154 1.042.154.425 0 .805-.131 1.145-.393.34-.262.514-.608.514-1.034.004-.557-.36-1.001-1.096-1.343z"/>
        <path fill="#fff"
              d="M120.902 48.842c.785-.033 1.52-.066 2.212-.099v.575c-.75 0-1.264.038-1.536.118a.994.994 0 0 0-.612.457c-.282.513-.42 2.473-.42 5.874 0 2.346 0 3.83.005 4.451.005.622.02 1.286.044 1.998.02.57.065.97.144 1.21.079.236.286.415.627.533l.02.004.158.043c.34.085.83.136 1.471.141l-.049.462c-.118 0-.355-.005-.711-.02a40.241 40.241 0 0 0-1.101-.027c-.38-.01-.672-.015-.875-.02-.207-.004-.44-.004-.7-.004-.376 0-.687 0-.94.005a202.769 202.769 0 0 0-2.134.047c-.335.014-.537.019-.606.019l-.025-.462c.919-.047 1.546-.15 1.867-.306.326-.156.548-.4.667-.744.168-.439.276-1.272.326-2.492.044-1.225.069-2.511.069-3.873 0-1.224-.045-2.99-.129-5.29-.024-.636-.094-1.088-.197-1.361a.797.797 0 0 0-.168-.254l-.074-.076a1.44 1.44 0 0 0-.474-.273c-.37-.132-.949-.198-1.734-.207v-.523c.963.047 1.566.08 1.803.099.869.033 1.452.047 1.753.047.094 0 .533-.019 1.319-.052zm-88.39 8.14l-.05.523c.203-.033.475-.047.806-.047.785 0 1.328.066 1.64.198.108.047.187.127.266.207l.119.108c.089.128.158.278.197.467.08.39.124 1.083.124 2.072 0 1.018-.015 1.65-.04 1.89-.025.244-.084.423-.178.536-.202.245-.647.495-1.323.759-.677.259-1.502.39-2.475.39-1.15 0-2.207-.23-3.165-.696l-.109-.062a7.4 7.4 0 0 1-2.336-1.813c-.672-.787-1.17-1.62-1.497-2.502-.325-.88-.493-1.743-.493-2.581 0-1.178.291-2.322.869-3.434a6.832 6.832 0 0 1 2.509-2.685c1.091-.679 2.346-1.018 3.758-1.018 1.492 0 2.672.306 3.536.919l.015.014.045.038c.83.598 1.402 1.239 1.708 1.922.06.136.1.221.124.245.02.023.069.037.148.037.104 0 .153-.061.153-.183 0-.283-.06-.815-.173-1.588-.113-.772-.173-1.277-.173-1.512 0-.311-.059-.462-.177-.462-.07 0-.331.184-.78.551-.11 0-.351-.075-.717-.23a5.798 5.798 0 0 0-.627-.151c-.326-.07-.701-.132-1.131-.189-.43-.056-.88-.084-1.348-.084-1.235 0-2.44.179-3.616.532a9.78 9.78 0 0 0-3.146 1.587 7.631 7.631 0 0 0-2.187 2.6c-.534 1.028-.8 2.168-.8 3.411 0 .952.172 1.894.523 2.827.35.932.904 1.794 1.664 2.586.761.791 1.724 1.422 2.89 1.884 1.17.462 2.538.697 4.119.697.518 0 .972-.01 1.358-.033.385-.019.894-.07 1.536-.146a42.239 42.239 0 0 0 2.01-.296c1.047-.203 1.64-.311 1.778-.316l.128-.283a1.513 1.513 0 0 1-.365-.386c-.074-.118-.129-.33-.158-.64-.035-.307-.05-.825-.05-1.546 0-.984.005-1.653.015-2.011.01-.358.02-.627.03-.806.015-.179.04-.32.084-.428.069-.17.148-.283.237-.335.089-.052.301-.132.632-.235v-.467c-.736.066-1.605.109-2.618.127-1.017.015-2.113.029-3.289.038zm21.8 7.033a3.5 3.5 0 0 0 .627.118v.429a21.57 21.57 0 0 0-2.02-.1c-.513 0-.988.015-1.427.038-.44.024-.785.047-1.042.066l-.578.043v-.405c.39-.066.706-.151.938-.255a.547.547 0 0 0 .351-.537c0-.235-.08-.58-.232-1.027a11.291 11.291 0 0 0-.346-.928l-.81-2.096-.05-.122-.088-.236c-.494-.066-1.304-.099-2.425-.099h-1.013c-1.017-.033-1.91.019-2.681.146l-.939 2.257c-.415.942-.622 1.535-.622 1.77 0 .283.133.524.405.717.094.066.232.127.395.183l.163.057c.282.085.642.155 1.087.217v.405a23.176 23.176 0 0 0-2.544-.17c-.716 0-1.491.033-2.326.1v-.354c.514-.123.904-.311 1.175-.575.203-.17.475-.575.815-1.215.336-.636.677-1.333 1.023-2.087.345-.754.597-1.338.75-1.762l2.05-4.673c.257-.56.519-1.15.785-1.762.267-.612.524-1.23.76-1.846.238-.617.416-1.117.524-1.489 0-.103.025-.183.08-.23l.424-.024c.262.904.553 1.771.87 2.6l2.681 6.868a180.32 180.32 0 0 0 1.566 3.802c.355.815.661 1.399.928 1.752.124.17.326.292.593.386l.153.038zm-5.013-5.827c-.296-.829-.489-1.324-.573-1.474l-.918-2.247a79.533 79.533 0 0 0-.583-1.329c-.055-.127-.104-.235-.153-.344l-.153-.33a11.027 11.027 0 0 0-.312-.64c-.163.34-.3.655-.414.933-.114.282-.238.565-.366.862L44.38 57.17c-.198.504-.326.82-.395.951.178.028.38.042.573.061l.281.029c.43.033.884.056 1.378.056l1.176-.023a37.025 37.025 0 0 0 1.906-.057zm46.988 4.588c-.405.415-.988.716-1.749.905-.76.188-1.812.282-3.15.282-.539 0-.983-.014-1.344-.042a13.456 13.456 0 0 1-.825-.085 11.915 11.915 0 0 1-.474-.09l-.227-.046a7.633 7.633 0 0 1-.454-.114c-.213-1.144-.292-2.779-.232-4.894l.049-1.733c.553-.08 1.324-.123 2.301-.123 1.526 0 2.588.042 3.186.123.494.066.844.212 1.072.419l.079.08c.02.019.044.038.059.061.207.292.326.815.35 1.56h.45c.01-.863.015-1.626.02-2.295.005-.669.005-1.422.005-2.27l-.37-.024c-.144.48-.277.834-.396 1.07-.118.23-.247.376-.375.433-.134.056-.39.104-.776.146-.671.066-1.916.099-3.723.099-.484 0-.865 0-1.17-.005l-.238-.005c-.222-.004-.39-.009-.474-.014l-.015-1.097c-.01-.782-.015-1.47-.015-2.073 0-.919.08-2.054.232-3.406a33.71 33.71 0 0 1 3.927-.245c1.042 0 1.93.08 2.682.245.34.076.597.203.78.368l.094.094c.158.179.242.4.242.673 0 .043-.02.194-.05.453a5.35 5.35 0 0 0-.05.461c0 .123.11.184.322.184.173 0 .311-.349.42-1.05.108-.698.187-1.4.232-2.097-1.857.066-3.25.1-4.169.1h-8.198c-.02.08-.025.188-.025.315.573.103.959.226 1.166.367.04.029.079.066.114.109l.064.084c.108.156.187.368.237.65.074.424.123 1.235.148 2.44l.089 3.882c.01.255 0 .881-.03 1.89-.03 1.007-.069 1.916-.113 2.727-.045.81-.094 1.366-.149 1.677-.044.31-.083.523-.128.64a.684.684 0 0 1-.212.297c-.1.08-.287.156-.558.226-.277.07-.544.132-.81.189l-.025.414c.484-.023 1.25-.052 2.292-.085a147.388 147.388 0 0 1 4.603-.084c-.084 0 .172.009.78.023.607.014 1.17.024 1.699.024.879 0 1.56.004 2.044.019.484.014.87.028 1.151.056a9.203 9.203 0 0 0 .627-1.592c.163-.556.312-1.258.45-2.106h-.395c-.292.777-.642 1.376-1.047 1.79zm19.098 2.332c0 .075-.04.127-.114.165-.074.038-.261.056-.548.056-.83 0-1.625-.174-2.39-.518a9.17 9.17 0 0 1-2.188-1.399 15.283 15.283 0 0 1-1.842-1.842 52.54 52.54 0 0 1-1.907-2.454l-1.175-1.597-.099-.132-.197-.268c-1.126 0-2.06-.052-2.8-.16l-.025 2.93c0 .617.02 1.31.059 2.072.04.763.123 1.305.262 1.62.069.194.187.335.35.415.06.029.149.062.257.1l.217.07c.178.052.386.108.643.174.187.043.281.109.281.193 0 .18-.06.269-.178.269-.138 0-.494-.043-1.076-.123-.731-.066-1.18-.099-1.344-.099-.83 0-1.679.057-2.558.17-.06 0-.133.01-.217.024-.173 0-.257-.076-.257-.222 0-.08.03-.141.094-.184.064-.042.207-.09.43-.146.385-.099.661-.245.83-.442.172-.198.295-.59.37-1.173.078-.58.118-1.512.128-2.798v-5.39c.015-1.318.01-2.284-.02-2.901s-.099-1.07-.212-1.362a1.457 1.457 0 0 0-.148-.287l-.065-.075a.797.797 0 0 0-.3-.217c-.233-.099-.594-.174-1.087-.23l.049-.401c.45.014 1.027.023 1.729.023.202 0 .948-.052 2.232-.15 1.284-.104 2.094-.151 2.435-.151.894 0 1.704.118 2.42.353.716.236 1.313.551 1.797.938.48.39.845.833 1.092 1.337.247.5.37 1.013.37 1.545 0 .547-.128 1.074-.385 1.588-.257.513-.642.98-1.165 1.394-.519.42-1.19.773-2.01 1.07l.577.829a119.748 119.748 0 0 0 2 2.798c.529.711 1.102 1.399 1.71 2.054.607.66 1.23 1.191 1.861 1.606.168.108.336.203.5.287-.01-.004-.016-.01-.026-.014l.149.07c.42.194.83.317 1.234.35.178.014.257.094.257.235zm-8.41-9.125c.478-.193.898-.522 1.244-.984.35-.462.523-1.084.523-1.866 0-.55-.153-1.13-.454-1.733-.282-.565-.711-1.05-1.28-1.465l-.078-.061c-.015-.01-.025-.024-.04-.033-.632-.434-1.397-.65-2.301-.65-.376 0-.8.047-1.274.141-.474.094-.751.24-.825.443-.198.395-.296 2.558-.296 6.477.143.033.316.047.479.075l.237.038c.41.052.854.085 1.358.085.41 0 .84-.028 1.299-.085.459-.061.928-.188 1.407-.382zm-88.983 5.441c.074.014.153.029.242.038v.264c-.43-.043-.84-.061-1.235-.061-.31 0-.602.004-.874.023-.267.014-.479.028-.637.042-.158.015-.272.024-.35.029v-.245a2.64 2.64 0 0 0 .572-.156c.144-.066.218-.174.218-.33 0-.145-.05-.353-.139-.626a6.429 6.429 0 0 0-.212-.565l-.489-1.263-.05-.127L15 58.34c-.301-.038-.795-.057-1.482-.057h-.622a8.397 8.397 0 0 0-1.64.09l-.572 1.38c-.252.575-.38.937-.38 1.083 0 .175.083.32.246.439.09.06.227.117.415.164l.06.015c.152.037.32.07.533.098v.245A13.856 13.856 0 0 0 10 61.693c-.44 0-.914.019-1.422.061v-.217c.31-.075.553-.193.72-.348.124-.104.292-.354.5-.74.207-.39.414-.815.627-1.276.212-.462.365-.82.46-1.08l1.254-2.854c.158-.344.316-.702.484-1.079.163-.376.32-.753.464-1.13.148-.377.252-.678.32-.91 0-.065.016-.112.045-.14l.257-.015c.163.551.34 1.084.533 1.588l1.64 4.202c.42 1.05.741 1.823.958 2.322.218.5.405.857.568 1.07.104.14.297.24.578.296l.005-.019zm-3.205-3.594c-.183-.509-.302-.81-.35-.904l-.564-1.371c-.064-.151-.183-.42-.356-.815-.01-.024-.014-.033-.024-.052l-.139-.306a10.482 10.482 0 0 0-.217-.448c-.099.208-.183.4-.252.57-.069.17-.143.349-.222.528l-.884 2.172a7.503 7.503 0 0 1-.242.579c.123.019.262.028.395.042l.262.029c.222.014.46.023.711.023l.716-.014c.435-.005.82-.014 1.166-.033zm53.151 5.13c-.41.212-1.022.41-1.837.598-.815.189-1.828.283-3.038.283-1.1 0-1.817-.024-2.153-.076-.03-.004-.044-.009-.074-.014l-.252-.056a1.216 1.216 0 0 1-.395-.16c-.118-.113-.202-.391-.257-.83-.05-.438-.074-1.116-.074-2.04 0-1.007.01-2.025.025-3.047.015-1.027.044-2.167.074-3.43.025-1.12.054-2.039.089-2.755.034-.716.089-1.164.168-1.343a.953.953 0 0 1 .627-.541c.291-.085.73-.151 1.319-.203l.024-.476c-.454.033-1.392.047-2.825.047-.222-.009-.498-.014-.83-.023-.33-.01-1.036-.014-2.108-.024v.429c.484.019.84.07 1.062.165a.707.707 0 0 1 .286.221l.054.08c.06.085.11.184.149.302.103.306.163.772.177 1.394.015.627.015 1.545 0 2.756l-.024 5.37a48.3 48.3 0 0 1-.05 2.426c-.034.56-.108.98-.222 1.263a1.094 1.094 0 0 1-.514.593c-.227.113-.592.222-1.091.316l.025.377h8.978c.297 0 .563 0 .786.004.227.005.469.01.735.02.435 0 1.018.042 1.754.122.237-.547.45-1.15.627-1.819.178-.669.296-1.168.346-1.502l-.42-.048c-.222.764-.598 1.305-1.14 1.62zm13.937 0c-.41.212-1.022.41-1.837.598-.815.189-1.827.283-3.037.283-1.102 0-1.818-.024-2.154-.076-.03-.004-.044-.009-.074-.014l-.252-.056a1.216 1.216 0 0 1-.395-.16c-.118-.113-.202-.391-.256-.83-.05-.438-.075-1.116-.075-2.04a210.632 210.632 0 0 1 .104-6.476c.025-1.121.055-2.04.09-2.756.034-.716.088-1.164.167-1.343a.953.953 0 0 1 .627-.541c.292-.085.731-.151 1.319-.203l.025-.476c-.45.033-1.393.047-2.825.047-.223-.009-.5-.014-.83-.023-.331-.01-1.037-.014-2.109-.024v.429c.484.019.84.07 1.062.165a.707.707 0 0 1 .286.221l.05.08c.059.085.108.184.148.302.104.306.163.772.178 1.394.014.627.014 1.545 0 2.756l-.025 5.37a48.3 48.3 0 0 1-.05 2.426c-.034.56-.108.98-.222 1.263a1.094 1.094 0 0 1-.513.593c-.228.113-.593.222-1.092.316l.025.377h8.979c.296 0 .563 0 .785.004.227.005.47.01.736.02.434 0 1.017.042 1.753.122.237-.547.45-1.15.627-1.819.178-.669.297-1.168.346-1.502l-.42-.048c-.217.764-.592 1.305-1.14 1.62zM7.161 60.746c-.252.127-.622.25-1.12.367-.5.113-1.117.17-1.858.17-.622 0-1.037-.014-1.26-.038l-.152-.028a.883.883 0 0 1-.346-.122c-.074-.071-.124-.236-.158-.51-.03-.268-.05-.682-.05-1.243 0-.617.005-1.239.015-1.865.01-.627.025-1.324.045-2.097.015-.687.034-1.248.054-1.686.02-.438.054-.711.104-.82a.586.586 0 0 1 .385-.33c.178-.051.445-.094.805-.122l.015-.292a32.49 32.49 0 0 1-1.729.028 44.49 44.49 0 0 0-.508-.014c-.203-.004-.633-.01-1.29-.014v.26c.297.009.514.042.648.098.034.014.064.047.093.07l.114.123a.8.8 0 0 1 .089.17c.064.184.099.47.109.852.01.382.01.943 0 1.687l-.015 3.283c0 .646-.01 1.14-.03 1.484-.02.344-.064.603-.138.773a.66.66 0 0 1-.316.362c-.139.071-.36.137-.667.194l.015.23h5.492c.182 0 .34 0 .479.005.138.005.286.005.45.01.266 0 .622.023 1.071.075.148-.335.272-.702.385-1.112.109-.41.178-.711.213-.918l-.257-.029c-.124.471-.356.806-.687.999zM140 64.133v.429a21.57 21.57 0 0 0-2.02-.1c-.514 0-.988.015-1.427.038-.44.024-.786.047-1.042.066l-.578.043v-.405c.39-.066.706-.151.938-.255a.547.547 0 0 0 .35-.537c0-.235-.078-.58-.231-1.027a11.291 11.291 0 0 0-.346-.928l-.81-2.096-.05-.122-.088-.236c-.494-.066-1.304-.099-2.425-.099h-1.013c-1.017-.033-1.911.019-2.681.146l-.939 2.257c-.415.942-.622 1.535-.622 1.77 0 .283.133.524.405.717.094.066.232.127.395.183l.163.057c.281.085.642.155 1.087.217v.405a23.176 23.176 0 0 0-2.544-.17c-.716 0-1.491.033-2.326.1v-.354c.513-.123.904-.311 1.175-.575.208-.17.474-.575.815-1.215.336-.636.677-1.333 1.023-2.087.345-.754.597-1.338.75-1.762l2.05-4.673c.257-.56.518-1.15.785-1.762.267-.612.524-1.23.76-1.846.238-.617.416-1.117.524-1.489 0-.103.025-.183.08-.23l.424-.024c.262.904.553 1.771.87 2.6l2.68 6.868c.692 1.715 1.21 2.982 1.567 3.802.355.815.661 1.399.928 1.752.123.17.326.292.593.386l.143.043c.197.047.4.09.637.113zm-5.635-5.945c-.296-.829-.49-1.324-.573-1.474l-.919-2.247a79.538 79.538 0 0 0-.736-1.673l-.153-.33a11.027 11.027 0 0 0-.31-.64c-.164.34-.302.655-.416.933-.113.282-.237.565-.365.862l-1.447 3.552c-.198.504-.326.82-.395.951.177.028.38.042.573.061l.281.029c.43.033.884.056 1.378.056l1.175-.023a37.2 37.2 0 0 0 1.907-.057z"/>
    </g>
</svg>
