<svg xmlns="http://www.w3.org/2000/svg" xmlns:xlink="http://www.w3.org/1999/xlink" width="460" height="50"
     class="Header_logo___mrgN">
        <g fill="#fff">
            <path d="M60.751 34.875c-6.25 0-10.75-4-10.75-10.25 0-6.375 4.5-9.375 10.375-9.375a27.328 27.328 0 0 1 4.5.375l-.375 2.75a12.9 12.9 0 0 0-3.75-.5c-4.625 0-7 2.125-7 6.625 0 4.625 3 7.875 7.75 7.875a7.08 7.08 0 0 0 3.625-.875l.125.125v.5c0 2.375-2.75 2.75-4.5 2.75ZM77.626 35c-6.125 0-9.25-4.875-9.25-10.5 0-5.5 3.875-9.375 9.5-9.375s9.375 3.375 9.375 9.125C87.126 30 83.626 35 77.626 35Zm.125-17.625c-4.25 0-5.75 3.75-5.75 7.25 0 3.625 1.375 8.125 5.75 8.125 4.25 0 5.625-4.75 5.625-8.125.125-3.5-1.5-7.25-5.625-7.25ZM106.126 34.875 98.001 24a38.564 38.564 0 0 1-2.125-3.625h-.125v14.5h-2.75V18.5c0-.625-.25-1.125-.875-1.125a1.127 1.127 0 0 0-.625.125l-.125-.125a2.213 2.213 0 0 1 2.5-2.125 4.375 4.375 0 0 1 3.625 2.125l6.125 8.125c1 1.375 2 3.25 2.625 4.25h.125V15.125h2.75v19.75ZM124.501 34.875c-6.375 0-10.75-3.75-10.75-10.25s4.5-9.5 10.5-9.5a27.721 27.721 0 0 1 4.625.375l-.375 2.625a15.717 15.717 0 0 0-4.125-.625c-4.625 0-6.875 2.375-6.875 7 0 4.125 2.125 8.125 6.75 8.125a10.941 10.941 0 0 0 2-.25V27h3.5v7.375a34.028 34.028 0 0 1-5.25.5ZM148.501 35c-3.5 0-5.5-4.75-7.125-9.25a5.38 5.38 0 0 1-2 0V35h-3.625V15.25c1.75-.125 3.625-.25 5.5-.25 3.375 0 7.25.875 7.375 5 0 2.625-1.875 4.375-4.125 5.125 1.75 3.25 4 7.75 5.75 7.75a1.127 1.127 0 0 0 .625-.125l.125.125a2.213 2.213 0 0 1-2.5 2.125Zm-7.625-17.875a6.086 6.086 0 0 0-1.5.125v6.375a6.6 6.6 0 0 0 1.625.125c2.125 0 4-1 4-3.375s-2-3.25-4.125-3.25ZM159.126 17.625V23.5h2.5a35.726 35.726 0 0 0 4.625-.25l.125.125c-.125 1.75-1 2.5-2.5 2.5h-4.75v6.5h3.5a35.726 35.726 0 0 0 4.625-.25l.125.125c-.125 1.75-1 2.625-2.5 2.625h-9.375V15h10.875v2.5h-7.25ZM175.876 35c-1.875 0-4.5-.5-4.5-2.75v-.5l.125-.125a7.759 7.759 0 0 0 3.875 1c2 0 3.75-1 3.75-2.75 0-1.625-1.5-2.5-3.5-3.5-2.75-1.375-4.5-3-4.5-5.625 0-3.125 2.75-5.625 7-5.625a26.625 26.625 0 0 1 3.375.25l-.25 2.625a11.684 11.684 0 0 0-3.125-.5c-2.625 0-3.5 1.25-3.5 2.5 0 1.625 1.875 2.75 3.625 3.625 2.625 1.375 4.625 2.875 4.625 5.75-.125 2.5-1.875 5.625-7 5.625ZM190.751 35c-1.875 0-4.5-.5-4.5-2.75v-.5l.125-.125a7.759 7.759 0 0 0 3.875 1c2 0 3.75-1 3.75-2.75 0-1.625-1.5-2.5-3.5-3.5-2.75-1.375-4.5-3-4.5-5.625 0-3.125 2.75-5.625 7-5.625a26.625 26.625 0 0 1 3.375.25L196.001 18a11.684 11.684 0 0 0-3.125-.5c-2.625 0-3.5 1.25-3.5 2.5 0 1.625 1.875 2.75 3.625 3.625 2.625 1.375 4.625 2.875 4.625 5.75 0 2.5-1.75 5.625-6.875 5.625ZM223.251 35v-9.5h-9.25V35h-3.625V15h3.625v7.875h9.25V15h3.625v20ZM241.001 35c-6.125 0-9.25-4.875-9.25-10.5 0-5.5 3.875-9.375 9.5-9.375s9.375 3.375 9.375 9.125C250.501 30 247.001 35 241.001 35Zm.125-17.625c-4.25 0-5.75 3.75-5.75 7.25 0 3.625 1.375 8.125 5.75 8.125 4.25 0 5.625-4.75 5.625-8.125.125-3.5-1.5-7.25-5.625-7.25ZM265.501 17.75h-3.875V35h-3.625V17.75h-5.75v-2.5h10.875a35.725 35.725 0 0 0 4.625-.25l.125.125c0 1.875-.875 2.625-2.375 2.625ZM275.251 17.625V23.5h2.5a35.726 35.726 0 0 0 4.625-.25l.125.125c-.125 1.75-1 2.5-2.5 2.5h-4.75v6.5h3.5a35.726 35.726 0 0 0 4.625-.25l.125.125c-.125 1.75-1 2.625-2.5 2.625h-9.375V15h10.875v2.5h-7.25ZM297.626 35h-8.75V15h3.625v17.375h2.875a35.726 35.726 0 0 0 4.625-.25l.125.125c-.125 1.875-1 2.75-2.5 2.75ZM316.251 35v-8.375L310.001 15h4.25l4.125 8.625C320.251 19 321.626 15 324.251 15a1.71 1.71 0 0 1 1.875 1.875 2.44 2.44 0 0 1-.125.875l-.25.125c-.125-.125-.25-.125-.5-.125-1.875 0-3.25 3.5-5.5 8.75V35ZM333.876 17.625V23.5h2.5a35.726 35.726 0 0 0 4.625-.25l.125.125c-.125 1.75-1 2.5-2.5 2.5h-4.75V32.5h3.5a35.726 35.726 0 0 0 4.625-.25l.125.125c-.125 1.75-1 2.625-2.5 2.625h-9.375V15h10.875v2.5h-7.25ZM360.501 35c-3.5 0-5.75-4.375-7.375-8.875a5.38 5.38 0 0 1-2 0v8.75h-3.625V15.25c1.875-.125 3.75-.25 5.625-.25 3.375 0 7.25 1.375 7.375 5.375 0 2.625-1.875 4.375-4.125 5.125 1.75 3.25 4.25 7.375 6 7.375a1.127 1.127 0 0 0 .625-.125l.125.125A2.4 2.4 0 0 1 360.501 35Zm-7.875-17.875a6.086 6.086 0 0 0-1.5.125V24c.5 0 1.125.125 1.625.125 2.125 0 4-1 4-3.25a3.848 3.848 0 0 0-4.125-3.75ZM370.876 17.625V23.5h2.5a35.726 35.726 0 0 0 4.625-.25l.125.125c-.125 1.75-1 2.5-2.5 2.5h-4.75v6.5h3.5a35.726 35.726 0 0 0 4.625-.25l.125.125c-.125 1.75-1 2.625-2.5 2.625h-9.375V15h10.875v2.5h-7.25ZM396.501 23.625 392.376 35h-3.875l-6.625-20h3.875l3.875 11.875c.5 1.375.875 3.375 1.25 4.875 1-2.625 3.75-11.125 3.75-13.625 0-.875-.5-1.375-1-1.375l-.125-.125A1.794 1.794 0 0 1 395.376 15c1.5 0 2.375 1.125 2.375 2.75a23.448 23.448 0 0 1-1.25 5.875ZM412.626 35l-2.125-6.625h-6.5L401.876 35h-2.875l6.625-20h4l6.875 20Zm-4.375-13.25c-.375-1.25-.75-3.125-1-3.75h-.125a29.7 29.7 0 0 1-1 3.875l-1.5 4.25h5ZM434.626 35l-8.125-10.875A34.833 34.833 0 0 1 424.376 21h-.125v14h-2.75V18.375c0-.625-.25-1.125-.875-1.125a1.127 1.127 0 0 0-.625.125l-.125-.125a2.305 2.305 0 0 1 2.5-2.25 4.375 4.375 0 0 1 3.625 2.125l6.125 8.25a42.729 42.729 0 0 1 2.625 3.875h.125v-14h2.75V35Z"></path>
        </g>
</svg>
