<svg width="191" height="49" viewBox="0 0 191 49" fill="none" xmlns="http://www.w3.org/2000/svg">
<path d="M42.002 7.34016C37.5274 2.82355 31.5659 0.29944 25.2108 0.231491C25.1548 0.229492 25.0989 0.229492 25.0429 0.229492H24.949C24.8391 0.229492 24.7271 0.229492 24.6092 0.233489C18.2721 0.321423 12.3266 2.85352 7.86996 7.36614C3.40735 11.8887 0.949219 17.8763 0.949219 24.2295C0.949219 30.5827 3.43533 36.6442 7.9519 41.1728C10.1482 43.3751 12.7043 45.1078 15.5541 46.3209C18.5039 47.576 21.6375 48.2195 24.871 48.2295H25.0469C31.438 48.2035 37.4415 45.6974 41.954 41.1688C46.4666 36.6382 48.9527 30.6227 48.9527 24.2295C48.9527 17.8363 46.4846 11.8628 42.004 7.34016H42.002ZM47.308 23.4321C43.9405 23.3002 40.663 22.4169 37.7073 20.848C37.3396 20.6522 36.9758 20.4463 36.6181 20.2305C36.5661 19.7888 36.5042 19.3492 36.4362 18.9135C35.8707 15.3601 34.7335 12.0147 33.0508 8.94496C32.875 8.6252 32.6931 8.30943 32.5072 7.99767C32.3833 7.78982 32.2554 7.58398 32.1255 7.38013C31.6719 6.66666 31.1882 5.97718 30.6786 5.31368C30.5327 5.12382 30.3848 4.93796 30.235 4.7521C30.0091 4.47431 29.7793 4.20451 29.5455 3.93671C29.3896 3.75885 29.2317 3.58498 29.0698 3.41111C28.83 3.1533 28.5842 2.89949 28.3364 2.65168C28.1206 2.43784 27.9007 2.22799 27.6789 2.02415C38.4587 3.34715 46.9183 12.4184 47.31 23.4321H47.308ZM22.6187 3.89274C22.7546 3.75685 22.8925 3.62295 23.0324 3.49105C23.1364 3.39112 23.2423 3.29319 23.3482 3.19527C23.604 2.96144 23.8658 2.73162 24.1316 2.50978C24.1336 2.50978 24.1356 2.50578 24.1376 2.50379C24.1376 2.50778 24.1376 2.50978 24.1376 2.51378C24.1076 3.00541 24.0597 3.49504 23.9977 3.97868C23.2862 9.52052 20.5523 14.5348 16.2936 18.1341C15.9039 18.4638 15.5022 18.7816 15.0865 19.0854C15.1684 18.5777 15.2623 18.0761 15.3703 17.5785C15.4962 16.9889 15.6401 16.4074 15.7979 15.8318C15.8619 15.6 15.9298 15.3681 15.9998 15.1403C16.0338 15.0264 16.0697 14.9105 16.1057 14.7966C16.1776 14.5687 16.2536 14.3409 16.3295 14.1171C16.4854 13.6654 16.6493 13.2217 16.8252 12.7821C16.9131 12.5622 17.003 12.3444 17.0949 12.1286C17.1409 12.0206 17.1889 11.9127 17.2368 11.8048C17.3787 11.4831 17.5286 11.1653 17.6825 10.8495C17.8364 10.5358 17.9963 10.224 18.1601 9.91823C18.2701 9.71438 18.382 9.51053 18.4979 9.31068C18.7837 8.80906 19.0854 8.31743 19.4012 7.83978C19.591 7.552 19.7849 7.27021 19.9847 6.99242C20.1186 6.80656 20.2525 6.6247 20.3904 6.44283C20.5283 6.26097 20.6682 6.0831 20.8101 5.90524C20.952 5.72937 21.0959 5.5535 21.2418 5.38163C21.4616 5.12382 21.6855 4.87001 21.9153 4.6202C22.0672 4.45432 22.223 4.29045 22.3809 4.13057C22.4589 4.05063 22.5388 3.97069 22.6187 3.89075V3.89274ZM22.223 2.02614C20.1067 3.98068 18.2601 6.36089 16.8132 9.0149C16.6913 9.23674 16.5733 9.46257 16.4574 9.6884C16.3415 9.91423 16.2296 10.1401 16.1197 10.3699C15.736 11.1693 15.3862 11.9867 15.0725 12.8181C14.8926 13.2937 14.7267 13.7753 14.5709 14.261C14.5329 14.3829 14.4929 14.5048 14.457 14.6267C14.345 14.9924 14.2391 15.3621 14.1412 15.7339C14.1072 15.8578 14.0752 15.9817 14.0453 16.1056C13.9813 16.3554 13.9214 16.6052 13.8654 16.857C13.7075 17.5545 13.5716 18.262 13.4597 18.9774C13.3918 19.4111 13.3318 19.8488 13.2798 20.2884C12.9221 20.5023 12.5604 20.7061 12.1927 20.9C11.9628 21.0199 11.733 21.1358 11.4992 21.2477C11.2674 21.3596 11.0356 21.4656 10.7997 21.5695C10.5659 21.6734 10.3281 21.7713 10.0903 21.8673C9.73254 22.0092 9.37282 22.1431 9.00909 22.265C8.40355 22.4708 7.78802 22.6507 7.16649 22.8026C6.66887 22.9245 6.16725 23.0304 5.66164 23.1183C5.40783 23.1623 5.15402 23.2023 4.90022 23.2382C4.64641 23.2742 4.3906 23.3042 4.1348 23.3302C3.87899 23.3561 3.62119 23.3781 3.36338 23.3961C3.10758 23.4141 2.85177 23.4261 2.59597 23.4361C2.98367 12.4363 11.4472 3.35115 22.223 2.02614ZM2.59397 25.0908C2.97968 25.1048 3.36538 25.1268 3.74909 25.1588C4.00689 25.1808 4.2627 25.2068 4.51851 25.2387C4.64641 25.2547 4.77431 25.2707 4.90221 25.2887C5.15802 25.3247 5.41183 25.3646 5.66563 25.4086C5.91944 25.4526 6.17125 25.5005 6.42306 25.5545C6.80077 25.6344 7.17449 25.7224 7.5462 25.8203C9.16297 26.248 10.7278 26.8575 12.2147 27.6389C12.5844 27.8328 12.9481 28.0386 13.3078 28.2545C13.3638 28.6981 13.4277 29.1378 13.4997 29.5735C13.5077 29.6214 13.5157 29.6694 13.5237 29.7154C13.5676 29.9732 13.6156 30.231 13.6656 30.4868C13.7155 30.7426 13.7695 30.9964 13.8254 31.2502C13.9373 31.7578 14.0613 32.2595 14.1971 32.7571C14.2651 33.0049 14.337 33.2527 14.411 33.4985C14.4849 33.7444 14.5609 33.9902 14.6408 34.234C14.6808 34.3559 14.7208 34.4778 14.7627 34.5977C14.8447 34.8395 14.9306 35.0814 15.0205 35.3212C15.1544 35.6809 15.2943 36.0366 15.4402 36.3904C15.8799 37.4516 16.3775 38.4828 16.9351 39.486C17.055 39.7019 17.1769 39.9157 17.3028 40.1276C17.5526 40.5513 17.8144 40.9669 18.0842 41.3746C18.2201 41.5785 18.356 41.7803 18.4959 41.9802C18.5658 42.0801 18.6358 42.178 18.7077 42.278C18.9216 42.5737 19.1394 42.8635 19.3632 43.1493C20.3085 44.3544 21.3417 45.4656 22.4469 46.4628C11.5711 45.2417 3.01964 36.1765 2.59597 25.0908H2.59397ZM25.8603 2.58573C26.242 2.90748 26.6117 3.24323 26.9734 3.59097C27.7928 4.38038 28.5602 5.22974 29.2697 6.13506C29.4096 6.31293 29.5455 6.49279 29.6814 6.67466C29.8832 6.94645 30.0811 7.22425 30.2729 7.50603C30.4008 7.69389 30.5267 7.88375 30.6506 8.07561C30.7126 8.17154 30.7745 8.26746 30.8345 8.36539C30.9564 8.55925 31.0743 8.7551 31.1922 8.95095C31.542 9.54251 31.8717 10.1521 32.1795 10.7756C32.3853 11.1913 32.5792 11.613 32.765 12.0426C32.811 12.1506 32.857 12.2565 32.9029 12.3644C33.5844 13.9912 34.124 15.7059 34.5117 17.4865C34.6216 17.9882 34.7175 18.4958 34.8015 19.0094C34.8934 19.571 34.9734 20.1386 35.0353 20.7121C35.0533 20.87 35.0693 21.0299 35.0833 21.1898C35.0953 21.3157 35.1073 21.4396 35.1172 21.5655C35.1412 21.8513 35.1612 22.1371 35.1752 22.4248C35.1752 22.4328 35.1752 22.4428 35.1752 22.4508C35.1892 22.7286 35.2012 23.0084 35.2092 23.2862C35.2172 23.574 35.2212 23.8598 35.2212 24.1476C35.2212 24.7951 35.2012 25.4466 35.1612 26.0941C35.7068 25.7603 36.2644 25.4486 36.8339 25.1588C36.8439 24.821 36.8499 24.4853 36.8499 24.1496C36.8499 23.8937 36.8459 23.6379 36.8399 23.3841C36.8299 22.9924 36.814 22.6007 36.792 22.211C37.1357 22.3969 37.4854 22.5747 37.8372 22.7426C38.2089 22.9205 38.5826 23.0883 38.9623 23.2462C39.382 23.4221 39.8077 23.584 40.2354 23.7339C40.8069 23.9337 41.3865 24.1136 41.972 24.2695C41.2366 24.4653 40.5131 24.6971 39.7997 24.9629C39.1302 25.2128 38.4707 25.4945 37.8252 25.8023C37.4715 25.9722 37.1217 26.1501 36.776 26.3379C36.2744 26.6097 35.7827 26.8975 35.3011 27.2053C35.2192 27.2572 35.1392 27.3092 35.0593 27.3631C34.6796 27.611 34.3079 27.8708 33.9441 28.1386C31.2122 30.155 28.918 32.7451 27.2532 35.7069C26.5777 36.908 26.0082 38.165 25.5525 39.4621C25.3447 40.0516 25.1608 40.6492 24.9989 41.2527C24.7671 40.3834 24.4853 39.526 24.1576 38.6886C23.7359 37.6115 23.2343 36.5642 22.6587 35.557C22.1611 34.6876 21.6095 33.8503 21.008 33.0529C20.8581 32.853 20.7042 32.6552 20.5483 32.4613C20.3924 32.2675 20.2326 32.0736 20.0707 31.8838C19.9088 31.6939 19.7429 31.506 19.5751 31.3222C19.4072 31.1383 19.2353 30.9545 19.0634 30.7766C18.6298 30.3289 18.1781 29.8952 17.7105 29.4816C17.5226 29.3157 17.3348 29.1538 17.1409 28.9939C16.7532 28.6722 16.3555 28.3624 15.9478 28.0646C16.0517 28.872 16.1876 29.6674 16.3535 30.4508C16.4794 30.5587 16.6053 30.6667 16.7272 30.7746C16.9051 30.9325 17.079 31.0923 17.2508 31.2562C17.6805 31.6639 18.0922 32.0876 18.4859 32.5253C18.6438 32.7011 18.7977 32.877 18.9495 33.0569C19.2533 33.4166 19.5431 33.7843 19.8229 34.16C19.9628 34.3479 20.0987 34.5378 20.2326 34.7316C21.2978 36.2705 22.1651 37.9372 22.8126 39.6979C22.9345 40.0276 23.0484 40.3614 23.1523 40.6971C23.2583 41.0329 23.3562 41.3726 23.4461 41.7144C23.5061 41.9422 23.562 42.172 23.616 42.4019C23.7579 43.0194 23.8718 43.6469 23.9617 44.2805C24.0317 44.7741 24.0856 45.2737 24.1216 45.7753C24.1016 45.7593 24.0816 45.7414 24.0616 45.7254C23.6979 45.4196 23.3462 45.1018 23.0005 44.7721C22.6927 44.4783 22.3909 44.1765 22.0971 43.8648C21.9413 43.7009 21.7894 43.533 21.6375 43.3631C21.4117 43.1093 21.1898 42.8495 20.972 42.5857C20.7562 42.3219 20.5443 42.0521 20.3365 41.7783C20.0607 41.4126 19.7949 41.0389 19.5371 40.6572C19.4731 40.5612 19.4092 40.4653 19.3452 40.3694C19.2193 40.1755 19.0954 39.9817 18.9735 39.7838C18.9136 39.6859 18.8516 39.586 18.7937 39.488C18.6737 39.2902 18.5578 39.0883 18.4419 38.8865C18.0402 38.177 17.6685 37.4456 17.3288 36.6941C17.2308 36.4783 17.1369 36.2625 17.045 36.0446C16.7672 35.3911 16.5134 34.7216 16.2836 34.0401C16.1677 33.6984 16.0597 33.3546 15.9558 33.0069C15.8859 32.7751 15.8199 32.5433 15.758 32.3074C15.726 32.1895 15.696 32.0736 15.664 31.9557C15.6041 31.7199 15.5441 31.4841 15.4902 31.2462C15.4722 31.1663 15.4542 31.0844 15.4362 31.0044C15.3243 30.5008 15.2224 29.9932 15.1344 29.4796C15.0285 28.858 14.9386 28.2285 14.8686 27.593C14.8586 27.495 14.8487 27.3971 14.8387 27.2992C14.7967 26.8815 14.7627 26.4598 14.7387 26.0381C14.7008 25.4086 14.6808 24.7791 14.6808 24.1496C14.6808 23.602 14.6948 23.0544 14.7227 22.5108C14.5869 22.5927 14.449 22.6747 14.3091 22.7546V22.7526C14.2731 22.7766 14.2371 22.7966 14.1991 22.8166L14.1572 22.8405C13.7955 23.0464 13.4297 23.2442 13.058 23.4301C13.052 23.6699 13.05 23.9097 13.05 24.1496C13.05 24.4693 13.056 24.7911 13.064 25.1128C13.072 25.3966 13.084 25.6824 13.1 25.9662C13.106 26.0741 13.112 26.18 13.12 26.2879C12.7742 26.1021 12.4245 25.9262 12.0728 25.7583C11.725 25.5945 11.3733 25.4386 11.0196 25.2907C10.8457 25.2188 10.6718 25.1468 10.496 25.0789C10.2741 24.9929 10.0503 24.911 9.82647 24.831C9.64061 24.7651 9.45475 24.7011 9.2669 24.6392C8.85321 24.5033 8.43553 24.3794 8.01585 24.2675C8.29563 24.1935 8.57342 24.1136 8.84921 24.0276C9.125 23.9437 9.40079 23.8538 9.67459 23.7578C9.94838 23.6639 10.2202 23.564 10.488 23.4581C11.0196 23.2522 11.5472 23.0344 12.0608 22.7826C12.7163 22.4608 13.9613 21.7813 14.379 21.5235C14.4869 21.4576 14.5928 21.3916 14.6988 21.3237C14.7367 21.2997 14.7727 21.2757 14.8107 21.2517C14.8786 21.2078 14.9466 21.1638 15.0145 21.1198C15.3183 20.918 15.6181 20.7101 15.9138 20.4963C15.9238 20.4883 15.9338 20.4823 15.9438 20.4743C16.1457 20.3264 16.3475 20.1745 16.5454 20.0206C17.5346 19.2492 18.4619 18.4019 19.3193 17.4885C19.4911 17.3067 19.659 17.1208 19.8249 16.933C19.9907 16.7451 20.1526 16.5552 20.3125 16.3614C20.4724 16.1675 20.6283 15.9737 20.7821 15.7738C20.936 15.576 21.0859 15.3761 21.2338 15.1723C21.3077 15.0704 21.3797 14.9684 21.4536 14.8665C21.6695 14.5587 21.8793 14.245 22.0812 13.9272C22.283 13.6095 22.4769 13.2857 22.6647 12.9599C22.9825 12.4024 23.2782 11.8308 23.55 11.2512C23.658 11.0194 23.7639 10.7856 23.8638 10.5498C24.0157 10.196 24.1576 9.83829 24.2935 9.47855C24.5613 8.7591 24.7951 8.02565 24.9949 7.2822C25.2208 8.12557 25.4906 8.95495 25.8063 9.76834C26.212 10.8136 26.6897 11.8308 27.2412 12.8121C28.914 15.7938 31.2242 18.3979 33.9761 20.4223C33.8782 19.617 33.7483 18.8215 33.5864 18.0401C29.4216 14.4668 26.7356 9.52252 26.0082 4.0826C25.9422 3.58897 25.8923 3.09135 25.8583 2.58972M27.0074 44.6602C26.6417 45.0139 26.266 45.3556 25.8783 45.6854C25.9182 45.1758 25.9742 44.6702 26.0481 44.1705C26.8255 38.8705 29.4675 34.0541 33.5225 30.5488C33.9202 30.205 34.3298 29.8753 34.7535 29.5575C34.6616 30.0771 34.5577 30.5927 34.4418 31.1023C33.2247 36.4144 30.6267 41.1568 27.0074 44.6622V44.6602ZM27.4571 46.4628C32.0796 42.3039 35.2571 36.3264 36.3883 29.6474C36.4622 29.2078 36.5282 28.7641 36.5861 28.3184C36.9459 28.1006 37.3116 27.8927 37.6813 27.6949C40.643 26.1161 43.9286 25.2287 47.306 25.0968C46.8823 36.1785 38.3308 45.2437 27.4571 46.4648V46.4628Z" fill="white"/>
<path d="M30.9806 24.2291C30.9806 20.9056 28.2767 18.2017 24.9532 18.2017C21.6297 18.2017 18.9258 20.9056 18.9258 24.2291C18.9258 27.5526 21.6297 30.2566 24.9532 30.2566C28.2767 30.2566 30.9806 27.5526 30.9806 24.2291ZM24.9512 28.6298C22.525 28.6298 20.5505 26.6553 20.5505 24.2291C20.5505 21.803 22.525 19.8284 24.9512 19.8284C27.3774 19.8284 29.3519 21.803 29.3519 24.2291C29.3519 26.6553 27.3774 28.6298 24.9512 28.6298Z" fill="white"/>
<path d="M65.4834 39.473V14.4838H67.6617V39.473H65.4834Z" fill="white"/>
<path d="M97.0814 14.3915V35.6755L80.1603 14.3915H78.3037V29.7999C78.6734 29.722 79.0551 29.68 79.4468 29.68C79.8006 29.68 80.1463 29.714 80.4821 29.7779V18.0807L97.4751 39.4727H99.2598V14.3915H97.0814Z" fill="white"/>
<path d="M82.6087 38.1639C82.6826 38.084 82.7525 38.002 82.8205 37.9181C82.8285 37.9081 82.8365 37.8981 82.8445 37.8861C82.9124 37.8002 82.9784 37.7102 83.0403 37.6203C83.0403 37.6203 83.0423 37.6163 83.0443 37.6143C83.1043 37.5244 83.1622 37.4305 83.2162 37.3345C83.2222 37.3245 83.2282 37.3145 83.2322 37.3045C83.2841 37.2126 83.3321 37.1167 83.3761 37.0208C83.3841 37.0048 83.3921 36.9868 83.3981 36.9708C83.442 36.8749 83.482 36.7749 83.518 36.675C83.522 36.663 83.526 36.649 83.53 36.637C83.5639 36.5391 83.5959 36.4372 83.6239 36.3353C83.6259 36.3273 83.6299 36.3173 83.6319 36.3093C83.6599 36.2054 83.6818 36.0994 83.7018 35.9915C83.7058 35.9715 83.7098 35.9516 83.7118 35.9316C83.7298 35.8257 83.7438 35.7197 83.7538 35.6118C83.7538 35.5918 83.7558 35.5738 83.7578 35.5539C83.7658 35.4419 83.7718 35.328 83.7718 35.2121C83.7718 35.0982 83.7658 34.9843 83.7578 34.8704C83.7578 34.8504 83.7558 34.8324 83.7538 34.8124C83.7438 34.7045 83.7298 34.5986 83.7118 34.4927C83.7078 34.4727 83.7038 34.4527 83.7018 34.4327C83.6818 34.3248 83.6599 34.2189 83.6319 34.1149C83.6299 34.1069 83.6259 34.097 83.6239 34.089C83.5959 33.987 83.5659 33.8871 83.53 33.7872C83.526 33.7752 83.522 33.7612 83.516 33.7492C83.48 33.6493 83.44 33.5494 83.3961 33.4534C83.3881 33.4374 83.3821 33.4195 83.3741 33.4035C83.3301 33.3075 83.2821 33.2116 83.2302 33.1177C83.2242 33.1077 83.2182 33.0977 83.2142 33.0877C83.1602 32.9918 83.1043 32.8978 83.0423 32.8079C83.0423 32.8079 83.0403 32.8039 83.0383 32.8019C82.9764 32.71 82.9104 32.6221 82.8425 32.5361C82.8345 32.5261 82.8265 32.5161 82.8185 32.5041C82.7505 32.4202 82.6806 32.3383 82.6067 32.2583C82.6007 32.2503 82.5927 32.2443 82.5867 32.2363C82.4308 32.0725 82.2629 31.9186 82.0831 31.7807C82.0791 31.7767 82.0751 31.7747 82.0691 31.7707C81.9791 31.7027 81.8872 31.6368 81.7933 31.5748C81.7873 31.5708 81.7813 31.5668 81.7753 31.5629C81.4815 31.375 81.1657 31.2211 80.83 31.1072C80.824 31.1052 80.818 31.1032 80.812 31.1012C80.7001 31.0632 80.5882 31.0313 80.4723 31.0013C80.3943 30.9813 80.3164 30.9653 80.2365 30.9513C80.2245 30.9493 80.2125 30.9473 80.2005 30.9453C80.1345 30.9333 80.0666 30.9233 79.9986 30.9133C79.9807 30.9113 79.9607 30.9093 79.9427 30.9053C79.8787 30.8974 79.8148 30.8914 79.7508 30.8874C79.7308 30.8874 79.7109 30.8834 79.6889 30.8834C79.6069 30.8794 79.523 30.8754 79.4391 30.8754C79.3491 30.8754 79.2592 30.8794 79.1693 30.8854C79.1473 30.8854 79.1253 30.8894 79.1033 30.8914C79.0294 30.8974 78.9574 30.9053 78.8835 30.9133C78.8675 30.9133 78.8535 30.9173 78.8375 30.9193C78.6517 30.9453 78.4718 30.9833 78.2939 31.0312C78.0661 31.0932 77.8443 31.1751 77.6344 31.2711C77.6344 31.2711 77.6304 31.2711 77.6284 31.2731C77.5225 31.321 77.4206 31.375 77.3207 31.4309C77.3207 31.4309 77.3207 31.4309 77.3187 31.4309C77.1188 31.5429 76.929 31.6708 76.7511 31.8127C76.7471 31.8167 76.7431 31.8187 76.7391 31.8227C76.6512 31.8926 76.5672 31.9645 76.4873 32.0405C76.4833 32.0445 76.4793 32.0485 76.4733 32.0525C76.3114 32.2044 76.1636 32.3682 76.0257 32.5421C76.0197 32.5501 76.0117 32.5601 76.0057 32.5681C75.9397 32.652 75.8778 32.74 75.8198 32.8279C75.8138 32.8379 75.8058 32.8479 75.7998 32.8599C75.6839 33.0397 75.58 33.2296 75.4901 33.4275C75.4841 33.4414 75.4761 33.4574 75.4701 33.4714C75.4281 33.5673 75.3901 33.6633 75.3562 33.7612C75.3502 33.7772 75.3442 33.7952 75.3402 33.8112C75.2702 34.013 75.2163 34.2229 75.1783 34.4387C75.1743 34.4587 75.1703 34.4767 75.1683 34.4967C75.1503 34.6006 75.1383 34.7045 75.1283 34.8104C75.1283 34.8304 75.1243 34.8504 75.1243 34.8704C75.1163 34.9803 75.1104 35.0922 75.1104 35.2041C75.1104 35.316 75.1163 35.428 75.1243 35.5379C75.1243 35.5579 75.1263 35.5778 75.1283 35.5978C75.1383 35.7037 75.1503 35.8077 75.1683 35.9116C75.1723 35.9316 75.1743 35.9496 75.1783 35.9695C75.2163 36.1854 75.2702 36.3932 75.3402 36.5971C75.3462 36.6131 75.3502 36.6311 75.3562 36.647C75.3901 36.745 75.4301 36.8429 75.4701 36.9368C75.4761 36.9528 75.4841 36.9668 75.4901 36.9808C75.58 37.1786 75.6839 37.3685 75.7998 37.5484C75.8058 37.5584 75.8138 37.5683 75.8198 37.5803C75.8778 37.6703 75.9397 37.7562 76.0057 37.8401C76.0117 37.8481 76.0197 37.8581 76.0257 37.8661C76.1616 38.04 76.3114 38.2039 76.4733 38.3558C76.4773 38.3598 76.4813 38.3638 76.4853 38.3677C76.5672 38.4437 76.6512 38.5156 76.7371 38.5856C76.7411 38.5896 76.7451 38.5916 76.7491 38.5956C76.927 38.7375 77.1168 38.8654 77.3167 38.9793C77.3167 38.9793 77.3167 38.9793 77.3187 38.9793C77.4186 39.0352 77.5225 39.0892 77.6284 39.1372C77.6284 39.1372 77.6324 39.1372 77.6324 39.1392C77.9542 39.2871 78.2979 39.397 78.6577 39.4629C78.7816 39.4849 78.9095 39.5029 79.0374 39.5149C79.0434 39.5149 79.0474 39.5149 79.0534 39.5149C79.1793 39.5269 79.3072 39.5329 79.4371 39.5329C79.567 39.5329 79.6949 39.5269 79.8208 39.5149C79.8268 39.5149 79.8308 39.5149 79.8368 39.5149C79.9647 39.5029 80.0906 39.4849 80.2165 39.4629C80.4203 39.425 80.6202 39.375 80.812 39.309C80.818 39.309 80.824 39.305 80.828 39.303C81.1638 39.1891 81.4815 39.0352 81.7733 38.8454C81.7793 38.8414 81.7853 38.8374 81.7913 38.8334C81.8852 38.7714 81.9791 38.7075 82.0671 38.6375C82.0711 38.6336 82.0751 38.6316 82.0811 38.6276C82.2609 38.4897 82.4288 38.3358 82.5847 38.1719C82.5907 38.1639 82.5987 38.1579 82.6047 38.1499L82.6087 38.1639ZM82.5887 35.5079C82.5867 35.5379 82.5807 35.5698 82.5767 35.5998C82.5687 35.6658 82.5587 35.7317 82.5467 35.7977C82.5407 35.8317 82.5327 35.8656 82.5267 35.8996C82.5127 35.9616 82.4967 36.0235 82.4787 36.0855C82.4708 36.1174 82.4608 36.1474 82.4528 36.1794C82.4248 36.2653 82.3948 36.3493 82.3608 36.4332C82.3488 36.4612 82.3349 36.4892 82.3209 36.5191C82.2969 36.5731 82.2709 36.6271 82.2429 36.681C82.2209 36.721 82.199 36.761 82.177 36.7989C82.155 36.8369 82.131 36.8749 82.107 36.9128C82.0791 36.9548 82.0531 36.9968 82.0231 37.0367C82.0031 37.0667 81.9791 37.0947 81.9571 37.1227C81.8332 37.2866 81.6934 37.4384 81.5395 37.5743C81.5295 37.5823 81.5215 37.5923 81.5115 37.6003C81.4595 37.6463 81.4036 37.6903 81.3476 37.7322C81.3356 37.7422 81.3236 37.7502 81.3116 37.7582C81.2537 37.8022 81.1937 37.8441 81.1318 37.8821C80.9279 38.012 80.7081 38.1179 80.4763 38.1979C80.4023 38.2239 80.3284 38.2458 80.2524 38.2658C80.2345 38.2698 80.2165 38.2758 80.2005 38.2798C80.1365 38.2958 80.0706 38.3098 80.0046 38.3218C79.9647 38.3298 79.9247 38.3338 79.8847 38.3398C79.8348 38.3478 79.7848 38.3538 79.7348 38.3598C79.6389 38.3677 79.543 38.3737 79.4451 38.3737C79.4451 38.3737 79.4411 38.3737 79.4391 38.3737C79.3371 38.3737 79.2372 38.3677 79.1393 38.3578C79.0633 38.3498 78.9914 38.3378 78.9175 38.3258C78.8955 38.3218 78.8715 38.3198 78.8495 38.3158C78.7576 38.2978 78.6656 38.2758 78.5757 38.2498C78.5757 38.2498 78.5737 38.2498 78.5717 38.2498C78.4798 38.2239 78.3899 38.1919 78.2999 38.1579C78.23 38.1299 78.162 38.0999 78.0941 38.07C78.0861 38.066 78.0761 38.062 78.0681 38.058C77.8003 37.9281 77.5545 37.7622 77.3367 37.5664C77.3207 37.5504 77.3027 37.5364 77.2867 37.5204C77.2427 37.4784 77.1988 37.4364 77.1568 37.3925C77.1388 37.3725 77.1208 37.3525 77.1028 37.3325C77.0349 37.2566 76.9689 37.1766 76.907 37.0947C76.887 37.0667 76.865 37.0387 76.845 37.0108C76.8191 36.9728 76.7951 36.9328 76.7691 36.8949C76.7451 36.8549 76.7191 36.8169 76.6971 36.7749C76.6752 36.737 76.6552 36.699 76.6352 36.661C76.6092 36.6131 76.5872 36.5631 76.5633 36.5131C76.5493 36.4812 76.5333 36.4472 76.5193 36.4152C76.4853 36.3333 76.4553 36.2493 76.4273 36.1654C76.4194 36.1434 76.4154 36.1194 76.4074 36.0975C76.3874 36.0295 76.3694 35.9596 76.3534 35.8896C76.3474 35.8576 76.3414 35.8277 76.3354 35.7957C76.3234 35.7297 76.3134 35.6618 76.3054 35.5958C76.3014 35.5659 76.2974 35.5359 76.2954 35.5059C76.2875 35.41 76.2815 35.312 76.2815 35.2141C76.2815 35.1162 76.2875 35.0183 76.2954 34.9223C76.2974 34.8924 76.3014 34.8624 76.3054 34.8324C76.3134 34.7645 76.3234 34.6985 76.3354 34.6325C76.3414 34.6006 76.3474 34.5686 76.3534 34.5386C76.3694 34.4687 76.3874 34.3987 76.4074 34.3308C76.4134 34.3088 76.4194 34.2848 76.4273 34.2628C76.4553 34.1769 76.4853 34.095 76.5193 34.013C76.5333 33.979 76.5493 33.9471 76.5633 33.9151C76.5852 33.8651 76.6092 33.8172 76.6332 33.7672C76.6532 33.7292 76.6732 33.6913 76.6951 33.6533C76.7191 33.6133 76.7431 33.5733 76.7671 33.5334C76.7911 33.4934 76.8151 33.4554 76.843 33.4175C76.863 33.3895 76.885 33.3615 76.905 33.3335C76.9669 33.2516 77.0309 33.1716 77.1008 33.0957C77.1188 33.0757 77.1368 33.0557 77.1548 33.0357C77.1968 32.9918 77.2407 32.9498 77.2847 32.9078C77.3007 32.8919 77.3187 32.8779 77.3347 32.8619C77.5525 32.666 77.7983 32.5001 78.0661 32.3702C78.0761 32.3663 78.0841 32.3623 78.0941 32.3563C78.16 32.3243 78.228 32.2943 78.2979 32.2683C78.3859 32.2343 78.4758 32.2024 78.5677 32.1764H78.5717C78.6617 32.1504 78.7516 32.1284 78.8435 32.1104C78.8675 32.1064 78.8915 32.1024 78.9155 32.0985C78.9874 32.0865 79.0594 32.0745 79.1333 32.0665C79.2332 32.0565 79.3351 32.0505 79.4391 32.0505C79.543 32.0505 79.6349 32.0565 79.7308 32.0645C79.7808 32.0685 79.8308 32.0765 79.8787 32.0845C79.9187 32.0905 79.9607 32.0965 80.0006 32.1024C80.0666 32.1144 80.1325 32.1284 80.1965 32.1444C80.2145 32.1484 80.2325 32.1544 80.2504 32.1584C80.3264 32.1784 80.4003 32.2004 80.4723 32.2264C80.7041 32.3063 80.9219 32.4122 81.1258 32.5421C81.1258 32.5421 81.1258 32.5421 81.1278 32.5421C81.1897 32.5821 81.2497 32.6221 81.3076 32.666C81.3196 32.676 81.3316 32.684 81.3436 32.694C81.3996 32.736 81.4535 32.7799 81.5055 32.8259C81.5155 32.8339 81.5235 32.8439 81.5335 32.8519C81.6874 32.9878 81.8272 33.1397 81.9512 33.3035C81.9731 33.3315 81.9951 33.3615 82.0171 33.3915C82.0451 33.4315 82.0731 33.4734 82.101 33.5154C82.125 33.5534 82.149 33.5913 82.171 33.6293C82.193 33.6673 82.217 33.7072 82.2369 33.7472C82.2649 33.7992 82.2909 33.8551 82.3149 33.9091C82.3269 33.9371 82.3429 33.9651 82.3548 33.993C82.3888 34.075 82.4208 34.1609 82.4468 34.2468C82.4568 34.2768 82.4648 34.3088 82.4728 34.3408C82.4907 34.4027 82.5067 34.4647 82.5207 34.5266C82.5287 34.5606 82.5347 34.5946 82.5407 34.6286C82.5527 34.6945 82.5627 34.7605 82.5707 34.8264C82.5747 34.8564 82.5787 34.8884 82.5827 34.9183C82.5927 35.0163 82.5967 35.1142 82.5967 35.2121C82.5967 35.312 82.5907 35.41 82.5827 35.5059L82.5887 35.5079Z" fill="white"/>
<path d="M109.177 14.2933H111.355V28.6426C111.355 31.3665 112.081 33.4729 113.533 34.9638C114.984 36.4547 116.973 37.2022 119.495 37.2022C122.017 37.2022 123.976 36.4567 125.438 34.9638C126.901 33.4729 127.635 31.3645 127.635 28.6426V14.2933H129.777V28.9963C129.777 30.6291 129.539 32.092 129.064 33.383C128.588 34.6741 127.903 35.7692 127.011 36.6686C126.118 37.5679 125.041 38.2614 123.78 38.747C122.519 39.2326 121.09 39.4745 119.495 39.4745C117.9 39.4745 116.501 39.2306 115.228 38.747C113.955 38.2614 112.872 37.5699 111.979 36.6686C111.085 35.7692 110.396 34.6741 109.908 33.383C109.421 32.092 109.177 30.6311 109.177 28.9963V14.2933Z" fill="white"/>
<path d="M156.586 39.473L148.089 30.156H141.841V39.473H139.663V14.4838H149.124C152.383 14.4838 154.884 15.1573 156.62 16.5003C158.357 17.8452 159.226 19.7798 159.226 22.3019C159.226 24.6102 158.501 26.4248 157.048 27.7458C155.595 29.0668 153.515 29.8462 150.801 30.0841L159.332 39.473H156.584H156.586ZM141.841 16.4123V28.1935H149.088C151.682 28.1935 153.662 27.7178 155.031 26.7646C156.4 25.8133 157.084 24.3244 157.084 22.3019C157.084 20.2794 156.4 18.8805 155.031 17.8932C153.662 16.9059 151.694 16.4123 149.124 16.4123H141.841Z" fill="white"/>
<path d="M165.479 39.4728L177.083 14.4835H179.189L190.792 39.4728H188.508L185.652 33.2974H170.622L167.766 39.4728H165.481H165.479ZM184.757 31.3689L178.116 16.9457L171.475 31.3689H184.755H184.757Z" fill="white"/>
<path d="M119.506 19.6581C119.192 19.6581 118.936 19.4023 118.936 19.0885C118.936 16.7583 117.039 14.8617 114.709 14.8617C114.395 14.8617 114.14 14.6059 114.14 14.2921C114.14 13.9784 114.395 13.7226 114.709 13.7226C117.039 13.7226 118.936 11.826 118.936 9.49572C118.936 9.18196 119.192 8.92615 119.506 8.92615C119.819 8.92615 120.075 9.18196 120.075 9.49572C120.075 11.826 121.972 13.7226 124.302 13.7226C124.616 13.7226 124.871 13.9784 124.871 14.2921C124.871 14.6059 124.616 14.8617 124.302 14.8617C121.972 14.8617 120.075 16.7583 120.075 19.0885C120.075 19.4023 119.819 19.6581 119.506 19.6581ZM117.113 14.2921C118.145 14.8117 118.986 15.6531 119.506 16.6843C120.025 15.6531 120.867 14.8117 121.898 14.2921C120.867 13.7725 120.025 12.9311 119.506 11.8999C118.986 12.9311 118.145 13.7725 117.113 14.2921Z" fill="white"/>
</svg>
