<svg width="215" height="60" viewBox="0 0 215 60" fill="none" xmlns="http://www.w3.org/2000/svg">
<path d="M69.2 5.9L66.68 6.44C63.96 11.48 61.5 17.92 59.3 25.76C58.54 28.48 57.38 31.52 55.82 34.88C54.26 38.2 52.4 41.26 50.24 44.06C42.28 54.26 32.1 59.36 19.7 59.36C13.94 59.36 9.36 58.12 5.96 55.64C3.64 53.92 2.1 51.68 1.34 48.92C1.06 47.92 0.92 46.64 0.92 45.08C0.92 43.52 1.32 41.68 2.12 39.56C2.96 37.4 4.3 35.5 6.14 33.86C7.98 32.18 9.44 31.3 10.52 31.22C10.92 31.22 11.16 31.28 11.24 31.4C11.36 31.56 11.14 31.78 10.58 32.06C9.34 32.58 7.96 33.76 6.44 35.6C4.08 38.4 2.9 41.56 2.9 45.08C2.9 47.76 3.76 50.06 5.48 51.98C7.64 54.38 10.7 56.02 14.66 56.9C16.42 57.3 17.76 57.5 18.68 57.5C19.6 57.5 20.54 57.48 21.5 57.44C22.5 57.44 23.8 57.24 25.4 56.84C28.72 56 31.9 54.64 34.94 52.76C37.98 50.88 40.58 48.86 42.74 46.7C44.9 44.5 46.9 42.08 48.74 39.44C51.86 34.92 54.22 30.48 55.82 26.12C58.62 18.72 61.62 12.26 64.82 6.74C58.46 8.06 53.4 9.52 49.64 11.12C45.8 12.8 42.82 14.68 40.7 16.76C38.06 19.44 36.36 22.46 35.6 25.82C35.36 26.78 35.24 27.66 35.24 28.46C35.24 30.14 35.7 31.5 36.62 32.54C37.54 33.58 38.52 34.1 39.56 34.1C40.64 34.1 41.78 33.86 42.98 33.38C44.22 32.9 45.3 32.1 46.22 30.98C47.5 29.34 48.14 27.4 48.14 25.16C48.14 24.04 47.98 23.34 47.66 23.06C47.58 22.94 47.62 22.76 47.78 22.52C48.18 21.92 48.56 21.92 48.92 22.52C49.44 23.52 49.7 24.62 49.7 25.82C49.7 26.98 49.32 28.26 48.56 29.66C47.2 32.22 45.24 33.98 42.68 34.94C41.4 35.42 40.02 35.66 38.54 35.66C37.1 35.66 35.54 35 33.86 33.68C32.18 32.36 31.34 30.52 31.34 28.16C31.34 27.44 31.42 26.66 31.58 25.82C33.86 15.54 45.26 8.66 65.78 5.18C66.14 4.42 66.78 3.48 67.7 2.36C68.66 1.24 69.46 0.579998 70.1 0.379999C70.78 0.139997 71.34 0.0199962 71.78 0.0199962C73.1 0.0199962 73.78 0.579996 73.82 1.7C73.82 2.9 73.34 3.82 72.38 4.46C71.5 5.02 70.44 5.5 69.2 5.9ZM67.7 4.94C70.42 4.38 71.72 3.62 71.6 2.66C71.52 2.18 71.24 1.94 70.76 1.94C70.32 1.94 69.3 2.94 67.7 4.94ZM65.3066 48.86C65.8266 48.94 66.1866 48.98 66.3866 48.98C67.9866 48.98 69.5666 48.04 71.1266 46.16C71.9666 45.12 73.4666 42.5 75.6266 38.3C75.7066 38.1 75.8466 38 76.0466 38C76.4066 37.96 76.5866 38.1 76.5866 38.42C76.5866 38.5 76.4866 38.74 76.2866 39.14C76.1266 39.5 75.9666 39.88 75.8066 40.28C75.6466 40.64 75.3866 41.18 75.0266 41.9C74.6666 42.62 74.3466 43.2 74.0666 43.64C73.8266 44.08 73.5066 44.62 73.1066 45.26C72.7066 45.9 72.3066 46.4 71.9066 46.76L70.6466 48.08C69.9666 48.76 69.1666 49.24 68.2466 49.52C66.7666 50 65.3266 50.04 63.9266 49.64C63.0066 50.04 62.1866 50.24 61.4666 50.24C58.6266 50.24 56.9066 49.12 56.3066 46.88C56.1866 46.36 56.1266 45.74 56.1266 45.02C56.1266 44.26 56.3666 43.54 56.8466 42.86C57.3666 42.18 57.9066 41.82 58.4666 41.78C60.5066 37.9 62.2466 34.4 63.6866 31.28C65.2866 27.88 67.1466 26.18 69.2666 26.18C69.8266 26.18 70.3666 26.32 70.8866 26.6C71.4466 26.84 71.6466 27.12 71.4866 27.44C71.3666 27.76 71.0866 27.82 70.6466 27.62C70.2066 27.42 69.8266 27.32 69.5066 27.32C69.1866 27.32 68.9066 27.38 68.6666 27.5C67.3066 28.14 66.6266 29.52 66.6266 31.64C66.6266 32.76 66.7866 33.68 67.1066 34.4C67.4266 35.12 67.7866 35.9 68.1866 36.74C69.1066 38.82 69.5666 40.52 69.5666 41.84C69.5666 43.16 69.1466 44.46 68.3066 45.74C67.4666 47.02 66.4666 48.06 65.3066 48.86ZM63.2666 48.44C65.0266 47.08 65.9066 44.88 65.9066 41.84C65.9066 40.6 65.7666 38.9 65.4866 36.74C65.2066 34.58 65.0666 33.12 65.0666 32.36C65.0666 31.6 65.0866 31.08 65.1266 30.8C62.0866 36.88 60.2066 40.58 59.4866 41.9C60.3266 41.9 60.7466 42.5 60.7466 43.7C60.7466 46.06 61.5866 47.64 63.2666 48.44ZM58.7666 46.82C58.7666 47.06 58.7866 47.32 58.8266 47.6C59.1466 48.68 59.8866 49.22 61.0466 49.22C61.5266 49.22 61.9266 49.14 62.2466 48.98C60.7666 48.06 59.9666 46.56 59.8466 44.48C59.1266 45.2 58.7666 45.98 58.7666 46.82ZM86.1781 47.3C86.1781 48.42 86.5781 48.98 87.3781 48.98C89.2581 48.98 91.9181 45.46 95.3581 38.42C95.6381 37.86 95.8781 37.64 96.0781 37.76C96.3181 37.88 96.4381 38.04 96.4381 38.24C96.4381 38.44 96.1981 39.02 95.7181 39.98C95.2781 40.9 94.8181 41.8 94.3381 42.68C93.8981 43.52 93.2381 44.64 92.3581 46.04C90.5181 48.84 88.5581 50.24 86.4781 50.24C85.1181 50.24 84.0381 49.68 83.2381 48.56C82.8781 48.04 82.6981 47.34 82.6981 46.46C82.6981 45.54 82.8981 44.44 83.2981 43.16C83.6981 41.88 84.7981 39.8 86.5981 36.92C87.0381 36.2 87.2581 35.64 87.2581 35.24C87.2581 34.8 86.9181 34.58 86.2381 34.58C85.5581 34.58 84.2581 35.48 82.3381 37.28C79.4581 39.92 76.6581 43.88 73.9381 49.16C73.6581 49.76 72.9181 50.06 71.7181 50.06C70.6381 50.14 69.9581 50.26 69.6781 50.42C77.2781 34.62 82.7781 23.6 86.1781 17.36C86.9381 15.96 87.5981 14.98 88.1581 14.42C88.7581 13.86 89.4581 13.58 90.2581 13.58C90.4581 13.58 90.8781 13.64 91.5181 13.76C92.1581 13.84 92.6381 13.86 92.9581 13.82C91.7581 15.06 89.5981 18.5 86.4781 24.14C83.3981 29.74 80.4381 35.44 77.5981 41.24C79.4781 38.88 81.1581 37.04 82.6381 35.72C84.1581 34.4 85.9981 33.16 88.1581 32C90.3181 30.8 91.8981 30.2 92.8981 30.2C93.1381 30.2 93.3581 30.24 93.5581 30.32C88.6381 38.96 86.1781 44.62 86.1781 47.3ZM110.9 33.8C110.9 32.72 110.36 32.18 109.28 32.18C107.68 32.18 105.82 33.1 103.7 34.94C101.62 36.74 99.88 38.64 98.48 40.64C97.88 41.8 97.38 43.26 96.98 45.02C96.62 46.78 96.44 48 96.44 48.68C96.44 49.36 96.56 49.8 96.8 50H93.02C92.42 50 92.26 49.48 92.54 48.44C92.86 47.36 93.28 46.2 93.8 44.96C94.32 43.72 94.96 42.3 95.72 40.7C96.52 39.06 97.1 37.82 97.46 36.98C94.18 43.18 92.06 46.74 91.1 47.66C90.7 48.02 90.5 47.9 90.5 47.3C90.5 47.18 90.54 47.04 90.62 46.88C92.02 45.04 94.8 40.04 98.96 31.88C103.16 23.72 106.1 18.38 107.78 15.86C109.14 13.9 110.46 12.92 111.74 12.92C111.74 12.92 111.76 12.92 111.8 12.92H112.1C112.14 12.92 112.48 12.98 113.12 13.1C113.8 13.22 114.3 13.24 114.62 13.16C113.14 14.28 111.1 16.86 108.5 20.9C105.9 24.9 103.84 28.42 102.32 31.46C100.8 34.46 99.78 36.74 99.26 38.3C102.9 33.78 106.16 30.98 109.04 29.9C110.4 29.46 111.48 29.24 112.28 29.24C114.04 29.24 114.92 29.98 114.92 31.46C114.92 31.94 114.82 32.48 114.62 33.08C114.06 34.6 112.9 35.98 111.14 37.22C109.42 38.42 107.52 39.12 105.44 39.32C104.96 40.44 104.72 41.48 104.72 42.44C104.72 43.36 104.82 44.2 105.02 44.96C105.5 46.88 106.4 48.06 107.72 48.5C108 48.58 108.28 48.62 108.56 48.62C109.68 48.62 111 47.92 112.52 46.52C113.76 45.16 115.38 42.42 117.38 38.3C117.66 37.78 117.88 37.62 118.04 37.82C118.2 37.98 118.28 38.14 118.28 38.3C118.28 38.46 117.98 39.24 117.38 40.64C116.78 42.04 115.94 43.58 114.86 45.26C112.58 48.7 110.06 50.42 107.3 50.42C105.62 50.42 104.32 49.94 103.4 48.98C102.08 47.62 101.42 45.84 101.42 43.64C101.42 42.52 101.72 41.38 102.32 40.22C102.92 39.06 103.62 38.44 104.42 38.36C104.54 38.36 104.66 38.36 104.78 38.36C106.18 38.36 107.54 37.82 108.86 36.74C110.22 35.66 110.9 34.68 110.9 33.8ZM127.897 47.3C127.897 48.42 128.297 48.98 129.097 48.98C130.977 48.98 133.637 45.46 137.077 38.42C137.357 37.86 137.597 37.64 137.797 37.76C138.037 37.88 138.157 38.04 138.157 38.24C138.157 38.44 137.917 39.02 137.437 39.98C136.997 40.9 136.537 41.8 136.057 42.68C135.617 43.52 134.957 44.64 134.077 46.04C132.237 48.84 130.277 50.24 128.197 50.24C126.837 50.24 125.757 49.68 124.957 48.56C124.597 48.04 124.417 47.34 124.417 46.46C124.417 45.54 124.617 44.44 125.017 43.16C125.417 41.88 126.517 39.8 128.317 36.92C128.757 36.2 128.977 35.64 128.977 35.24C128.977 34.8 128.637 34.58 127.957 34.58C127.277 34.58 125.977 35.48 124.057 37.28C121.177 39.92 118.377 43.88 115.657 49.16C115.377 49.76 114.637 50.06 113.437 50.06C112.357 50.14 111.677 50.26 111.397 50.42C118.997 34.62 124.497 23.6 127.897 17.36C128.657 15.96 129.317 14.98 129.877 14.42C130.477 13.86 131.177 13.58 131.977 13.58C132.177 13.58 132.597 13.64 133.237 13.76C133.877 13.84 134.357 13.86 134.677 13.82C133.477 15.06 131.317 18.5 128.197 24.14C125.117 29.74 122.157 35.44 119.317 41.24C121.197 38.88 122.877 37.04 124.357 35.72C125.877 34.4 127.717 33.16 129.877 32C132.037 30.8 133.617 30.2 134.617 30.2C134.857 30.2 135.077 30.24 135.277 30.32C130.357 38.96 127.897 44.62 127.897 47.3ZM155.379 33.74C154.659 34.46 153.639 36.1 152.319 38.66C150.999 41.18 150.199 43.08 149.919 44.36C149.679 45.6 149.559 46.62 149.559 47.42C149.559 48.18 149.859 48.56 150.459 48.56C151.219 48.56 152.159 47.86 153.279 46.46C154.919 44.42 156.539 41.76 158.139 38.48C158.299 38.12 158.479 37.92 158.679 37.88C158.999 37.76 159.159 37.88 159.159 38.24C159.159 38.44 159.099 38.68 158.979 38.96C155.299 46.4 152.199 50.12 149.679 50.12C148.519 50.12 147.579 49.56 146.859 48.44C146.499 47.84 146.319 47.04 146.319 46.04C146.319 45.04 146.519 43.82 146.919 42.38C143.719 47.54 140.959 50.12 138.639 50.12C137.999 50.12 137.419 49.92 136.899 49.52C135.699 48.68 135.099 47.24 135.099 45.2C135.099 41.28 136.799 37.3 140.199 33.26C142.119 31.02 144.479 29.56 147.279 28.88C148.039 28.68 148.759 28.58 149.439 28.58C151.279 28.58 152.839 29.22 154.119 30.5C154.519 30.94 154.639 31.36 154.479 31.76C154.319 32.16 153.979 32.32 153.459 32.24C153.019 30.8 152.059 30.08 150.579 30.08C148.859 30.08 146.739 31.44 144.219 34.16C142.779 35.76 141.439 37.64 140.199 39.8C138.639 42.4 137.859 44.48 137.859 46.04C137.859 47.6 138.359 48.38 139.359 48.38C141.759 48.38 144.899 44.7 148.779 37.34C149.539 35.86 150.179 34.86 150.699 34.34C151.219 33.78 151.879 33.5 152.679 33.5C152.839 33.5 153.239 33.56 153.879 33.68C154.559 33.8 155.059 33.82 155.379 33.74ZM176.235 30.32C171.315 38.96 168.855 44.6 168.855 47.24C168.855 48.28 169.235 48.8 169.995 48.8C172.035 48.8 174.775 45.34 178.215 38.42C178.455 37.86 178.695 37.64 178.935 37.76C179.175 37.88 179.295 38.04 179.295 38.24C179.295 38.44 179.215 38.68 179.055 38.96C176.935 43.24 175.135 46.2 173.655 47.84C172.215 49.44 170.755 50.24 169.275 50.24C167.835 50.24 166.735 49.68 165.975 48.56C165.575 48.04 165.375 47.34 165.375 46.46C165.375 45.54 165.575 44.44 165.975 43.16C166.375 41.88 167.475 39.8 169.275 36.92C169.715 36.2 169.935 35.64 169.935 35.24C169.935 34.8 169.595 34.58 168.915 34.58C168.235 34.58 166.935 35.48 165.015 37.28C162.135 39.92 159.355 43.88 156.675 49.16C156.435 49.56 156.155 49.82 155.835 49.94C155.555 50.02 154.975 50.08 154.095 50.12C153.215 50.16 152.635 50.26 152.355 50.42C152.995 49.14 154.255 46.52 156.135 42.56C159.495 35.56 161.695 31.56 162.735 30.56C163.215 30.08 163.875 29.84 164.715 29.84C164.875 29.84 165.275 29.9 165.915 30.02C166.595 30.14 167.095 30.16 167.415 30.08C165.935 30.88 163.515 34.64 160.155 41.36C162.035 39.04 163.735 37.2 165.255 35.84C166.815 34.44 168.675 33.16 170.835 32C172.995 30.8 174.575 30.2 175.575 30.2C175.815 30.2 176.035 30.24 176.235 30.32ZM189.133 29C192.053 29 193.513 30.84 193.513 34.52C193.513 36.2 193.073 38 192.193 39.92C191.073 42.52 189.393 44.88 187.153 47C187.673 48 188.613 48.5 189.973 48.5C191.053 48.5 192.073 47.96 193.033 46.88C194.233 45.64 195.093 44.56 195.613 43.64C196.133 42.68 196.513 41.98 196.753 41.54C196.993 41.1 197.293 40.48 197.653 39.68C198.053 38.84 198.293 38.34 198.373 38.18C198.453 37.98 198.593 37.88 198.793 37.88C199.193 37.84 199.393 37.98 199.393 38.3C199.393 38.42 199.353 38.56 199.273 38.72L198.913 39.56C198.673 40.12 198.493 40.52 198.373 40.76C198.253 41 198.033 41.44 197.713 42.08C197.433 42.68 197.173 43.16 196.933 43.52C196.733 43.88 196.433 44.36 196.033 44.96C195.673 45.56 195.333 46.04 195.013 46.4C194.733 46.76 194.373 47.16 193.933 47.6C193.493 48.04 193.073 48.38 192.673 48.62C191.673 49.22 190.733 49.52 189.853 49.52C188.213 49.52 186.933 49 186.013 47.96C184.173 49.32 182.473 50 180.913 50C177.993 50 176.533 48.16 176.533 44.48C176.533 42.8 176.973 41 177.853 39.08C179.053 36.28 180.733 33.9 182.893 31.94C185.093 29.98 187.173 29 189.133 29ZM189.793 30.86C188.713 30.86 187.433 31.58 185.953 33.02C184.473 34.46 183.153 36.42 181.993 38.9C180.593 41.78 179.893 44.14 179.893 45.98C179.893 47.82 180.593 48.74 181.993 48.74C182.993 48.74 184.113 48.2 185.353 47.12C184.713 46.2 184.393 45.22 184.393 44.18C184.473 42.46 185.173 41.6 186.493 41.6C187.013 41.6 187.433 41.78 187.753 42.14C188.113 42.5 188.293 42.84 188.293 43.16C188.293 43.44 188.253 43.74 188.173 44.06C188.853 43.06 189.633 41.64 190.513 39.8C191.513 37.76 192.013 35.76 192.013 33.8C192.013 31.84 191.273 30.86 189.793 30.86ZM214.271 29.06L213.971 30.14C211.931 36.5 210.051 41.14 208.331 44.06C205.811 48.3 203.171 50.42 200.411 50.42C198.171 50.42 197.051 49.34 197.051 47.18C197.051 45.54 197.651 43 198.851 39.56C198.451 40.2 198.131 40.42 197.891 40.22C197.691 39.98 197.651 39.7 197.771 39.38L198.851 37.34C199.611 35.78 199.991 34.22 199.991 32.66C199.991 31.1 199.671 30.18 199.031 29.9C201.431 29.5 202.831 29.32 203.231 29.36C203.631 29.36 203.871 29.52 203.951 29.84C204.071 30.16 204.131 30.52 204.131 30.92C204.131 33.36 203.491 36.24 202.211 39.56C200.971 42.88 200.351 45.12 200.351 46.28C200.351 47.4 200.531 48.06 200.891 48.26C201.251 48.42 201.611 48.5 201.971 48.5C203.011 48.5 204.191 47.66 205.511 45.98C206.831 44.3 208.151 41.82 209.471 38.54C208.911 37.26 208.631 36.14 208.631 35.18C208.631 34.18 208.751 33.3 208.991 32.54C209.711 30.26 210.851 28.84 212.411 28.28C212.731 28.16 213.031 28.1 213.311 28.1C213.951 28.1 214.271 28.42 214.271 29.06Z" fill="white"/>
</svg>
