<svg xmlns="http://www.w3.org/2000/svg" viewBox="0 0 1230.72 160.56">
    <defs>
        <style>.cls-1{fill:#fff;fill-rule:evenodd;}</style>
    </defs>
    <g id="Layer_2" data-name="Layer 2">
        <g id="Layer_1-2" data-name="Layer 1">
            <path class="cls-1"
                  d="M776.53,142.72c-1.72-10.49-2.29-25.18-1.69-44.15l.52-15.9a140.69,140.69,0,0,1,20.15-1q20,.1,27.86,1.25a22.81,22.81,0,0,1,6.3,1.79,18.44,18.44,0,0,0-8.37-3q-7.84-1.14-27.87-1.24a140.79,140.79,0,0,0-20.14,1l-.53,15.89q-.93,29.1,1.8,44.89l2,.53Zm-486-58.83h0l-.14,1.51a44.78,44.78,0,0,1,7.05-.42c6.7,0,11.39.63,14.11,1.78a8.41,8.41,0,0,0-1.88-1.18q-4-1.8-14.31-1.86c-1.85,0-3.44.06-4.83.17Zm546.34,17.3h0c0,.42,0,.81.06,1.25l3.92,0q.17-11.85.27-21t.15-20.82l-2.09-.15c0,7.3-.08,13.88-.14,19.7q-.09,9.18-.27,21ZM394.69,82.76h0l12.79-32.5c1.13-2.69,2.22-5.31,3.23-7.88.84-2.11,1.85-4.45,3-6.94-.53-1.16-1-2.13-1.36-2.86q-2.15,4.7-3.68,8.54c-1,2.57-2.09,5.2-3.23,7.87L392.61,81.5c-1.73,4.62-2.91,7.52-3.51,8.71.8.13,1.66.23,2.51.35.65-1.49,1.68-4,3.08-7.8ZM752.35,12.94h0c-1.52-1.09-4.24-2-8.07-2.93,0,.26,0,.49,0,.78a40.88,40.88,0,0,1,8.35,2.41c-.09-.08-.17-.19-.26-.26ZM451.19,89.73h0q8.94,23.64,13.52,34.92t8,16.1a9.64,9.64,0,0,0,3.79,3,8.19,8.19,0,0,1-1.71-1.78q-3.45-4.83-8-16.1T453.27,91L430.09,27.87C427.37,20.24,424.86,12.3,422.6,4l-1.68.1c2.17,7.79,4.53,15.32,7.08,22.52l23.19,63.12ZM846.87,36.35h0q2.25,0,3.74-9.61T852.72,7.5l-2.19.07c-.43,6-1.07,12-2,17.92q-1.5,9.6-3.74,9.6a4.07,4.07,0,0,1-.62-.06c.2.86,1.08,1.31,2.7,1.32ZM773.32,74.59c0,.44,0-2.92-.06-10.08s-.06-13.5,0-19a298.34,298.34,0,0,1,2.16-31.21,277,277,0,0,1,34.37-2.08,106.47,106.47,0,0,1,23.43,2.36,15.78,15.78,0,0,1,6.09,2.65,19,19,0,0,0-4-1.4,107.14,107.14,0,0,0-23.43-2.35,277,277,0,0,0-34.37,2.08,298.34,298.34,0,0,0-2.16,31.21q0,8.28,0,19c0,4.44,0,7.4,0,8.92-.92,0-1.62-.07-2.06-.11Zm365.33,11.72h0l12.81-32.5c1.13-2.69,2.2-5.31,3.21-7.88.85-2.11,1.85-4.45,3-6.93-.52-1.17-1-2.14-1.36-2.87q-2.14,4.69-3.67,8.54c-1,2.57-2.1,5.2-3.23,7.87l-12.8,32.51c-1.74,4.62-2.92,7.52-3.51,8.71.81.13,1.66.23,2.5.35.67-1.49,1.69-4,3.09-7.8Zm56.5,7h0q8.94,23.64,13.53,34.92t8,16.1a9.59,9.59,0,0,0,3.8,3,8,8,0,0,1-1.72-1.78q-3.43-4.83-8-16.1t-13.53-34.93l-23.19-63.11c-2.72-7.63-5.21-15.57-7.48-23.88l-1.69.1c2.17,7.79,4.52,15.32,7.09,22.52l23.18,63.12ZM876.52,14.21h0a29.87,29.87,0,0,0-7.31-1.86l-.11.94a37.4,37.4,0,0,1,9.12,2,6.73,6.73,0,0,0-1.7-1.11Zm161.73,1.72h0a12.56,12.56,0,0,0-3.39-1.87c-2.9-1.08-7.27-1.72-13.07-1.92v1.21q10.29.15,15.15,2c.48.18.88.41,1.31.61Zm-43.1,132.74h0a42.21,42.21,0,0,0,4.24,2.58c-.71-.43-1.44-.82-2.16-1.32A87.18,87.18,0,0,1,981,135.14a226.44,226.44,0,0,1-14.86-18.93q-6.93-9.84-17.38-25.77l-5-7.64a59.18,59.18,0,0,0,17.61-9.7,38.79,38.79,0,0,0,10.25-12.76A33.77,33.77,0,0,0,975,45.81a32.94,32.94,0,0,0-3.19-14.18,36.54,36.54,0,0,0-9.5-12.3,42.9,42.9,0,0,0-7.27-5,42.08,42.08,0,0,1,5.19,3.72,36.48,36.48,0,0,1,9.51,12.3A32.88,32.88,0,0,1,973,44.54a33.53,33.53,0,0,1-3.43,14.53,38.61,38.61,0,0,1-10.24,12.77,59.47,59.47,0,0,1-17.62,9.71l5,7.63q10.47,15.94,17.37,25.76a229,229,0,0,0,14.86,18.93,87.61,87.61,0,0,0,16.24,14.8ZM897.8,82h0l-.35,26.86q0,8.5.4,19t2.23,14.89a6.26,6.26,0,0,0,3,3.83c.24.12.55.26.88.39a6.86,6.86,0,0,1-1.86-2.95c-1.17-2.92-1.92-7.88-2.22-14.9s-.43-13.36-.41-19l.35-26.86a166.2,166.2,0,0,0,23.29,1.56l-.86-1.24A171,171,0,0,1,897.8,82Zm10.79-69.95h0c-4.14.83-6.55,2.19-7.23,4q-2.62,5.46-2.86,59.43c.66.16,1.39.27,2.08.41q.28-53.14,2.85-58.58c.68-1.85,3.1-3.21,7.24-4a55,55,0,0,1,11.15-1.23,34.93,34.93,0,0,1,16.94,4.08c-5.29-3.51-11.63-5.31-19-5.35a55.8,55.8,0,0,0-11.15,1.24Zm173.22.77h0q-9.84,0-13.43,1A8.85,8.85,0,0,0,1063,18q-3.73,7-4,53.86-.16,32.25-.14,40.83t.31,18.31q.18,7.83,1.18,11.09c.56,1.86,2,3.3,4.29,4.37a6.57,6.57,0,0,1-2.23-3.1q-1-3.26-1.16-11.1c-.19-6.5-.31-12.6-.31-18.32s0-19.31.13-40.82q.23-46.82,4-53.85a8.8,8.8,0,0,1,5.39-4.18q3.58-1,13.43-1l0-5.26-2.09.09,0,3.91Zm-2,140.22h0c-1,0-3.12-.08-6.21-.2s-6.3-.24-9.62-.32l-7.66-.21q-2.7-.07-6.15-.09-4.94,0-8.24,0l-8.78.13q-5.49.08-9.91.23l-3.29.09L1020,154c.59,0,2.37,0,5.31-.14s6.25-.18,9.9-.23l8.8-.13q3.3,0,8.22,0,3.46,0,6.15.09l7.67.2c3.32.09,6.52.2,9.62.33s5.17.19,6.21.19l.47-4.24c-.77,0-1.49,0-2.21-.07l-.34,3.06Zm-66.34,3.28h0l-.2,0a2.29,2.29,0,0,1,.23,1,1.61,1.61,0,0,1-1,1.5c-.68.34-2.28.5-4.82.49a48.52,48.52,0,0,1-20.9-4.86c-1.54-.74-3.06-1.55-4.57-2.4,2.19,1.33,4.39,2.58,6.64,3.66a48.44,48.44,0,0,0,20.91,4.85c2.53,0,4.14-.14,4.81-.47a1.63,1.63,0,0,0,1-1.51c0-1.28-.71-2-2.11-2.25Zm-98.21-5.21h0a1.27,1.27,0,0,1,.13.47c0,1.64-.55,2.46-1.59,2.45s-4.33-.4-9.39-1.16q-9.63-.94-11.75-.95a166.54,166.54,0,0,0-22.39,1.46,9,9,0,0,0-1.9.21h0c.25.83.95,1.26,2.11,1.27a9.89,9.89,0,0,1,1.91-.22,166.54,166.54,0,0,1,22.39-1.46q2.13,0,11.75.95a93.38,93.38,0,0,0,9.39,1.16c1,0,1.57-.81,1.58-2.45,0-.77-.75-1.34-2.2-1.73Zm313.38-.75h0v2.94c-6.11-.62-12-1-17.68-1q-6.7,0-12.48.28t-9.12.57l-2.94.22v1.4c1.11-.07,2.79-.18,5-.36s5.28-.37,9.12-.57,8-.3,12.48-.28q8.52,0,17.68,1l0-3.92c-.73-.07-1.43-.17-2.09-.28Zm-67.27-49.2q14.69.08,21.19,1l.38,1q-6.59-.73-19.49-.79l-8.86,0a114,114,0,0,0-23.46,1.23l-8.32,20.67q-5.5,13-5.52,16.19a7.84,7.84,0,0,0,3.32,6.41,11.09,11.09,0,0,1-1.91-1.1,7.94,7.94,0,0,1-3.5-6.57q0-3.24,5.52-16.2l8.33-20.66a113.19,113.19,0,0,1,23.45-1.23l8.87,0Zm-28.31,52.58h0a191.8,191.8,0,0,0-22.28-1.67c-5.66,0-11.77.2-18.28.65v1.4q11-.84,20.38-.79a189.31,189.31,0,0,1,22.26,1.67l0-3.69-2.08-.35v2.78ZM325.59,21.87h0A126.18,126.18,0,0,1,327,36.43c0,1-.37,1.5-1.07,1.61a5.66,5.66,0,0,0,.51,1c.19.23.61.34,1.29.34.89,0,1.34-.55,1.35-1.67a126.47,126.47,0,0,0-1.44-14.55,127.58,127.58,0,0,1-1.45-13.88c0-2.84-.51-4.26-1.55-4.27a2.09,2.09,0,0,0-.79.34A11.06,11.06,0,0,1,324.14,8a130.42,130.42,0,0,0,1.45,13.89ZM855.15,138a164.56,164.56,0,0,0,3.8-18h2.29a169.27,169.27,0,0,1-4,19.28,86.09,86.09,0,0,1-5.55,14.58c-2.47-.24-5.82-.42-10.07-.55s-10.23-.22-17.9-.26q-6.94,0-14.89-.29c-5.3-.18-7.57-.26-6.82-.26-4.86,0-10.5,0-17,.09s-14.23.25-23.33.51-15.78.48-20,.68l.09-1.36c4.24-.17,10.17-.37,17.87-.58q13.65-.39,23.34-.51t16.95-.08q-1.12,0,6.83.25t14.88.29q11.52.06,17.9.25c4.25.13,7.61.33,10.08.56A85.86,85.86,0,0,0,855.15,138ZM340.35,82.26l0-2.83,2.08-.17,0,4.26a32.29,32.29,0,0,0-5.55,2.16,5.89,5.89,0,0,0-2.08,3,13.74,13.74,0,0,0-.75,3.91c-.12,1.63-.22,4.1-.31,7.37s-.16,9.42-.2,18.43c0,6.62.09,11.36.38,14.19a15.88,15.88,0,0,0,1.37,5.87,14.33,14.33,0,0,0,3.17,3.53l-1.13,2.57q-1.8.1-15.58,2.84-9.18,1.62-17.57,2.66t-13.43,1.27q-5.06.25-11.87.22-20.72-.09-36-6.54a78.45,78.45,0,0,1-11.54-6,80.47,80.47,0,0,0,9.47,4.75q15.29,6.47,36,6.55,6.82,0,11.86-.22c3.37-.17,7.84-.6,13.44-1.28s11.45-1.57,17.58-2.66q13.77-2.73,15.57-2.83l1.14-2.57a14.2,14.2,0,0,1-3.18-3.53,15.93,15.93,0,0,1-1.37-5.87q-.43-4.26-.39-14.19c.05-9,.11-15.15.2-18.43s.21-5.73.32-7.37a13.74,13.74,0,0,1,.75-3.91,6,6,0,0,1,2.08-3.06,33.1,33.1,0,0,1,5.55-2.15Zm-92,53.13a65,65,0,0,1-16.95-14.76,77.12,77.12,0,0,1-13-23,70.3,70.3,0,0,1-4.2-23.68A69.82,69.82,0,0,1,222,42.47,61.71,61.71,0,0,1,244.09,18Q258.43,8.69,277,8.77c12,.05,21.65,2.51,29,7.31-7.06-4-16-6-26.92-6.06q-18.57-.09-32.94,9.19a61.83,61.83,0,0,0-22,24.52,68.18,68.18,0,0,0-3.56,55.15,77.15,77.15,0,0,0,13,23,64.88,64.88,0,0,0,14.86,13.5Zm140.7,14.81h0a191.5,191.5,0,0,0-22.26-1.67c-5.67,0-11.78.2-18.3.65v1.4q11-.84,20.38-.79a189.31,189.31,0,0,1,22.26,1.67v-3.69l-2.08-.35v2.78Zm95.57-.44h0c-6.11-.62-12-1-17.68-1-4.48,0-8.63.07-12.48.28s-6.89.39-9.12.57l-3,.22v1.4c1.12-.07,2.8-.18,5-.36s5.28-.37,9.12-.57,8-.3,12.48-.28q8.51,0,17.68,1l0-3.92c-.73-.07-1.43-.16-2.09-.28v2.94ZM417.4,97.62q14.69.07,21.19,1l.37,1q-6.58-.73-19.49-.79l-8.86,0a113.89,113.89,0,0,0-23.45,1.23l-8.32,20.67q-5.49,13-5.51,16.19a7.79,7.79,0,0,0,3.32,6.41,11.91,11.91,0,0,1-1.91-1.1,8,8,0,0,1-3.5-6.57q0-3.24,5.53-16.2l8.31-20.66a113.25,113.25,0,0,1,23.46-1.23l8.86,0Z"/>
            <path class="cls-1"
                  d="M10.13,35.55a12.8,12.8,0,0,0-3.81-.83v1.15a18.38,18.38,0,0,1,5.23.8,3.77,3.77,0,0,0-1.41-1.12Zm98,44.94h0L116,60.61c.7-1.64,1.35-3.24,2-4.81.47-1.17,1-2.47,1.63-3.85-.5-1.12-.92-2-1.24-2.64q-1.31,2.85-2.24,5.22c-.63,1.57-1.29,3.18-2,4.81l-7.83,19.88c-1.06,2.82-1.77,4.6-2.14,5.32.74.12,1.51.22,2.29.32.4-1,1-2.39,1.71-4.37Zm34,3.75h0q5.46,14.48,8.26,21.36a52.32,52.32,0,0,0,4.91,9.84,6,6,0,0,0,2.5,1.93,5.59,5.59,0,0,1-.64-.65,53.33,53.33,0,0,1-4.92-9.85Q149.44,100,144,85.51L129.8,46.92q-2.51-7-4.58-14.59l-1.45.08c1.27,4.59,2.65,9,4.18,13.24l14.17,38.59ZM24.26,114.53h0a5.06,5.06,0,0,0,1.51.77,11.37,11.37,0,0,1-1-4.15,110.6,110.6,0,0,1-.35-11.43c0-5.64.09-11.36.21-17.1s.29-12.15.51-19.22q.24-9.45.54-15.46c.21-4,.51-6.53.93-7.52a5.2,5.2,0,0,1,3.37-3A35.69,35.69,0,0,1,37,36.29l.14-2.67c-.51,0-1.17.07-1.93.1L35.18,35a35,35,0,0,0-7,1.09,5.25,5.25,0,0,0-3.38,3q-.62,1.5-.92,7.52t-.56,15.47Q23,72.72,22.78,81.35c-.13,5.74-.19,11.45-.22,17.11,0,5.14.09,9,.35,11.43s.71,4,1.35,4.64Zm97.19-25.46a106.9,106.9,0,0,1,13,.61l.4,1.12c-2.67-.27-6.46-.42-11.5-.45l-5.43,0a68.78,68.78,0,0,0-14.33.74L98.47,103.7q-3.37,7.92-3.38,9.91a4.62,4.62,0,0,0,1.52,3.44,7,7,0,0,1-1.24-.7,4.81,4.81,0,0,1-2.13-4q0-2,3.37-9.91l5.09-12.62A68.62,68.62,0,0,1,116,89.05l5.42,0ZM72.17,111.14c.82-3.13,1.38-5.57,1.7-7.39l2,.26q-.42,2.8-1.88,8.4a77.76,77.76,0,0,1-3.4,10.18,86.82,86.82,0,0,0-9.37-.73l-3.94-.12-4.21,0-48-.23L5,120.19l46.26.22,4.21,0,3.92.13a86.61,86.61,0,0,1,9.38.73,74.89,74.89,0,0,0,3.4-10.18Zm90.41,8.38h0v1.42c-3.73-.37-7.34-.58-10.81-.59q-4.09,0-7.62.16c-2.35.14-4.21.25-5.58.35l-1.22.1v1.41l3.08-.23c1.37-.11,3.23-.22,5.58-.36s4.89-.17,7.63-.16c3.46,0,7.07.21,10.8.6l0-2.4a18.57,18.57,0,0,1-1.86-.3Zm-58.44,1.69h0a118.84,118.84,0,0,0-13.61-1c-3.28,0-6.85.13-10.59.39V122c4.46-.33,8.62-.51,12.44-.49a116.57,116.57,0,0,1,13.61,1v-2.26c-.67-.1-1.24-.22-1.85-.33Z"/>
            <path class="cls-1"
                  d="M530.61,140.57a8.25,8.25,0,0,0,2.49,1.26c-1-1-1.77-3.59-2.19-7.61a182.72,182.72,0,0,1-.59-18.69q.06-13.87.36-28t.82-31.44q.42-15.45.91-25.29t1.51-12.3a8.56,8.56,0,0,1,5.51-5A60.15,60.15,0,0,1,551,11.77l.25-4.36c-.71,0-1.6.09-2.58.13l-.17,3a59.49,59.49,0,0,0-11.54,1.79,8.56,8.56,0,0,0-5.51,5c-.67,1.64-1.18,5.73-1.51,12.3s-.63,15-.9,25.29q-.53,17.33-.82,31.44t-.35,28c-.05,8.44.15,14.66.57,18.7s1.16,6.57,2.21,7.61ZM611.9,122.2l2.66.33q-.69,4.59-3.09,13.75a120.65,120.65,0,0,1-5.56,16.65,142.08,142.08,0,0,0-15.33-1.19c-2.31-.08-4.46-.16-6.43-.2s-4.27-.08-6.88-.09l-78.57-.37-.07-1.25,76.14.36c2.6,0,4.91,0,6.88.09s4.12.11,6.43.2a141.62,141.62,0,0,1,15.33,1.18A121.85,121.85,0,0,0,609,135c1.46-5.56,2.41-9.78,2.93-12.82ZM507.5,11.38h0A21.91,21.91,0,0,0,500.73,10v1.09a31.73,31.73,0,0,1,8.17,1.17A5.7,5.7,0,0,0,507.5,11.38Z"/>
            <path class="cls-1"
                  d="M652.56,141.15a8.32,8.32,0,0,0,2.5,1.26c-1-1-1.78-3.58-2.2-7.61a185.72,185.72,0,0,1-.59-18.69q.08-13.87.37-28t.82-31.44q.4-15.45.9-25.28t1.51-12.31a8.57,8.57,0,0,1,5.51-5,59.21,59.21,0,0,1,11.53-1.8L673.16,8c-.71,0-1.6.09-2.58.13l-.16,3a59.35,59.35,0,0,0-11.54,1.79,8.52,8.52,0,0,0-5.5,5q-1,2.46-1.52,12.3T651,55.43q-.51,17.34-.82,31.44t-.35,28a186.55,186.55,0,0,0,.58,18.69q.64,6,2.2,7.61ZM629.45,12h0a21.79,21.79,0,0,0-6.78-1.39v1.09a32.17,32.17,0,0,1,8.17,1.17,5.7,5.7,0,0,0-1.39-.87Zm104.4,110.82,2.66.34c-.45,3-1.5,7.64-3.08,13.75a121.54,121.54,0,0,1-5.57,16.65,139.83,139.83,0,0,0-15.32-1.2c-2.32-.08-4.46-.16-6.44-.2s-4.27-.07-6.88-.09l-78.56-.37-.07-1.25,76.13.36c2.61,0,4.91,0,6.88.09s4.13.11,6.44.2a139.38,139.38,0,0,1,15.32,1.19,122.45,122.45,0,0,0,5.57-16.65c1.44-5.56,2.41-9.78,2.92-12.82Z"/>
            <path class="cls-1"
                  d="M336.21,75.48l0,4.26a32.4,32.4,0,0,0-5.54,2.14,6,6,0,0,0-2.1,3.07,13.78,13.78,0,0,0-.74,3.91c-.13,1.64-.21,4.09-.32,7.36s-.16,9.43-.2,18.43q0,9.94.39,14.19a15.88,15.88,0,0,0,1.37,5.87,14.35,14.35,0,0,0,3.17,3.54l-1.14,2.57q-1.79.1-15.56,2.83-9.19,1.64-17.58,2.66t-13.43,1.28q-5.06.25-11.87.22-20.7-.1-36-6.55A69.9,69.9,0,0,1,197,100.06a75.91,75.91,0,0,1-4.46-25.93,69.11,69.11,0,0,1,26.38-55,84.78,84.78,0,0,1,27.6-14.42A104.22,104.22,0,0,1,278.15,0,86.27,86.27,0,0,1,290,.84q5.64.81,9.9,1.79c2.82.64,4.64,1.12,5.47,1.42q4.8,2.15,6.26,2.16c4-3.34,6.25-5,6.85-5,1,0,1.55,1.42,1.54,4.26a130.23,130.23,0,0,0,1.45,13.87,123.35,123.35,0,0,1,1.43,14.56c0,1.12-.45,1.67-1.34,1.67-.68,0-1.1-.11-1.28-.34A10.77,10.77,0,0,1,319.18,33q-4.11-9.61-15.42-18.15t-30.9-8.59q-18.57-.09-32.94,9.19a61.83,61.83,0,0,0-22,24.52,69.73,69.73,0,0,0-7.76,31.46A70.5,70.5,0,0,0,214.3,95.1a77.2,77.2,0,0,0,13,23,65.07,65.07,0,0,0,21.3,17.28,60.33,60.33,0,0,0,27.66,6.52q12.76.06,21.67-3.48t11.63-6.88a9.58,9.58,0,0,0,1.58-4.92c.23-2.24.37-8,.42-17.35q.06-13.65-1-19t-5.05-7.19c-2.7-1.2-7.46-1.83-14.32-1.86a43.68,43.68,0,0,0-7.05.42l.46-4.81q15.43,0,28.71-.26C322.17,76.41,329.78,76.05,336.21,75.48Z"/>
            <path class="cls-1"
                  d="M436.18,147.47l0-3.69a32.91,32.91,0,0,0,8.24-2.32,5,5,0,0,0,3.1-4.9,33.43,33.43,0,0,0-2-9.41q-2-6.16-3-8.52L434.42,96.1q-6.5-.93-21.19-1l-8.86,0a113.85,113.85,0,0,0-23.45,1.23L372.61,117q-5.5,12.95-5.52,16.19a7.88,7.88,0,0,0,3.49,6.56c2.35,1.77,7.12,3.19,14.36,4.27l0,3.7A191.19,191.19,0,0,0,362.66,146q-9.41,0-20.38.79l0-3.25q6.74-1.63,10.32-5.2,2.7-2.34,7.16-11.1t9.06-19.11q4.57-10.32,6.63-16.13L393.6,49.23c2.27-5.14,4.58-10.5,7-16.13s4.63-11.26,6.73-16.92S411,6,412,2.54a2.87,2.87,0,0,1,.68-2.13l3.71-.2q3.4,12.43,7.49,23.88L447,87.2q9,23.67,13.53,34.93t8,16.1q2.9,4.16,11.93,5.09l0,3.92q-9.15-.94-17.67-1-6.72,0-12.48.28c-3.85.21-6.89.39-9.12.58s-3.92.3-5,.36Zm-34.94-101h0L388.45,79q-2.61,6.93-3.5,8.71a125.92,125.92,0,0,0,19.55,1.44L414.78,89q9.29,0,16.66-.37-3.85-11.43-5-13.56l-8-20.63c-.88-2.25-2.56-6.31-5-12.23s-4.26-9.94-5.36-12.1q-2.14,4.68-3.68,8.54C403.45,41.17,402.38,43.79,401.24,46.47Z"/>
            <path class="cls-1"
                  d="M851.54,116.22H855a169.72,169.72,0,0,1-4,19.29,86,86,0,0,1-5.55,14.57c-2.46-.23-5.81-.41-10.07-.54s-10.22-.23-17.9-.26q-6.94,0-14.88-.29c-5.31-.18-7.58-.26-6.83-.26q-7.29,0-17,.09t-23.32.5q-13.68.39-20,.69l.23-3.81c2.34-.51,4.71-1.08,7.11-1.69a13.11,13.11,0,0,0,4.92-2.05,6.32,6.32,0,0,0,1.87-2.73,34.61,34.61,0,0,0,1.16-5.87q.69-4.26,1.35-15.38t1.14-25c.3-9.24.42-15,.36-17.34L753,40.55q-.26-16.57-1.18-22.4c-.61-3.88-1.81-6.45-3.59-7.73S743,8,738,7a15.16,15.16,0,0,1,.24-2.91L810,4.44q12.09.06,36.48-.71-.6,9.62-2.1,19.23c-1,6.41-2.24,9.61-3.74,9.6q-2.79,0-2.79-1.68c0-.45.15-1.87.47-4.25s.46-3.76.46-4.15q0-8.16-9.74-10.45A106.59,106.59,0,0,0,805.6,9.68a276.86,276.86,0,0,0-34.37,2.08A301.49,301.49,0,0,0,769.06,43q0,8.28,0,19c0,7.16.06,10.53.06,10.08q2.7.24,16.45.3,23.73.12,32.57-.75A25.27,25.27,0,0,0,825,70.31c1.16-.51,2.27-1.83,3.32-3.94a65,65,0,0,0,3.52-9.79l3.24.24q-.06,11.66-.16,20.82t-.26,21l-3.91,0c-.2-6.86-1.21-11.65-3-14.34s-5.34-4.43-10.55-5.2-14.5-1.18-27.85-1.25a140.84,140.84,0,0,0-20.16,1l-.52,15.89q-.93,29.1,1.8,44.89c1.33.38,2.94.8,4.8,1.25s3.63.82,5.3,1.09,4.08.54,7.2.82,7,.42,11.74.44q17.53.07,27.56-2.43t15.35-8.22Q847.68,127,851.54,116.22Z"/>
            <path class="cls-1"
                  d="M930.92,99.47,918.14,81.06a168.22,168.22,0,0,1-24.51-1.58l-.35,26.86q0,8.52.42,19c.29,7,1,12,2.22,14.89a6.23,6.23,0,0,0,3.06,3.81,59.86,59.86,0,0,0,9.78,3.18c1.63.39,2.45,1,2.45,1.8,0,1.65-.54,2.47-1.58,2.46-1.2,0-4.33-.39-9.39-1.16q-9.63-.95-11.75-1a166.49,166.49,0,0,0-22.39,1.45,10.85,10.85,0,0,0-1.91.22c-1.49,0-2.23-.68-2.22-2a1.9,1.9,0,0,1,.84-1.68,15.45,15.45,0,0,1,3.76-1.33q5-1.31,7.3-4t3.29-10.73a243.43,243.43,0,0,0,1.25-25.68l.23-49.46Q879,38,878.6,29.5T876.81,17a8.65,8.65,0,0,0-4.45-5.33,35.43,35.43,0,0,0-9.51-2.17l.48-3.69c3.95.17,9,.27,15.09.29q2.7,0,19.55-1.31t21.32-1.29a64.38,64.38,0,0,1,21.13,3.34,48.49,48.49,0,0,1,15.69,8.7,36.44,36.44,0,0,1,9.51,12.29A33,33,0,0,1,968.8,42a33.57,33.57,0,0,1-3.44,14.53,38.43,38.43,0,0,1-10.24,12.77A59.4,59.4,0,0,1,937.51,79l5,7.64q10.47,15.95,17.37,25.77a234.61,234.61,0,0,0,14.86,18.93A87.57,87.57,0,0,0,991,146.15q8.29,5.68,16.23,6.4c1.41.23,2.12,1,2.11,2.24a1.61,1.61,0,0,1-1,1.51c-.67.33-2.27.49-4.81.48a48.49,48.49,0,0,1-20.91-4.86A80.73,80.73,0,0,1,963.51,139a137.27,137.27,0,0,1-16-17q-7-8.88-16.57-22.58ZM894.34,73h0a78.71,78.71,0,0,0,18.11,1.88,87.85,87.85,0,0,0,11.37-.73,47.15,47.15,0,0,0,12.33-3.4,26,26,0,0,0,11-9q4.62-6.36,4.67-17.07a37.16,37.16,0,0,0-3.89-15.94,37.56,37.56,0,0,0-12.19-14.36q-8.27-6-20.12-6.07a55.71,55.71,0,0,0-11.14,1.22c-4.14.84-6.56,2.19-7.23,4.05Q894.59,19,894.34,73Z"/>
            <path class="cls-1"
                  d="M1015.55,9.56l0-4.8q12.64.72,15.77,1c7.61.34,12.71.51,15.33.53q1.35,0,11.64-.4c6.87-.26,13.32-.54,19.37-.8l0,5.26c-6.58,0-11.05.3-13.44,1a8.87,8.87,0,0,0-5.4,4.18q-3.73,7-3.94,53.85-.15,32.25-.14,40.82t.3,18.32q.18,7.83,1.18,11.09t5.46,4.89q4.47,1.66,14.43,1.81l-.47,4.25q-1.58,0-6.2-.19t-9.63-.33l-7.67-.2q-2.69-.08-6.15-.09c-3.3,0-6,0-8.23,0s-5.13.07-8.78.13-7,.13-9.91.23-4.72.14-5.32.13l-.2-4.25q12.09-.61,16.35-2.72a11.25,11.25,0,0,0,5.85-6.78q2.26-6,3-22.86t.78-35.5q.07-16.87-.89-48.53c-.2-5.82-.75-10-1.67-12.48s-3-4.36-6.24-5.57S1022.41,9.67,1015.55,9.56Z"/>
            <path class="cls-1"
                  d="M1180.14,151v-3.69a33,33,0,0,0,8.25-2.32,5,5,0,0,0,3.1-4.9,33.34,33.34,0,0,0-2-9.41q-2-6.16-3-8.52l-8.16-22.53q-6.5-.93-21.2-1l-8.86,0a114,114,0,0,0-23.46,1.23l-8.31,20.67Q1111,133.45,1111,136.7a7.88,7.88,0,0,0,3.51,6.56q3.49,2.66,14.35,4.27v3.7a191.49,191.49,0,0,0-22.27-1.67q-9.39,0-20.37.79l0-3.25q6.72-1.64,10.31-5.2c1.81-1.56,4.18-5.26,7.17-11.11s6-12.2,9-19.1,5.27-12.25,6.63-16.13l18.13-42.78c2.27-5.14,4.6-10.5,7-16.13s4.63-11.26,6.75-16.92,3.68-10.21,4.66-13.64a2.91,2.91,0,0,1,.68-2.13l3.71-.2q3.4,12.44,7.49,23.88L1191,90.75q8.94,23.67,13.53,34.93t8,16.1q2.89,4.16,11.94,5.09l0,3.92q-9.18-.94-17.69-1-6.7,0-12.47.28c-3.84.21-6.88.39-9.12.58s-3.92.3-5,.36ZM1145.2,50h0l-12.8,32.51c-1.73,4.62-2.91,7.52-3.51,8.71a126.19,126.19,0,0,0,19.57,1.44l10.29-.18q9.27,0,16.66-.37-3.87-11.43-5-13.56l-8-20.63c-.89-2.25-2.56-6.31-5-12.23s-4.24-9.94-5.35-12.1q-2.14,4.68-3.68,8.54C1147.41,44.72,1146.34,47.34,1145.2,50Z"/>
            <path class="cls-1"
                  d="M1.35,33.34l0-2.39c5.74.07,9.51.14,11.3.19s3.25.11,4.43.17c7.67,0,12.7,0,15.12-.21l-.14,2.66a37.42,37.42,0,0,0-7,1.1,5.25,5.25,0,0,0-3.37,3c-.41,1-.72,3.5-.92,7.52s-.39,9.16-.56,15.47q-.33,10.6-.5,19.21T19.46,97.2c0,5.15.1,9,.35,11.43s.72,4,1.35,4.65A8.72,8.72,0,0,0,25,114.6a96.68,96.68,0,0,0,11.52.47,71.19,71.19,0,0,0,16.25-1.5,42.88,42.88,0,0,0,9.84-3.3c2.92-1.77,5-4.79,6-9.07l2.28.28c-.29,1.87-.93,4.67-1.9,8.4a73.09,73.09,0,0,1-3.4,10.18,86.18,86.18,0,0,0-9.37-.72l-3.93-.13-4.21,0-48-.23L0,116.81a23.47,23.47,0,0,0,5.86-1.76,5.91,5.91,0,0,0,2.76-3.3,24.32,24.32,0,0,0,1.22-7.07c.21-3.14.31-7.69.34-13.61L10.47,61q.18-10.2.08-15.45a31.88,31.88,0,0,0-.92-7.85A5.09,5.09,0,0,0,7,34.3,16.57,16.57,0,0,0,1.35,33.34Z"/>
            <path class="cls-1"
                  d="M132.38,119.84v-2.26a19.82,19.82,0,0,0,5-1.41,3.07,3.07,0,0,0,1.89-3,20.68,20.68,0,0,0-1.19-5.76c-.81-2.51-1.42-4.26-1.83-5.2l-5-13.78a106.77,106.77,0,0,0-13-.61l-5.41,0a69.61,69.61,0,0,0-14.35.75l-5.08,12.63q-3.36,7.92-3.37,9.91a4.81,4.81,0,0,0,2.14,4q2.14,1.62,8.78,2.6V120a114.3,114.3,0,0,0-13.61-1q-5.75,0-12.46.49v-2a13.2,13.2,0,0,0,6.3-3.19c1.11-.94,2.57-3.21,4.39-6.78S89.34,100,91.21,95.8s3.22-7.5,4.05-9.87l11.09-26.15q2.07-4.71,4.26-9.87t4.12-10.35c1.3-3.45,2.24-6.23,2.86-8.33a1.71,1.71,0,0,1,.42-1.3l2.26-.13q2.08,7.62,4.57,14.6L139,83q5.48,14.48,8.28,21.35a51.19,51.19,0,0,0,4.9,9.84q1.77,2.55,7.3,3.11v2.4c-3.75-.38-7.34-.58-10.81-.59q-4.11,0-7.63.16c-2.35.14-4.2.24-5.57.35s-2.4.19-3.09.23ZM111,58.09h0L103.2,78q-1.59,4.23-2.14,5.33a76.4,76.4,0,0,0,12,.87l6.29-.1c3.79,0,7.18,0,10.18-.23a87.3,87.3,0,0,0-3-8.28l-4.86-12.62c-.54-1.38-1.56-3.86-3.07-7.48s-2.6-6.08-3.27-7.4q-1.32,2.88-2.25,5.23C112.37,54.85,111.72,56.45,111,58.09Z"/>
            <path class="cls-1"
                  d="M494.06,7.3l0-3.92c9.4.13,15.55.22,18.46.32s5.33.17,7.27.25q18.8.09,24.74-.33L544.3,8a59.77,59.77,0,0,0-11.54,1.78,8.57,8.57,0,0,0-5.5,5c-.68,1.65-1.18,5.74-1.52,12.31s-.63,15-.91,25.29q-.51,17.34-.81,31.43t-.36,28q-.06,12.65.58,18.7c.43,4,1.16,6.57,2.21,7.62,1.26,1,3.37,1.69,6.31,2.15s9.23.72,18.86.76q15.89.08,26.59-2.45t16.08-5.4q7.19-4.34,9.92-14.84l3.69.47q-.71,4.59-3.09,13.75a122.94,122.94,0,0,1-5.56,16.65A137.07,137.07,0,0,0,583.92,148c-2.31-.09-4.46-.15-6.43-.2s-4.27-.08-6.89-.09L492,147.29l-.21-3.46A38.59,38.59,0,0,0,501.4,141a9.79,9.79,0,0,0,4.54-5.4q1.5-3.86,2-11.57t.55-22.27L509,52.47q.3-16.66.12-25.29c-.13-5.74-.62-10-1.5-12.82s-2.3-4.64-4.24-5.51S498.31,7.47,494.06,7.3Z"/>
            <path class="cls-1"
                  d="M616,7.88,616,4c9.39.13,15.55.22,18.46.32s5.34.17,7.27.25q18.81.09,24.73-.33l-.24,4.37a58.46,58.46,0,0,0-11.53,1.79,8.51,8.51,0,0,0-5.51,5c-.68,1.64-1.18,5.73-1.51,12.3s-.63,15-.9,25.29q-.54,17.34-.83,31.44t-.35,28a180.71,180.71,0,0,0,.58,18.7q.64,6,2.2,7.62,1.89,1.46,6.3,2.16t18.87.75c10.58,0,19.46-.76,26.59-2.44s12.49-3.48,16.08-5.41q7.18-4.33,9.92-14.84l3.69.47q-.69,4.59-3.09,13.75a121.56,121.56,0,0,1-5.56,16.65,139.38,139.38,0,0,0-15.32-1.19c-2.32-.09-4.47-.15-6.44-.2s-4.27-.08-6.88-.09L614,147.88l-.19-3.47a38.91,38.91,0,0,0,9.56-2.88,9.8,9.8,0,0,0,4.52-5.4c1-2.57,1.69-6.42,2-11.57s.51-12.57.55-22.27l.47-49.24q.3-16.66.12-25.29t-1.51-12.82c-.88-2.81-2.29-4.64-4.23-5.51S620.26,8.05,616,7.88Z"/>
            <path class="cls-1"
                  d="M210.11,71.41A69.73,69.73,0,0,1,217.87,40a61.83,61.83,0,0,1,22-24.52q14.37-9.27,32.94-9.19,19.06.09,30.3,8.15c1,.52,1.94,1.09,2.86,1.69-.65-.37-1.32-.71-2-1q11.1,8.43,15.16,17.95a10.77,10.77,0,0,0,1.06,2.25c.18.23.6.34,1.28.34.89,0,1.34-.55,1.34-1.67a123.35,123.35,0,0,0-1.43-14.56A130.23,130.23,0,0,1,320,5.47c0-2.84-.5-4.26-1.54-4.26-.6,0-2.89,1.66-6.85,5q-1.45,0-6.26-2.16c-.83-.3-2.65-.78-5.47-1.42S293.72,1.38,290,.84A86.27,86.27,0,0,0,278.15,0a104.22,104.22,0,0,0-31.64,4.72,84.78,84.78,0,0,0-27.6,14.42,69.11,69.11,0,0,0-26.38,55A75.91,75.91,0,0,0,197,100.06a69.9,69.9,0,0,0,39.65,41.2q15.29,6.45,36,6.55,6.83,0,11.87-.22t13.43-1.28q8.38-1,17.58-2.66,13.77-2.73,15.56-2.83l1.14-2.57a14.35,14.35,0,0,1-3.17-3.54,15.88,15.88,0,0,1-1.37-5.87q-.44-4.25-.39-14.19.06-13.5.2-18.43c.11-3.27.19-5.72.32-7.36a13.78,13.78,0,0,1,.74-3.91,6,6,0,0,1,2.1-3.07,32.4,32.4,0,0,1,5.54-2.14l0-4.26c-6.43.57-14,.93-22.89,1.07s-18.42.23-28.71.26l-.46,4.81a43.68,43.68,0,0,1,7.05-.42c6.86,0,11.62.66,14.32,1.86a8.24,8.24,0,0,1,2.78,2.06c.23.28.44.56.65.87a11.88,11.88,0,0,1,1.62,4.26q1,5.37,1,19c-.05,9.34-.19,15.11-.42,17.35a9.58,9.58,0,0,1-1.58,4.92q-2.71,3.35-11.63,6.88t-21.67,3.48a60.33,60.33,0,0,1-27.66-6.52c-.3-.14-.59-.3-.89-.45l.7.46-1.07-.66a65.1,65.1,0,0,1-20-16.63,77.2,77.2,0,0,1-13-23A70.5,70.5,0,0,1,210.11,71.41Z"/>
            <path class="cls-1"
                  d="M414.78,89l-10.28.18q-6.48,0-12.08-.52l-2.49-.25c-1.73-.19-3.39-.41-5-.67q.89-1.78,3.5-8.71l12.79-32.51c1.14-2.68,2.21-5.3,3.23-7.87s2.25-5.42,3.68-8.54c.66,1.31,1.58,3.32,2.76,6,.4.93.84,1.94,1.3,3s.83,2,1.3,3.07c2.46,5.92,4.14,10,5,12.23l8,20.63q1.11,2.13,5,13.56-7.38.42-16.66.37ZM393.6,49.23,375.47,92q-2.06,5.82-6.63,16.13t-9.06,19.11q-4.45,8.76-7.16,11.1-3.58,3.56-10.32,5.2l0,3.25q11-.84,20.38-.79a191.19,191.19,0,0,1,22.26,1.67l0-3.7a64.31,64.31,0,0,1-9.85-2.13c-.5-.17-1-.33-1.4-.5a12.91,12.91,0,0,1-3.11-1.64,7.88,7.88,0,0,1-3.49-6.56q0-3.24,5.52-16.19l8.31-20.67a113.85,113.85,0,0,1,23.45-1.23l8.86,0q14.7.08,21.19,1l.78,2.14.41,1.13,7,19.26q1,2.36,3,8.52a33.43,33.43,0,0,1,2,9.41,5,5,0,0,1-3.1,4.9,32.91,32.91,0,0,1-8.24,2.32l0,3.69,5-.36c2.23-.19,5.27-.37,9.12-.58s8-.3,12.48-.28q8.51,0,17.67,1l0-3.92a32,32,0,0,1-5.33-1c-.53-.15-1-.31-1.5-.49a10.51,10.51,0,0,1-5.1-3.62q-3.43-4.83-8-16.1T447,87.2L423.85,24.09Q419.77,12.65,416.36.21l-3.71.2A2.87,2.87,0,0,0,412,2.54q-1.49,5.15-4.67,13.64c-2.1,5.66-4.36,11.29-6.73,16.92S395.87,44.09,393.6,49.23Z"/>
            <path class="cls-1"
                  d="M507.94,124q-.49,7.72-2,11.57a9.79,9.79,0,0,1-4.54,5.4,38.59,38.59,0,0,1-9.57,2.88l.21,3.46,78.56.38c2.62,0,4.91,0,6.89.09l6.43.2a137.07,137.07,0,0,1,15.33,1.19,122.94,122.94,0,0,0,5.56-16.65q2.38-9.16,3.09-13.75l-3.69-.47q-2.75,10.52-9.92,14.84-5.38,2.9-16.08,5.4T551.62,141q-14.45-.06-18.86-.76l-.67-.11c-.78-.14-1.49-.3-2.15-.48a10,10,0,0,1-3.49-1.56c-1.05-1.05-1.78-3.59-2.21-7.62s-.62-10.27-.58-18.7q.06-13.87.36-28t.81-31.43q.42-15.45.91-25.29c.34-6.57.84-10.66,1.52-12.31a8.57,8.57,0,0,1,5.5-5A59.77,59.77,0,0,1,544.3,8l.25-4.37Q538.61,4,519.81,4l-7.27-.25c-2.91-.1-9.06-.19-18.46-.32l0,3.92q6.38.25,9.27,1.55a6.29,6.29,0,0,1,2.44,1.93c.2.27.4.55.59.86a12.66,12.66,0,0,1,1.21,2.72c.88,2.8,1.37,7.08,1.5,12.82s.08,14.18-.12,25.29l-.46,49.24Q508.42,116.26,507.94,124Z"/>
            <path class="cls-1"
                  d="M118.35,87.82a106.77,106.77,0,0,1,13,.61l.35,1,.43,1.18,4.21,11.63c.41.94,1,2.69,1.83,5.2a20.68,20.68,0,0,1,1.19,5.76,3.07,3.07,0,0,1-1.89,3,19.82,19.82,0,0,1-5,1.41v2.26l3.09-.23,5.57-.35q3.53-.2,7.63-.16c3.47,0,7.06.21,10.81.59v-2.4a20.11,20.11,0,0,1-2.11-.31c.12.13.27.25.41.39a10.82,10.82,0,0,1-1-.51,7.55,7.55,0,0,1-4.64-2.68,51.19,51.19,0,0,1-4.9-9.84Q144.48,97.46,139,83L124.84,44.4q-2.49-7-4.57-14.6l-2.26.13a1.71,1.71,0,0,0-.42,1.3c-.62,2.1-1.56,4.88-2.86,8.33s-2.67,6.92-4.12,10.35-2.88,6.73-4.26,9.87L95.26,85.93Q94,89.48,91.21,95.8c-1.87,4.2-3.72,8.1-5.53,11.67s-3.28,5.84-4.39,6.78a13.2,13.2,0,0,1-6.3,3.19v2q6.7-.51,12.46-.49a114.3,114.3,0,0,1,13.61,1V117.7a45.35,45.35,0,0,1-4.71-.92,1.63,1.63,0,0,0,.26.27,8.6,8.6,0,0,1-.81-.42,10.8,10.8,0,0,1-3.52-1.53,4.81,4.81,0,0,1-2.14-4q0-2,3.37-9.91l5.08-12.63a69.61,69.61,0,0,1,14.35-.75l5.41,0Zm1-3.76-6.29.1c-2.19,0-4.25-.08-6.2-.22-.78-.06-1.54-.12-2.29-.2-1.21-.12-2.36-.27-3.46-.45q.56-1.1,2.14-5.33L111,58.09l2-4.81q.93-2.36,2.25-5.23c.43.86,1,2.21,1.85,4.05.37.84.76,1.79,1.2,2.84l.22.51c1.51,3.62,2.53,6.1,3.07,7.48l4.86,12.62a87.3,87.3,0,0,1,3,8.28C126.48,84,123.09,84.08,119.3,84.06Z"/>
            <path class="cls-1"
                  d="M878.64,56.14l-.23,49.46a243.43,243.43,0,0,1-1.25,25.68q-1,8-3.29,10.73t-7.3,4a15.45,15.45,0,0,0-3.76,1.33,1.9,1.9,0,0,0-.84,1.68c0,1.34.73,2,2.22,2a10.85,10.85,0,0,1,1.91-.22,166.49,166.49,0,0,1,22.39-1.45q2.13,0,11.75,1c5.06.77,8.19,1.15,9.39,1.16,1,0,1.57-.81,1.58-2.46,0-.81-.82-1.41-2.45-1.8-2.31-.61-4.23-1.17-5.79-1.66l-.38-.13a24.9,24.9,0,0,1-3.61-1.39,6.23,6.23,0,0,1-3.06-3.81c-1.18-2.92-1.93-7.89-2.22-14.89s-.45-13.36-.42-19l.35-26.86a168.22,168.22,0,0,0,24.51,1.58l1.73,2.5.86,1.23,10.19,14.68q9.55,13.69,16.57,22.58a137.27,137.27,0,0,0,16,17,80.73,80.73,0,0,0,19.08,12.9,48.49,48.49,0,0,0,20.91,4.86c2.54,0,4.14-.15,4.81-.48a1.61,1.61,0,0,0,1-1.51c0-1.26-.7-2-2.11-2.24a30.36,30.36,0,0,1-10.54-3.07c-.43-.21-.88-.43-1.32-.67a43,43,0,0,1-4.37-2.66,87.57,87.57,0,0,1-16.24-14.79,234.61,234.61,0,0,1-14.86-18.93q-6.9-9.84-17.37-25.77l-5-7.64a59.4,59.4,0,0,0,17.61-9.7,38.43,38.43,0,0,0,10.24-12.77A33.57,33.57,0,0,0,968.8,42a33,33,0,0,0-3.18-14.18,36.44,36.44,0,0,0-9.51-12.29,48.49,48.49,0,0,0-15.69-8.7,64.38,64.38,0,0,0-21.13-3.34q-4.49,0-21.32,1.29T878.42,6.11c-6.12,0-11.14-.12-15.09-.29l-.48,3.69a35.43,35.43,0,0,1,9.51,2.17,7.19,7.19,0,0,1,2.53,1.91,6.92,6.92,0,0,1,.65.86A12.47,12.47,0,0,1,876.81,17q1.44,4,1.79,12.49t0,26.64Zm33.81,18.74a94.58,94.58,0,0,1-11.86-.74c-.71-.08-1.4-.19-2.08-.3-1.46-.24-2.86-.52-4.17-.84q.25-54,2.86-59.42c.67-1.86,3.09-3.21,7.23-4.05a55.71,55.71,0,0,1,11.14-1.22q11.86.06,20.12,6.07l0,0c.36.27.72.53,1.07.81a37.08,37.08,0,0,1,11.09,13.53,37.16,37.16,0,0,1,3.89,15.94q-.06,10.71-4.67,17.07a26,26,0,0,1-11,9,47.15,47.15,0,0,1-12.33,3.4A87.85,87.85,0,0,1,912.45,74.88Z"/>
            <path class="cls-1"
                  d="M768.6,94.78l.52-15.89a140.84,140.84,0,0,1,20.16-1q20,.1,27.85,1.25c4.39.65,7.58,2,9.56,4a8,8,0,0,1,.67.77,4.48,4.48,0,0,1,.32.44c1.81,2.69,2.82,7.48,3,14.34l3.91,0,.26-21L835,56.82l-3.24-.24a65,65,0,0,1-3.52,9.79c-1,2.11-2.16,3.43-3.32,3.94a25.27,25.27,0,0,1-6.78,1.31q-8.85.87-32.57.75c-4.18,0-7.58-.05-10.23-.09-.76,0-1.45,0-2.07,0-2,0-3.4-.11-4.15-.17,0,.45,0-2.92-.06-10.08s-.05-13.5,0-19a301.49,301.49,0,0,1,2.17-31.21A276.86,276.86,0,0,1,805.6,9.68,106.59,106.59,0,0,1,829,12a14.65,14.65,0,0,1,7,3.43,9.2,9.2,0,0,1,.67.72,9.45,9.45,0,0,1,2.06,6.3c0,.39-.16,1.75-.46,4.15s-.46,3.8-.47,4.25q0,1.67,2.79,1.68c1.5,0,2.73-3.19,3.74-9.6s1.7-12.82,2.1-19.23q-24.4.77-36.48.71L738.26,4.1A15.16,15.16,0,0,0,738,7q7.49,1.49,10.17,3.41a5.86,5.86,0,0,1,1.07,1,7,7,0,0,1,.53.74,15.49,15.49,0,0,1,2,6q.93,5.84,1.18,22.4l.62,35.58c.06,2.31-.06,8.1-.36,17.34s-.68,17.59-1.14,25-.89,12.54-1.35,15.38a34.61,34.61,0,0,1-1.16,5.87,6.32,6.32,0,0,1-1.87,2.73,13.11,13.11,0,0,1-4.92,2.05c-2.4.61-4.77,1.18-7.11,1.69l-.23,3.81q6.38-.3,20-.69t23.32-.5q9.68-.12,17-.09c-.75,0,1.52.08,6.83.26s10.25.27,14.88.29q11.52,0,17.9.26c4.26.13,7.61.31,10.07.54A86,86,0,0,0,851,135.52a169.72,169.72,0,0,0,4-19.29h-3.47q-3.87,10.73-9.19,16.4T827,140.84q-10,2.52-27.56,2.43-7,0-11.74-.44t-7.2-.82c-1.34-.22-2.74-.49-4.21-.83-.36-.09-.73-.16-1.09-.26l-.88-.22c-1.49-.37-2.8-.71-3.92-1Q767.69,123.87,768.6,94.78Z"/>
            <path class="cls-1"
                  d="M645.62,112.32q.06-13.86.35-28t.83-31.44q.41-15.45.9-25.29c.33-6.57.83-10.66,1.51-12.3a8.51,8.51,0,0,1,5.51-5,58.46,58.46,0,0,1,11.53-1.79l.24-4.37q-5.91.43-24.73.33l-7.27-.25c-2.91-.1-9.07-.19-18.46-.32l0,3.92q6.38.26,9.28,1.55a6.48,6.48,0,0,1,2.42,1.93,8.87,8.87,0,0,1,.61.86,12.66,12.66,0,0,1,1.2,2.72q1.32,4.22,1.51,12.82t-.12,25.29l-.47,49.24q-.06,14.55-.55,22.27c-.32,5.15-1,9-2,11.57a9.8,9.8,0,0,1-4.52,5.4,38.91,38.91,0,0,1-9.56,2.88l.19,3.47,78.57.37q3.91,0,6.88.09l6.44.2a139.38,139.38,0,0,1,15.32,1.19,121.56,121.56,0,0,0,5.56-16.65q2.4-9.17,3.09-13.75l-3.69-.47q-2.73,10.52-9.92,14.84-5.38,2.9-16.08,5.41c-7.13,1.68-16,2.49-26.59,2.44q-14.45-.06-18.87-.75c-.21-.05-.44-.08-.66-.12-.77-.14-1.5-.3-2.14-.48a10,10,0,0,1-3.5-1.56q-1.56-1.57-2.2-7.62A180.71,180.71,0,0,1,645.62,112.32Z"/>
            <path class="cls-1"
                  d="M19.46,97.2q0-8.48.22-17.11t.5-19.21q.26-9.47.56-15.47c.2-4,.51-6.52.92-7.52a5.25,5.25,0,0,1,3.37-3,37.42,37.42,0,0,1,7-1.1l.14-2.66c-2.42.16-7.45.25-15.12.21l-4.43-.17C10.88,31.09,7.11,31,1.37,31l0,2.39A16.57,16.57,0,0,1,7,34.3,3.32,3.32,0,0,1,8,35a4.67,4.67,0,0,1,.9,1.13,8.25,8.25,0,0,1,.7,1.58,31.88,31.88,0,0,1,.92,7.85q.09,5.25-.08,15.45l-.29,30.11c0,5.92-.13,10.47-.34,13.61a24.32,24.32,0,0,1-1.22,7.07,5.91,5.91,0,0,1-2.76,3.3A23.47,23.47,0,0,1,0,116.81l.14,2.12,48,.23,4.21,0,3.93.13a86.18,86.18,0,0,1,9.37.72,73.09,73.09,0,0,0,3.4-10.18c1-3.73,1.61-6.53,1.9-8.4l-2.28-.28c-1.1,4.28-3.13,7.3-6,9.07a42.88,42.88,0,0,1-9.84,3.3,71.19,71.19,0,0,1-16.25,1.5c-5.43,0-9.12-.16-11.07-.4L25,114.6c-.3,0-.58-.1-.84-.14a7.59,7.59,0,0,1-3-1.18c-.63-.64-1.08-2.18-1.35-4.65S19.43,102.35,19.46,97.2Z"/>
            <path class="cls-1"
                  d="M1038.61,29.58q1,31.65.89,48.53-.09,18.67-.78,35.5t-3,22.86a11.25,11.25,0,0,1-5.85,6.78q-4.26,2.12-16.35,2.72l.2,4.25,5.32-.13q4.42-.15,9.91-.23l8.78-.13c2.21,0,4.93,0,8.23,0l6.15.09,7.67.2q5,.13,9.63.33t6.2.19l.47-4.25a58,58,0,0,1-12.78-1.29c-.48-.13-.93-.26-1.35-.41a1.82,1.82,0,0,1-.3-.11q-4.47-1.64-5.46-4.89T1055,128.48q-.29-9.75-.3-18.32t.14-40.82q.22-46.81,3.94-53.85a8.87,8.87,0,0,1,5.4-4.18c2.39-.7,6.86-1,13.44-1l0-5.26-19.37.8q-10.29.41-11.64.4c-2.62,0-7.72-.19-15.33-.53q-3.13-.24-15.77-1l0,4.8q10.29.16,15.15,2a12.07,12.07,0,0,1,4.31,2.61,8.86,8.86,0,0,1,.72.79,8.26,8.26,0,0,1,1.21,2.17C1037.86,19.61,1038.41,23.76,1038.61,29.58Z"/>
            <path class="cls-1"
                  d="M1175.41,92.13q-7.4.42-16.66.37l-10.29.18q-6.48,0-12.07-.52l-2.51-.25c-1.73-.19-3.39-.41-5-.67.6-1.19,1.78-4.09,3.51-8.71L1145.2,50c1.14-2.68,2.21-5.3,3.23-7.87s2.25-5.42,3.68-8.54c.66,1.31,1.59,3.32,2.76,6,.41.93.84,2,1.31,3l1.28,3.06c2.47,5.92,4.14,10,5,12.23l8,20.63q1.1,2.13,5,13.56Zm-37.86-39.35-18.13,42.78q-2,5.82-6.63,16.13t-9,19.1c-3,5.85-5.36,9.55-7.17,11.11q-3.6,3.56-10.31,5.2l0,3.25q11-.84,20.37-.79a191.49,191.49,0,0,1,22.27,1.67v-3.7a65,65,0,0,1-9.86-2.13c-.49-.17-1-.33-1.4-.5a12.73,12.73,0,0,1-3.09-1.64,7.88,7.88,0,0,1-3.51-6.56q0-3.24,5.53-16.19l8.31-20.67a114,114,0,0,1,23.46-1.23l8.86,0q14.7.07,21.2,1l.78,2.14.4,1.13,7,19.26q1,2.35,3,8.52a33.34,33.34,0,0,1,2,9.41,5,5,0,0,1-3.1,4.9,33,33,0,0,1-8.25,2.32V151l5-.36c2.24-.19,5.28-.37,9.12-.58s8-.3,12.47-.28q8.52,0,17.69,1l0-3.92a30.75,30.75,0,0,1-5.34-1c-.51-.15-1-.31-1.49-.49a10.45,10.45,0,0,1-5.11-3.62q-3.43-4.83-8-16.1T1191,90.75l-23.18-63.11q-4.1-11.44-7.49-23.88l-3.71.2a2.91,2.91,0,0,0-.68,2.13q-1.47,5.15-4.66,13.64t-6.75,16.92C1142.15,42.28,1139.82,47.64,1137.55,52.78Z"/>
        </g>
    </g>
</svg>
