<svg width="192" height="34" viewBox="0 0 192 34" fill="none" xmlns="http://www.w3.org/2000/svg">
<path fill-rule="evenodd" clip-rule="evenodd" d="M110.552 11.0435C110.971 8.66531 112.048 6.61721 113.783 4.89916C116.071 2.60498 119.014 1.4579 122.614 1.4579C126.213 1.4579 129.157 2.60498 131.444 4.89916C133.732 7.16392 134.876 10.0022 134.876 13.4141C134.876 16.0289 134.204 18.3154 132.861 20.2737C133.741 26.139 139.494 31.4717 142.39 33.479C138.709 33.1336 131.832 30.3278 126.131 27.6949C126.132 27.6713 126.132 27.6476 126.132 27.6238C126.132 25.1032 124.013 23.0598 121.399 23.0598C119.996 23.0598 118.736 23.6479 117.87 24.5823C116.331 24.0169 114.969 23.1472 113.783 21.9731C111.495 19.6789 110.352 16.8259 110.352 13.4141C110.352 13.3063 110.353 13.1991 110.355 13.0925C110.353 13.0159 110.352 12.9391 110.352 12.8621C110.352 12.2409 110.42 11.633 110.552 11.0435ZM119.187 21.9054C119.187 20.2137 119.358 19.0037 119.699 18.2753C120.064 17.5469 120.735 16.7951 121.709 16.0197C122.002 15.7613 122.525 15.3853 123.281 14.8919C124.036 14.3985 124.572 13.9404 124.889 13.5175C125.23 13.0945 125.401 12.5541 125.401 11.8963C125.401 11.0974 125.108 10.463 124.524 9.99312C123.939 9.49971 123.196 9.253 122.294 9.253C121.173 9.253 120.272 9.58194 119.589 10.2398C118.931 10.8742 118.602 11.7553 118.602 12.8831H112.718C112.767 10.3455 113.668 8.31318 115.423 6.78597C117.177 5.25876 119.553 4.49515 122.55 4.49515C125.279 4.49515 127.472 5.16477 129.129 6.50402C130.81 7.81978 131.651 9.5467 131.651 11.6848C131.651 12.7186 131.456 13.6349 131.066 14.4338C130.676 15.2326 130.274 15.82 129.86 16.1959C129.446 16.5719 128.897 16.9713 128.215 17.3942C127.996 17.5352 127.716 17.7114 127.374 17.9229C127.033 18.1108 126.777 18.2636 126.607 18.381L126.059 18.7335C125.839 18.8744 125.657 19.0037 125.51 19.1211C125.389 19.2386 125.267 19.3678 125.145 19.5088C124.682 20.0727 124.45 20.8716 124.45 21.9054H119.187Z" fill="#1883FF"/>
<path d="M175.828 27.7018H178.16C179.715 27.7018 180.526 27.1804 181.101 25.7464L181.439 24.8664L174.848 8.5056H178.397L183.433 21.5421L188.334 8.5056H191.951L185.089 26.0723C183.805 29.3966 182.216 30.6676 179.141 30.6676H175.828V27.7018Z" fill="white"/>
<path d="M156.664 16.7918C156.664 11.4795 159.875 8.18774 164.911 8.18774C169.778 8.18774 173.259 11.7076 173.259 16.6289V17.6392H160.145C160.382 20.9961 162.106 22.756 165.148 22.756C167.615 22.756 169.136 21.6153 169.508 19.7902H173.057C172.347 23.5056 169.643 25.4611 165.114 25.4611C159.942 25.4611 156.664 22.1368 156.664 16.7918ZM164.945 10.7299C162.207 10.7299 160.585 12.229 160.179 15.26H169.677C169.44 12.4898 167.581 10.7299 164.945 10.7299Z" fill="white"/>
<path d="M150.174 15.3216C150.174 12.3558 148.518 11.0847 145.949 11.0847C143.482 11.0847 141.623 12.7469 141.623 15.0935V25.1967H138.277V8.51003H141.623V11.0521C142.907 9.16185 145.071 8.08634 147.099 8.08634C150.817 8.08634 153.521 10.4003 153.521 14.6372V25.1967H150.174V15.3216Z" fill="white"/>
<path d="M97.0754 25.2003H93.9658L87.3073 8.02478V25.2003H83.9611V3.49461H88.8283L95.5544 20.6702L102.111 3.49461H107.114V25.2003H103.768V8.02478L97.0754 25.2003Z" fill="white"/>
<path d="M81.122 22.3613V25.1967H79.432C76.8294 25.1967 74.7001 23.8279 74.7001 20.6014V11.2151H71.6919V8.51003H74.7001V4.1754H78.0462V8.51003H81.122V11.2151H78.0462V20.1777C78.0462 21.905 78.756 22.3613 79.8038 22.3613H81.122Z" fill="white"/>
<path d="M69.2582 14.2417V25.1923H65.8782V22.3895C64.6615 24.3449 62.5321 25.5508 59.9971 25.5508C56.651 25.5508 54.2512 23.465 54.2512 20.4992C54.2512 17.6637 56.0764 15.969 59.3549 15.7734L64.0193 15.4475C65.3712 15.3498 65.8782 14.9261 65.8782 13.9157V13.8506C65.8782 12.058 64.1883 10.6566 62.0251 10.6566C59.4901 10.6566 58.1043 11.6995 57.8677 13.7854H54.3864C54.623 10.3307 57.5973 8.11451 61.9913 8.11451C66.25 8.11451 69.2582 10.6892 69.2582 14.2417ZM57.6649 20.3688C57.6649 21.9006 59.0169 22.9109 61.1125 22.9109C63.8503 22.9109 65.8782 20.9229 65.8782 18.283V17.7289L60.5379 18.0548C58.6451 18.1852 57.6649 18.9674 57.6649 20.3688Z" fill="white"/>
<path d="M47.7279 15.3213C47.7279 12.3555 46.0717 11.0844 43.5029 11.0844C41.0694 11.0844 39.2104 12.7466 39.2104 15.0932V25.1964H35.8304V1.82853H39.2104V11.0518C40.461 9.16156 42.6242 8.08605 44.6859 8.08605C48.4039 8.08605 51.074 10.4 51.074 14.6369V25.1964H47.7279V15.3213Z" fill="white"/>
<path d="M0.98317 3.49461H4.56592L9.26406 21.3872L15.01 3.49461H19.0321L24.6767 21.3872L29.5438 3.49461H33.1265L26.5694 25.2003H22.6149L16.9704 7.30778L11.3596 25.2003H7.26989L0.98317 3.49461Z" fill="white"/>
</svg>
