<svg xmlns="http://www.w3.org/2000/svg" viewBox="0 0 394.09 436.25"><defs><style>.cls-1{fill:#fff;}</style></defs><g id="Layer_2" data-name="Layer 2"><g id="Layer_1-2" data-name="Layer 1"><path class="cls-1" d="M196.75,63.94C92.47,63.94,7.63,148.78,7.63,253.06H29.38c0-107.28,70.08-176.45,167.37-176.45s167.38,73.45,167.38,176.45h21.75C385.88,148.78,301,63.94,196.75,63.94Z"/><path class="cls-1" d="M12.1,329.11V275.45H6.4V332h.32A41,41,0,0,1,12.1,329.11Z"/><path class="cls-1" d="M65.41,275.45v39.83l-40.06-42v52.34c1.25-.11,2.52-.18,3.81-.18.63,0,1.26,0,1.89.05V287.16l40.06,42V275.45Z"/><path class="cls-1" d="M52.2,343.24V352a29.4,29.4,0,0,0-8.32-5.93,26.21,26.21,0,0,0-11-2.48,24.2,24.2,0,0,0-18.31,7.69A26.34,26.34,0,0,0,7.27,370.2q0,12,8,19a26.3,26.3,0,0,0,17.73,7,25.43,25.43,0,0,0,11.85-3,28.43,28.43,0,0,0,7.37-5.35v8.79A32.36,32.36,0,0,1,33,402.9q-14.14,0-23.56-9.47A31.76,31.76,0,0,1,0,370.11q0-14.25,9.51-23.71t23.85-9.47A30.43,30.43,0,0,1,52.2,343.24Z"/><path class="cls-1" d="M65.2,338h7.07v57.08H89.86v6.69H65.2Z"/><path class="cls-1" d="M142.06,401.75l-7.46-18H107.45l-7.65,18H92l29.35-66.82,28.58,66.82Zm-31.84-24.67h21.61l-10.71-25.52Z"/><path class="cls-1" d="M193,346.88l-5.64,3.72a15,15,0,0,0-3.73-4.78,11.46,11.46,0,0,0-7.17-2.19,11,11,0,0,0-7.74,2.72,9.22,9.22,0,0,0-3,7.12,7.42,7.42,0,0,0,2.39,5.55,23,23,0,0,0,6.69,4l6.12,2.68q6.79,3,9.85,6a15.69,15.69,0,0,1,4.59,11.57q0,8.7-5.74,14.15a20.12,20.12,0,0,1-14.43,5.45q-8.61,0-13.86-5.17a22.26,22.26,0,0,1-5.93-11.28l6.88-1.91a14.44,14.44,0,0,0,3.83,8.13,12.41,12.41,0,0,0,9.17,3.53q6.12,0,9.47-3.68a12.8,12.8,0,0,0,3.34-8.94,9.61,9.61,0,0,0-3.15-7.45q-1.81-1.72-7.65-4.4l-5.74-2.68a31.23,31.23,0,0,1-8.5-5.25,13.82,13.82,0,0,1-4.4-10.42,15.29,15.29,0,0,1,5-11.91q5-4.53,12.86-4.54A17.61,17.61,0,0,1,193,346.88Z"/><path class="cls-1" d="M242.53,346.88l-5.64,3.72a15.17,15.17,0,0,0-3.73-4.78,11.46,11.46,0,0,0-7.17-2.19,11,11,0,0,0-7.75,2.72,9.24,9.24,0,0,0-3,7.12,7.42,7.42,0,0,0,2.39,5.55,23,23,0,0,0,6.69,4l6.12,2.68q6.79,3,9.85,6a15.69,15.69,0,0,1,4.59,11.57,18.66,18.66,0,0,1-5.74,14.15,20.14,20.14,0,0,1-14.43,5.45q-8.61,0-13.87-5.17A22.32,22.32,0,0,1,205,386.45l6.88-1.91a14.43,14.43,0,0,0,3.82,8.13,12.45,12.45,0,0,0,9.18,3.53q6.12,0,9.46-3.68a12.81,12.81,0,0,0,3.35-8.94,9.61,9.61,0,0,0-3.15-7.45c-1.22-1.15-3.76-2.62-7.65-4.4l-5.74-2.68a31.31,31.31,0,0,1-8.51-5.25,13.85,13.85,0,0,1-4.39-10.42,15.29,15.29,0,0,1,5-11.91q5-4.53,12.85-4.54a17.64,17.64,0,0,1,16.45,9.95Z"/><path class="cls-1" d="M257.92,338H265v63.77h-7.07Z"/><path class="cls-1" d="M330.19,343.24V352a29.4,29.4,0,0,0-8.32-5.93,26.21,26.21,0,0,0-11-2.48,24.2,24.2,0,0,0-18.31,7.69,26.34,26.34,0,0,0-7.31,18.88q0,12,8,19a26.3,26.3,0,0,0,17.73,7,25.43,25.43,0,0,0,11.85-3,28.43,28.43,0,0,0,7.37-5.35v8.79A32.36,32.36,0,0,1,311,402.9q-14.14,0-23.56-9.47A31.76,31.76,0,0,1,278,370.11q0-14.25,9.51-23.71t23.85-9.47A30.43,30.43,0,0,1,330.19,343.24Z"/><path class="cls-1" d="M385.82,401.75l-7.45-18H351.22l-7.65,18h-7.84l29.35-66.82,28.58,66.82ZM354,377.08h21.6l-10.7-25.52Z"/><path class="cls-1" d="M5.1,420.61H6.74v14.76H5.1Z"/><path class="cls-1" d="M15.28,435.37H13.65V420l11.51,12.06V420.61h1.63V436L15.28,424Z"/><path class="cls-1" d="M40.91,422.16H37.33v13.21H35.69V422.16H32.1v-1.55h8.81Z"/><path class="cls-1" d="M53.88,420.61v1.55h-6v4.38H53.7v1.55H47.86v5.73h6v1.55H46.22V420.61Z"/><path class="cls-1" d="M60,420.61h2.37a6.32,6.32,0,0,1,3.58.82,3.66,3.66,0,0,1,1.62,3.27,4,4,0,0,1-1,2.83,3.79,3.79,0,0,1-2.69,1.24l4.69,6.6h-2l-4.49-6.46h-.42v6.46H60Zm1.64,1.55v5.29h1a3.68,3.68,0,0,0,2.39-.71,2.45,2.45,0,0,0,.86-2,2.29,2.29,0,0,0-1.17-2.17,4.41,4.41,0,0,0-2.13-.42Z"/><path class="cls-1" d="M75.84,435.37H74.2V420l11.51,12.06V420.61h1.63V436L75.84,424Z"/><path class="cls-1" d="M104.12,435.37l-1.73-4.16H96.11l-1.77,4.16H92.52l6.8-15.47,6.62,15.47Zm-7.37-5.71h5l-2.48-5.91Z"/><path class="cls-1" d="M118.06,422.16h-3.58v13.21h-1.64V422.16h-3.59v-1.55h8.81Z"/><path class="cls-1" d="M123.37,420.61H125v14.76h-1.64Z"/><path class="cls-1" d="M144.26,433.44a7.9,7.9,0,0,1-10.92,0,7.77,7.77,0,0,1,0-10.9,7.88,7.88,0,0,1,10.88,0,7.77,7.77,0,0,1,0,10.9Zm-1.21-9.76a6,6,0,0,0-8.5,0,6.19,6.19,0,0,0,0,8.63,6,6,0,0,0,8.5,0,6.19,6.19,0,0,0,0-8.63Z"/><path class="cls-1" d="M154.23,435.37h-1.64V420l11.51,12.06V420.61h1.63V436L154.23,424Z"/><path class="cls-1" d="M182.51,435.37l-1.73-4.16H174.5l-1.77,4.16h-1.82l6.8-15.47,6.61,15.47Zm-7.37-5.71h5l-2.48-5.91Z"/><path class="cls-1" d="M189.5,420.61h1.64v13.21h4.07v1.55H189.5Z"/><path class="cls-1" d="M210,435.37h-1.68l2.46-15.58,5.66,12.46,5.78-12.48,2.3,15.6h-1.68l-1.4-10.27-5,10.89-5-10.89Z"/><path class="cls-1" d="M232.61,420.61v9.05c0,.56,0,1,0,1.3a3.63,3.63,0,0,0,.31,1.14,2.85,2.85,0,0,0,.83,1.14,3.63,3.63,0,0,0,2.43.84,3.67,3.67,0,0,0,2.44-.84,3,3,0,0,0,.83-1.14,4.28,4.28,0,0,0,.31-1.14c0-.31,0-.74,0-1.3v-9.05h1.64v9.49a5.91,5.91,0,0,1-.93,3.54,4.67,4.67,0,0,1-1.81,1.46,6.21,6.21,0,0,1-5,0,4.64,4.64,0,0,1-1.8-1.46,5.91,5.91,0,0,1-.93-3.54v-9.49Z"/><path class="cls-1" d="M256.27,422.67l-1.3.86a3.52,3.52,0,0,0-.87-1.11,2.63,2.63,0,0,0-1.66-.51,2.56,2.56,0,0,0-1.79.63,2.12,2.12,0,0,0-.68,1.65,1.73,1.73,0,0,0,.55,1.29,5.2,5.2,0,0,0,1.55.92l1.41.62a7.56,7.56,0,0,1,2.28,1.4,3.63,3.63,0,0,1,1.07,2.68,4.32,4.32,0,0,1-1.33,3.27,4.67,4.67,0,0,1-3.34,1.26,4.36,4.36,0,0,1-3.21-1.19,5.12,5.12,0,0,1-1.37-2.61l1.59-.45a3.39,3.39,0,0,0,.88,1.89,2.91,2.91,0,0,0,2.13.81,2.81,2.81,0,0,0,2.19-.85,3,3,0,0,0,.77-2.07,2.21,2.21,0,0,0-.73-1.72,7.06,7.06,0,0,0-1.77-1l-1.32-.62a7.09,7.09,0,0,1-2-1.22,3.2,3.2,0,0,1-1-2.41,3.57,3.57,0,0,1,1.16-2.76,4.27,4.27,0,0,1,3-1.05,4.1,4.1,0,0,1,3.8,2.31Z"/><path class="cls-1" d="M262.93,420.61h1.64v14.76h-1.64Z"/><path class="cls-1" d="M282.76,421.82v2a6.72,6.72,0,0,0-1.92-1.37,6,6,0,0,0-2.55-.58,5.61,5.61,0,0,0-4.23,1.78,6.12,6.12,0,0,0-1.7,4.38,5.56,5.56,0,0,0,1.85,4.4,6.07,6.07,0,0,0,4.11,1.61,5.85,5.85,0,0,0,2.74-.68,6.34,6.34,0,0,0,1.7-1.24v2a7.51,7.51,0,0,1-4.44,1.43,7.69,7.69,0,0,1-5.44-13.08,7.52,7.52,0,0,1,5.52-2.19A7,7,0,0,1,282.76,421.82Z"/><path class="cls-1" d="M303.86,420.61v1.55h-5.09v4.36h4.91v1.55h-4.91v7.3h-1.64V420.61Z"/><path class="cls-1" d="M317.49,420.61v1.55h-6v4.38h5.84v1.55h-5.84v5.73h6v1.55h-7.66V420.61Z"/><path class="cls-1" d="M331.5,422.67l-1.31.86a3.36,3.36,0,0,0-.86-1.11,2.65,2.65,0,0,0-1.66-.51,2.52,2.52,0,0,0-1.79.63,2.13,2.13,0,0,0-.69,1.65,1.73,1.73,0,0,0,.55,1.29,5.34,5.34,0,0,0,1.55.92l1.42.62a7.56,7.56,0,0,1,2.28,1.4,3.62,3.62,0,0,1,1.06,2.68,4.29,4.29,0,0,1-1.33,3.27,4.65,4.65,0,0,1-3.34,1.26,4.36,4.36,0,0,1-3.21-1.19,5.2,5.2,0,0,1-1.37-2.61l1.59-.45a3.41,3.41,0,0,0,.89,1.89,2.87,2.87,0,0,0,2.12.81,2.78,2.78,0,0,0,2.19-.85,3,3,0,0,0,.78-2.07,2.21,2.21,0,0,0-.73-1.72,7.06,7.06,0,0,0-1.77-1l-1.33-.62a7.09,7.09,0,0,1-2-1.22,3.2,3.2,0,0,1-1-2.41,3.57,3.57,0,0,1,1.16-2.76,4.29,4.29,0,0,1,3-1.05,4.12,4.12,0,0,1,2.37.67A4.27,4.27,0,0,1,331.5,422.67Z"/><path class="cls-1" d="M344.44,422.16h-3.58v13.21h-1.64V422.16h-3.58v-1.55h8.8Z"/><path class="cls-1" d="M349.76,420.61h1.63v14.76h-1.63Z"/><path class="cls-1" d="M356.57,420.61h1.82l4.16,11.26,4.16-11.26h1.81l-6,15.64Z"/><path class="cls-1" d="M381.38,435.37l-1.72-4.16h-6.29l-1.77,4.16h-1.82l6.8-15.47,6.62,15.47ZM374,429.66h5l-2.48-5.91Z"/><path class="cls-1" d="M388.38,420.61H390v13.21h4.08v1.55h-5.71Z"/><polygon class="cls-1" points="353.39 39.48 353.43 59.42 359.35 40.26 370.16 57.03 364.79 37.7 382.94 45.98 367.9 32.53 386.48 29.71 367.9 26.89 382.94 13.45 364.79 21.73 370.16 2.4 359.35 19.17 353.43 0 353.39 19.95 338.06 7.01 348.8 23.82 328.91 21.22 346.72 29.71 328.91 38.21 348.8 35.6 338.06 52.41 353.39 39.48"/></g></g></svg>