<svg id="Component_10_20" data-name="Component 10 – 20" xmlns="http://www.w3.org/2000/svg" width="413.76" height="50"
     viewBox="0 0 413.76 50">
    <path id="Path_9" data-name="Path 9"
          d="M491.354,475.242q-3.054,0-3.053-3.055V428.995q0-3.054,3.053-3.055A3.96,3.96,0,0,1,494.7,427.9l16.579,24.938h0L527.857,427.9a4.093,4.093,0,0,1,3.709-1.964q2.473,0,2.472,3.055v43.192q0,3.054-3.053,3.055t-3.053-3.055V438.539h0l-13.38,19.687a4.258,4.258,0,0,1-3.709,1.964,3.723,3.723,0,0,1-2.981-1.964l-13.453-19.794h0v33.755Q494.408,475.241,491.354,475.242Z"
          transform="translate(-488.301 -425.591)" fill="#fff"/>
    <path id="Path_10" data-name="Path 10"
          d="M542.193,475.242q-8.325,0-12.306-3.982t-3.981-12.306V428.995a3.064,3.064,0,1,1,6.107,0v29.959a16.239,16.239,0,0,0,.928,6.108,5.649,5.649,0,0,0,3.145,3.145,16.246,16.246,0,0,0,6.108.927h8.726a16.241,16.241,0,0,0,6.108-.927,5.651,5.651,0,0,0,3.145-3.145,16.243,16.243,0,0,0,.927-6.108V428.995a3.065,3.065,0,1,1,6.108,0v29.959q0,8.325-3.963,12.306t-12.326,3.982Z"
          transform="translate(-470.542 -425.591)" fill="#fff"/>
    <path id="Path_11" data-name="Path 11"
          d="M573.379,475.242q-6.219,0-9.69-2.509t-4.345-7.745a2.866,2.866,0,0,1,.655-2.4,3.158,3.158,0,0,1,2.326-.8,3.008,3.008,0,0,1,2.236.727,4.147,4.147,0,0,1,.963,2.254,4.71,4.71,0,0,0,2.345,3.436,12.526,12.526,0,0,0,5.509.927h10.469q4.693,0,6.382-1.692t1.69-6.307q0-4.691-1.745-6.417t-6.328-1.727h-9.016q-6.872,0-10.2-3.363t-3.326-10.235q0-6.835,3.289-10.144t10.163-3.31h8.652q5.782,0,9.072,2.364a10.8,10.8,0,0,1,4.163,7.235,2.708,2.708,0,0,1-.583,2.382,3.216,3.216,0,0,1-2.4.817,2.879,2.879,0,0,1-2.18-.763,3.979,3.979,0,0,1-.945-2.219,4.254,4.254,0,0,0-2.219-2.927,11.862,11.862,0,0,0-4.908-.782H574.76q-4.364,0-5.854,1.546t-1.491,5.8q0,4.289,1.527,5.89t5.89,1.6h9.016q7.164,0,10.672,3.491t3.508,10.762q0,7.235-3.491,10.671t-10.69,3.436Z"
          transform="translate(-456.763 -425.591)" fill="#fff"/>
    <path id="Path_12" data-name="Path 12"
          d="M594.266,475.194a2.661,2.661,0,0,1-3.053-3.053V429.018a3.135,3.135,0,0,1,.745-2.326,3.062,3.062,0,0,1,5.362,2.326V472.14a3.193,3.193,0,0,1-.727,2.308A3.139,3.139,0,0,1,594.266,475.194Z"
          transform="translate(-441.703 -425.579)" fill="#fff"/>
    <path id="Path_13" data-name="Path 13"
          d="M617.25,475.242q-8.328,0-12.308-3.981t-3.981-12.306V442.229q0-8.4,3.963-12.38t12.252-3.907h8.8q6.835,0,10.434,2.818t4.181,8.889a2.6,2.6,0,0,1-.582,2.326,3.148,3.148,0,0,1-2.328.8q-2.763,0-3.2-3.055-.362-3.343-2.309-4.508t-6.2-1.163h-8.8a15.845,15.845,0,0,0-6.054.873A5.573,5.573,0,0,0,608,436.068a16.5,16.5,0,0,0-.927,6.161v16.726a16.24,16.24,0,0,0,.927,6.107,5.641,5.641,0,0,0,3.145,3.145,16.242,16.242,0,0,0,6.108.927h8.726q4.253,0,6.2-1.182t2.309-4.489q.437-3.054,3.2-3.055a3.154,3.154,0,0,1,2.328.8,2.6,2.6,0,0,1,.582,2.326q-.581,6.108-4.181,8.907t-10.434,2.8Z"
          transform="translate(-438.099 -425.591)" fill="#fff"/>
    <path id="Path_14" data-name="Path 14"
          d="M664.832,475.15a2.818,2.818,0,0,1-2.291.473,3.206,3.206,0,0,1-1.854-1.49l-11.271-18.761H639.237V471.95q0,3.054-3.055,3.053t-3.053-3.053V428.758q0-3.054,3.053-3.055H653.2q6.654,0,10.2,3.545t3.544,10.2v2.182q0,5.781-2.69,9.216a11.878,11.878,0,0,1-7.781,4.272L666,471.005Q667.378,473.551,664.832,475.15Zm-25.595-25.886H653.2q4.143,0,5.889-1.745t1.746-5.89v-2.182q0-4.108-1.746-5.871t-5.889-1.764H639.237Z"
          transform="translate(-421.908 -425.703)" fill="#fff"/>
    <path id="Path_15" data-name="Path 15"
          d="M744.726,475.242q-3.054,0-3.053-3.055V428.995q0-3.054,3.053-3.055a3.96,3.96,0,0,1,3.345,1.964l16.579,24.938h0L781.229,427.9a4.093,4.093,0,0,1,3.709-1.964q2.471,0,2.472,3.055v43.192q0,3.054-3.053,3.055t-3.053-3.055V438.539h0l-13.38,19.687a4.261,4.261,0,0,1-3.71,1.964,3.721,3.721,0,0,1-2.98-1.964L747.78,438.432h0v33.755Q747.78,475.241,744.726,475.242Z"
          transform="translate(-373.65 -425.591)" fill="#fff"/>
    <path id="Path_16" data-name="Path 16"
          d="M768.445,429.9q-3.964-3.964-12.324-3.963H676.486q-8.29-.073-12.289,3.872t-4,12.343v16.8q0,8.326,3.981,12.306t12.308,3.981h79.635q8.361,0,12.324-3.981t3.963-12.306V442.229Q772.408,433.868,768.445,429.9Zm-3.145,29.05a16.237,16.237,0,0,1-.928,6.107,5.641,5.641,0,0,1-3.145,3.145,16.238,16.238,0,0,1-6.107.927h-8.726a16.243,16.243,0,0,1-6.109-.927,5.636,5.636,0,0,1-3.145-3.145,16.237,16.237,0,0,1-.927-6.107v-16.8a15.976,15.976,0,0,1,.945-6.108,5.643,5.643,0,0,1,3.162-3.125,16.012,16.012,0,0,1,6.073-.875h8.726a15.958,15.958,0,0,1,6.107.947,5.711,5.711,0,0,1,3.145,3.162,16.129,16.129,0,0,1,.928,6.071Z"
          transform="translate(-409.125 -425.591)" fill="#fff"/>
</svg>
