<svg xmlns="http://www.w3.org/2000/svg" version="1.1"
     width="512" height="512" x="0" y="0" viewBox="0 0 512 512"
     style="enable-background:new 0 0 512 512" xml:space="preserve" class="">
    <g>
        <path xmlns="http://www.w3.org/2000/svg"
              d="m256 0c141.386 0 256 114.614 256 256s-114.614 256-256 256-256-114.611-256-256 114.617-256 256-256zm-157.5 346.177c0 .113.013.219.015.328l107.589-83.82-107.604-95.337zm207.4-83.492 107.587 83.82c0-.109.017-.215.017-.328v-178.829zm-82.663 15.177-103.586 80.7h272.704l-103.587-80.7-25.307 22.421a11.25 11.25 0 0 1 -14.92 0l-25.307-22.421zm32.763-1.031 139.274-123.393h-278.547z"
              fill-rule="evenodd" fill="#ffffff">
        </path>
    </g>
</svg>
