<svg xmlns="http://www.w3.org/2000/svg" version="1.1"
     width="512" height="512" x="0" y="0" viewBox="0 0 152 152"
     style="enable-background:new 0 0 512 512" xml:space="preserve" class="">
        <path id="_01.Facebook"
              d="m76 0a76 76 0 1 0 76 76 76 76 0 0 0 -76-76zm21.62 49.46c0 1.43-.6 2-2 2-2.69 0-5.38 0-8.06.11s-4.14 1.33-4.14 4.13c-.06 3 0 5.94 0 9h11.51c1.64 0 2.2.56 2.2 2.21q0 6 0 12.06c0 1.63-.52 2.14-2.17 2.15h-11.64v32.54c0 1.74-.54 2.29-2.26 2.29h-12.52c-1.51 0-2.1-.59-2.1-2.1v-32.68h-9.94c-1.56 0-2.12-.57-2.12-2.14q0-6.07 0-12.13c0-1.56.59-2.15 2.13-2.15h9.93v-8.75a21.89 21.89 0 0 1 2.73-11.26 16.51 16.51 0 0 1 8.93-7.42 21.91 21.91 0 0 1 7.65-1.32h9.83c1.41 0 2 .62 2 2 .05 3.85.05 7.66.04 11.46z"
              fill="#ffffff"/>
</svg>
